<?xml version="1.0" encoding="utf-8"?>
<!-- Generator: Adobe Illustrator 16.0.0, SVG Export Plug-In . SVG Version: 6.00 Build 0)  -->
<!DOCTYPE svg PUBLIC "-//W3C//DTD SVG 1.1//EN" "http://www.w3.org/Graphics/SVG/1.1/DTD/svg11.dtd">
<svg version="1.1" id="Layer_2" xmlns="http://www.w3.org/2000/svg" xmlns:xlink="http://www.w3.org/1999/xlink" x="0px" y="0px"
	 width="1024px" height="722.834px" viewBox="0 0 1024 722.834" enable-background="new 0 0 1024 722.834" xml:space="preserve">
<g>
	<rect x="62.341" y="161.005" fill="#FFCC33" width="137.478" height="431.918"/>
	<rect x="253.324" y="256.742" fill="#FFCC33" width="137.479" height="336.148"/>
	<rect x="444.296" y="500.675" fill="#FFCC33" width="137.474" height="92.215"/>
	<rect x="635.291" y="466.257" fill="#FFCC33" width="137.479" height="126.633"/>
	<rect x="826.132" y="567.553" fill="#FFCC33" width="137.479" height="25.337"/>
</g>
<g>
	<line fill="none" stroke="#231F20" stroke-miterlimit="10" x1="35.48" y1="592.89" x2="990.522" y2="592.89"/>
	<line fill="none" stroke="#231F20" stroke-miterlimit="10" x1="990.522" y1="592.89" x2="990.522" y2="607.639"/>
	<line fill="none" stroke="#231F20" stroke-miterlimit="10" x1="799.499" y1="592.89" x2="799.499" y2="607.639"/>
	<line fill="none" stroke="#231F20" stroke-miterlimit="10" x1="608.527" y1="592.89" x2="608.527" y2="607.639"/>
	<line fill="none" stroke="#231F20" stroke-miterlimit="10" x1="417.538" y1="592.89" x2="417.538" y2="607.639"/>
	<line fill="none" stroke="#231F20" stroke-miterlimit="10" x1="226.6" y1="592.89" x2="226.6" y2="607.639"/>
	<line fill="none" stroke="#231F20" stroke-miterlimit="10" x1="35.48" y1="592.889" x2="35.48" y2="607.638"/>
</g>
<g>
	<path fill="#231F20" d="M835.473,614.937h1.92l6.121,9.169l6.119-9.169h1.922v16.802h-1.896v-13.609l-6.121,9.001h-0.096
		l-6.121-8.977v13.585h-1.848V614.937z"/>
	<path fill="#231F20" d="M861.465,630.418c1.705,0,2.904-0.696,3.912-1.752l1.152,1.032c-1.248,1.392-2.76,2.328-5.113,2.328
		c-3.408,0-6.191-2.616-6.191-6.48c0-3.601,2.52-6.48,5.953-6.48c3.672,0,5.783,2.928,5.783,6.576c0,0.168,0,0.36-0.023,0.648
		h-9.842C857.361,628.907,859.281,630.418,861.465,630.418z M865.09,624.802c-0.217-2.256-1.514-4.177-3.961-4.177
		c-2.137,0-3.768,1.776-4.033,4.177H865.09z"/>
	<path fill="#231F20" d="M870.201,619.33h1.848v2.16c0.816-1.344,2.111-2.424,4.248-2.424c3,0,4.752,2.016,4.752,4.968v7.705h-1.848
		v-7.249c0-2.304-1.248-3.744-3.432-3.744c-2.137,0-3.721,1.561-3.721,3.889v7.104h-1.848V619.33z"/>
	<path fill="#231F20" d="M885.633,628.451v-7.489h-1.729v-1.632h1.729v-3.744h1.848v3.744h3.938v1.632h-3.938v7.249
		c0,1.512,0.84,2.064,2.088,2.064c0.625,0,1.152-0.12,1.801-0.433v1.584c-0.648,0.337-1.344,0.528-2.232,0.528
		C887.145,631.955,885.633,630.97,885.633,628.451z"/>
	<path fill="#231F20" d="M893.744,628.138v-0.048c0-2.664,2.16-4.057,5.305-4.057c1.584,0,2.689,0.217,3.793,0.528v-0.384
		c0-2.208-1.344-3.36-3.672-3.36c-1.465,0-2.617,0.36-3.77,0.888l-0.551-1.512c1.367-0.624,2.688-1.057,4.512-1.057
		c1.752,0,3.121,0.48,4.008,1.368c0.865,0.864,1.297,2.064,1.297,3.648v7.585h-1.824v-1.849c-0.865,1.104-2.281,2.112-4.465,2.112
		C896.049,632.002,893.744,630.683,893.744,628.138z M902.865,627.178v-1.152c-0.912-0.264-2.111-0.527-3.623-0.527
		c-2.305,0-3.625,1.008-3.625,2.496v0.048c0,1.561,1.439,2.473,3.119,2.473C901.018,630.515,902.865,629.147,902.865,627.178z"/>
	<path fill="#231F20" d="M908.744,614.217h1.848v17.521h-1.848V614.217z"/>
	<path fill="#231F20" d="M921.318,625.594v-0.048c0-3.505,2.736-6.48,6.48-6.48c3.721,0,6.457,2.928,6.457,6.433v0.048
		c0,3.504-2.76,6.48-6.504,6.48C924.031,632.027,921.318,629.098,921.318,625.594z M932.359,625.594v-0.048
		c0-2.664-1.992-4.849-4.607-4.849c-2.689,0-4.537,2.185-4.537,4.801v0.048c0,2.664,1.969,4.824,4.584,4.824
		C930.488,630.371,932.359,628.21,932.359,625.594z"/>
	<path fill="#231F20" d="M937.398,627.035v-7.705h1.85v7.249c0,2.304,1.248,3.744,3.432,3.744c2.111,0,3.721-1.561,3.721-3.889
		v-7.104h1.824v12.409H946.4v-2.16c-0.84,1.344-2.113,2.424-4.248,2.424C939.15,632.002,937.398,629.987,937.398,627.035z"/>
	<path fill="#231F20" d="M835.209,643.377h2.111v2.04h-2.111V643.377z M835.328,648.129h1.848v12.409h-1.848V648.129z"/>
	<path fill="#231F20" d="M841.473,648.129h1.848v2.16c0.816-1.344,2.111-2.424,4.248-2.424c3,0,4.752,2.016,4.752,4.968v7.705
		h-1.848v-7.249c0-2.304-1.248-3.744-3.432-3.744c-2.137,0-3.721,1.561-3.721,3.889v7.104h-1.848V648.129z"/>
	<path fill="#231F20" d="M856.904,657.25v-7.489h-1.729v-1.632h1.729v-3.744h1.848v3.744h3.938v1.632h-3.938v7.249
		c0,1.512,0.84,2.064,2.088,2.064c0.625,0,1.152-0.12,1.801-0.433v1.584c-0.648,0.337-1.344,0.528-2.232,0.528
		C858.416,660.754,856.904,659.771,856.904,657.25z"/>
	<path fill="#231F20" d="M871.064,659.218c1.705,0,2.904-0.696,3.912-1.752l1.152,1.032c-1.248,1.392-2.76,2.328-5.113,2.328
		c-3.408,0-6.191-2.616-6.191-6.48c0-3.601,2.52-6.48,5.953-6.48c3.672,0,5.783,2.928,5.783,6.576c0,0.168,0,0.36-0.023,0.648
		h-9.842C866.961,657.707,868.881,659.218,871.064,659.218z M874.689,653.602c-0.217-2.256-1.514-4.177-3.961-4.177
		c-2.137,0-3.768,1.776-4.033,4.177H874.689z"/>
	<path fill="#231F20" d="M879.969,643.017h1.848v17.521h-1.848V643.017z"/>
	<path fill="#231F20" d="M891.584,659.218c1.705,0,2.904-0.696,3.912-1.752l1.152,1.032c-1.248,1.392-2.76,2.328-5.113,2.328
		c-3.408,0-6.191-2.616-6.191-6.48c0-3.601,2.52-6.48,5.953-6.48c3.672,0,5.783,2.928,5.783,6.576c0,0.168,0,0.36-0.023,0.648
		h-9.842C887.48,657.707,889.4,659.218,891.584,659.218z M895.209,653.602c-0.217-2.256-1.514-4.177-3.961-4.177
		c-2.137,0-3.768,1.776-4.033,4.177H895.209z"/>
	<path fill="#231F20" d="M899.551,654.394v-0.048c0-3.505,2.736-6.48,6.361-6.48c2.352,0,3.816,0.983,4.969,2.208l-1.225,1.296
		c-0.984-1.032-2.088-1.872-3.768-1.872c-2.521,0-4.441,2.137-4.441,4.801v0.048c0,2.688,1.969,4.824,4.561,4.824
		c1.584,0,2.809-0.792,3.793-1.848l1.176,1.104c-1.248,1.393-2.736,2.4-5.064,2.4C902.287,660.827,899.551,657.875,899.551,654.394z
		"/>
	<path fill="#231F20" d="M914.672,657.25v-7.489h-1.729v-1.632h1.729v-3.744h1.848v3.744h3.938v1.632h-3.938v7.249
		c0,1.512,0.84,2.064,2.088,2.064c0.625,0,1.152-0.12,1.801-0.433v1.584c-0.648,0.337-1.344,0.528-2.232,0.528
		C916.184,660.754,914.672,659.771,914.672,657.25z"/>
	<path fill="#231F20" d="M923.527,655.834v-7.705h1.848v7.249c0,2.304,1.248,3.744,3.432,3.744c2.113,0,3.721-1.561,3.721-3.889
		v-7.104h1.824v12.409h-1.824v-2.16c-0.84,1.344-2.111,2.424-4.248,2.424C925.279,660.802,923.527,658.787,923.527,655.834z"/>
	<path fill="#231F20" d="M937.566,656.938v-0.048c0-2.664,2.16-4.057,5.305-4.057c1.584,0,2.689,0.217,3.793,0.528v-0.384
		c0-2.208-1.344-3.36-3.672-3.36c-1.465,0-2.617,0.36-3.77,0.888l-0.551-1.512c1.367-0.624,2.688-1.057,4.512-1.057
		c1.752,0,3.121,0.48,4.008,1.368c0.865,0.864,1.297,2.064,1.297,3.648v7.585h-1.824v-1.849c-0.865,1.104-2.281,2.112-4.465,2.112
		C939.871,660.802,937.566,659.483,937.566,656.938z M946.688,655.978v-1.152c-0.912-0.264-2.111-0.527-3.623-0.527
		c-2.305,0-3.625,1.008-3.625,2.496v0.048c0,1.561,1.439,2.473,3.119,2.473C944.84,659.315,946.688,657.947,946.688,655.978z"/>
	<path fill="#231F20" d="M952.566,643.017h1.848v17.521h-1.848V643.017z"/>
</g>
<g>
	<path fill="#231F20" d="M664.311,614.937h1.92l6.121,9.169l6.121-9.169h1.92v16.802h-1.896v-13.609l-6.121,9.001h-0.096
		l-6.119-8.977v13.585h-1.85V614.937z"/>
	<path fill="#231F20" d="M684.062,625.594v-0.048c0-3.505,2.736-6.48,6.48-6.48c3.721,0,6.457,2.928,6.457,6.433v0.048
		c0,3.504-2.76,6.48-6.504,6.48C686.775,632.027,684.062,629.098,684.062,625.594z M695.104,625.594v-0.048
		c0-2.664-1.992-4.849-4.607-4.849c-2.689,0-4.537,2.185-4.537,4.801v0.048c0,2.664,1.969,4.824,4.584,4.824
		C693.232,630.371,695.104,628.21,695.104,625.594z"/>
	<path fill="#231F20" d="M700.982,628.451v-7.489h-1.727v-1.632h1.727v-3.744h1.85v3.744h3.936v1.632h-3.936v7.249
		c0,1.512,0.84,2.064,2.088,2.064c0.623,0,1.152-0.12,1.801-0.433v1.584c-0.648,0.337-1.346,0.528-2.232,0.528
		C702.496,631.955,700.982,630.97,700.982,628.451z"/>
	<path fill="#231F20" d="M708.902,625.594v-0.048c0-3.505,2.736-6.48,6.48-6.48c3.721,0,6.457,2.928,6.457,6.433v0.048
		c0,3.504-2.762,6.48-6.506,6.48C711.615,632.027,708.902,629.098,708.902,625.594z M719.943,625.594v-0.048
		c0-2.664-1.992-4.849-4.609-4.849c-2.688,0-4.535,2.185-4.535,4.801v0.048c0,2.664,1.967,4.824,4.584,4.824
		C718.07,630.371,719.943,628.21,719.943,625.594z"/>
	<path fill="#231F20" d="M725.174,619.33h1.848v3.24c0.912-2.064,2.713-3.552,5.064-3.456v1.992h-0.143
		c-2.713,0-4.922,1.944-4.922,5.688v4.944h-1.848V619.33z"/>
	<path fill="#231F20" d="M733.357,628.138v-0.048c0-2.664,2.16-4.057,5.305-4.057c1.584,0,2.689,0.217,3.793,0.528v-0.384
		c0-2.208-1.344-3.36-3.672-3.36c-1.465,0-2.617,0.36-3.77,0.888l-0.551-1.512c1.367-0.624,2.688-1.057,4.512-1.057
		c1.752,0,3.121,0.48,4.008,1.368c0.865,0.864,1.297,2.064,1.297,3.648v7.585h-1.824v-1.849c-0.865,1.104-2.281,2.112-4.465,2.112
		C735.662,632.002,733.357,630.683,733.357,628.138z M742.479,627.178v-1.152c-0.912-0.264-2.111-0.527-3.623-0.527
		c-2.305,0-3.625,1.008-3.625,2.496v0.048c0,1.561,1.439,2.473,3.119,2.473C740.631,630.515,742.479,629.147,742.479,627.178z"/>
</g>
<g>
	<path fill="#231F20" d="M472.054,614.817h1.776l7.657,16.922h-2.04l-1.968-4.44h-9.145l-1.992,4.44h-1.944L472.054,614.817z
		 M476.734,625.594l-3.816-8.568l-3.84,8.568H476.734z"/>
	<path fill="#231F20" d="M484.054,627.035v-7.705h1.848v7.249c0,2.304,1.248,3.744,3.433,3.744c2.112,0,3.72-1.561,3.72-3.889
		v-7.104h1.824v12.409h-1.824v-2.16c-0.84,1.344-2.112,2.424-4.249,2.424C485.806,632.002,484.054,629.987,484.054,627.035z"/>
	<path fill="#231F20" d="M498.31,625.57v-0.048c0-4.056,2.952-6.456,5.928-6.456c2.304,0,3.792,1.248,4.752,2.64v-7.488h1.848
		v17.521h-1.848v-2.496c-1.008,1.488-2.472,2.76-4.752,2.76C501.262,632.002,498.31,629.651,498.31,625.57z M509.062,625.546v-0.048
		c0-2.856-2.184-4.776-4.488-4.776c-2.4,0-4.369,1.775-4.369,4.776v0.048c0,2.928,2.016,4.8,4.369,4.8
		C506.878,630.346,509.062,628.403,509.062,625.546z"/>
	<path fill="#231F20" d="M515.014,614.578h2.111v2.04h-2.111V614.578z M515.133,619.33h1.849v12.409h-1.849V619.33z"/>
	<path fill="#231F20" d="M521.925,628.451v-7.489h-1.728v-1.632h1.728v-3.744h1.849v3.744h3.937v1.632h-3.937v7.249
		c0,1.512,0.84,2.064,2.088,2.064c0.624,0,1.152-0.12,1.8-0.433v1.584c-0.647,0.337-1.344,0.528-2.231,0.528
		C523.438,631.955,521.925,630.97,521.925,628.451z"/>
	<path fill="#231F20" d="M531.021,614.578h2.112v2.04h-2.112V614.578z M531.141,619.33h1.848v12.409h-1.848V619.33z"/>
	<path fill="#231F20" d="M536.06,619.33h2.04l4.177,10.297l4.2-10.297h1.992l-5.4,12.505h-1.632L536.06,619.33z"/>
	<path fill="#231F20" d="M549.836,628.138v-0.048c0-2.664,2.16-4.057,5.305-4.057c1.584,0,2.688,0.217,3.792,0.528v-0.384
		c0-2.208-1.344-3.36-3.672-3.36c-1.464,0-2.616,0.36-3.769,0.888l-0.552-1.512c1.368-0.624,2.688-1.057,4.512-1.057
		c1.753,0,3.121,0.48,4.009,1.368c0.864,0.864,1.296,2.064,1.296,3.648v7.585h-1.824v-1.849c-0.864,1.104-2.28,2.112-4.464,2.112
		C552.141,632.002,549.836,630.683,549.836,628.138z M558.957,627.178v-1.152c-0.912-0.264-2.112-0.527-3.624-0.527
		c-2.305,0-3.625,1.008-3.625,2.496v0.048c0,1.561,1.44,2.473,3.12,2.473C557.108,630.515,558.957,629.147,558.957,627.178z"/>
</g>
<g>
	<path fill="#231F20" d="M287.612,613.936h2.112l5.977,14.474l6-14.474h2.04l-7.225,16.922h-1.68L287.612,613.936z"/>
	<path fill="#231F20" d="M306.308,613.577h2.112v2.04h-2.112V613.577z M306.428,618.329h1.848v12.409h-1.848V618.329z"/>
	<path fill="#231F20" d="M311.54,629.154l0.936-1.32c1.344,1.008,2.832,1.584,4.296,1.584c1.488,0,2.568-0.768,2.568-1.968v-0.048
		c0-1.248-1.464-1.729-3.097-2.185c-1.944-0.552-4.104-1.224-4.104-3.504v-0.049c0-2.136,1.776-3.552,4.224-3.552
		c1.512,0,3.192,0.528,4.464,1.368l-0.84,1.392c-1.152-0.744-2.472-1.2-3.672-1.2c-1.464,0-2.4,0.769-2.4,1.801v0.048
		c0,1.176,1.536,1.632,3.192,2.136c1.92,0.576,3.984,1.32,3.984,3.553v0.048c0,2.353-1.944,3.721-4.417,3.721
		C314.9,630.978,312.932,630.282,311.54,629.154z"/>
	<path fill="#231F20" d="M324.332,626.034v-7.705h1.848v7.249c0,2.304,1.248,3.744,3.433,3.744c2.112,0,3.72-1.561,3.72-3.889
		v-7.104h1.824v12.409h-1.824v-2.16c-0.84,1.344-2.112,2.424-4.249,2.424C326.084,631.001,324.332,628.986,324.332,626.034z"/>
	<path fill="#231F20" d="M338.372,627.137v-0.048c0-2.664,2.16-4.057,5.305-4.057c1.584,0,2.688,0.217,3.792,0.528v-0.384
		c0-2.208-1.344-3.36-3.672-3.36c-1.464,0-2.616,0.36-3.769,0.888l-0.552-1.512c1.368-0.624,2.688-1.057,4.512-1.057
		c1.752,0,3.12,0.48,4.008,1.368c0.864,0.864,1.296,2.064,1.296,3.648v7.585h-1.824v-1.849c-0.864,1.104-2.28,2.112-4.464,2.112
		C340.676,631.001,338.372,629.682,338.372,627.137z M347.493,626.177v-1.152c-0.912-0.264-2.112-0.527-3.625-0.527
		c-2.304,0-3.624,1.008-3.624,2.496v0.048c0,1.561,1.44,2.473,3.12,2.473C345.645,629.514,347.493,628.146,347.493,626.177z"/>
	<path fill="#231F20" d="M353.372,613.216h1.848v17.521h-1.848V613.216z"/>
</g>
<g>
	<path fill="#231F20" d="M63.377,614.937h6.289c3.792,0,6.289,2.017,6.289,5.329v0.048c0,3.624-3.024,5.496-6.601,5.496h-4.08v5.929
		h-1.896V614.937z M69.426,624.083c2.784,0,4.608-1.488,4.608-3.696v-0.049c0-2.399-1.8-3.647-4.513-3.647h-4.248v7.393H69.426z"/>
	<path fill="#231F20" d="M84.45,630.418c1.704,0,2.904-0.696,3.913-1.752l1.152,1.032c-1.248,1.392-2.76,2.328-5.112,2.328
		c-3.408,0-6.193-2.616-6.193-6.48c0-3.601,2.521-6.48,5.953-6.48c3.672,0,5.785,2.928,5.785,6.576c0,0.168,0,0.36-0.024,0.648
		h-9.841C80.345,628.907,82.266,630.418,84.45,630.418z M88.074,624.802c-0.216-2.256-1.512-4.177-3.96-4.177
		c-2.136,0-3.769,1.776-4.032,4.177H88.074z"/>
	<path fill="#231F20" d="M93.354,614.217h1.848v17.521h-1.848V614.217z"/>
	<path fill="#231F20" d="M98.729,625.594v-0.048c0-3.505,2.736-6.48,6.481-6.48c3.72,0,6.457,2.928,6.457,6.433v0.048
		c0,3.504-2.76,6.48-6.505,6.48C101.441,632.027,98.729,629.098,98.729,625.594z M109.77,625.594v-0.048
		c0-2.664-1.992-4.849-4.608-4.849c-2.688,0-4.536,2.185-4.536,4.801v0.048c0,2.664,1.968,4.824,4.584,4.824
		C107.897,630.371,109.77,628.21,109.77,625.594z"/>
	<path fill="#231F20" d="M122.2,619.33h1.848v2.088c0.816-1.224,1.92-2.352,4.009-2.352c2.016,0,3.312,1.08,3.984,2.472
		c0.888-1.368,2.208-2.472,4.368-2.472c2.856,0,4.608,1.92,4.608,4.992v7.681h-1.848v-7.249c0-2.399-1.2-3.744-3.216-3.744
		c-1.872,0-3.432,1.393-3.432,3.841v7.152h-1.824v-7.297c0-2.328-1.224-3.696-3.192-3.696s-3.457,1.633-3.457,3.912v7.081H122.2
		V619.33z"/>
	<path fill="#231F20" d="M150.497,630.418c1.704,0,2.904-0.696,3.913-1.752l1.152,1.032c-1.248,1.392-2.76,2.328-5.112,2.328
		c-3.408,0-6.193-2.616-6.193-6.48c0-3.601,2.521-6.48,5.953-6.48c3.672,0,5.785,2.928,5.785,6.576c0,0.168,0,0.36-0.024,0.648
		h-9.841C146.392,628.907,148.312,630.418,150.497,630.418z M154.121,624.802c-0.216-2.256-1.512-4.177-3.96-4.177
		c-2.136,0-3.769,1.776-4.032,4.177H154.121z"/>
	<path fill="#231F20" d="M159.232,619.33h1.848v2.16c0.816-1.344,2.112-2.424,4.249-2.424c3,0,4.752,2.016,4.752,4.968v7.705h-1.848
		v-7.249c0-2.304-1.248-3.744-3.432-3.744c-2.136,0-3.721,1.561-3.721,3.889v7.104h-1.848V619.33z"/>
	<path fill="#231F20" d="M173.248,625.594v-0.048c0-3.505,2.736-6.48,6.481-6.48c3.72,0,6.457,2.928,6.457,6.433v0.048
		c0,3.504-2.76,6.48-6.505,6.48C175.96,632.027,173.248,629.098,173.248,625.594z M184.289,625.594v-0.048
		c0-2.664-1.992-4.849-4.608-4.849c-2.688,0-4.536,2.185-4.536,4.801v0.048c0,2.664,1.968,4.824,4.584,4.824
		C182.417,630.371,184.289,628.21,184.289,625.594z"/>
	<path fill="#231F20" d="M188.488,630.155l0.936-1.32c1.344,1.008,2.832,1.584,4.296,1.584c1.488,0,2.568-0.768,2.568-1.968v-0.048
		c0-1.248-1.464-1.729-3.096-2.185c-1.944-0.552-4.104-1.224-4.104-3.504v-0.049c0-2.136,1.776-3.552,4.224-3.552
		c1.512,0,3.192,0.528,4.464,1.368l-0.84,1.392c-1.152-0.744-2.472-1.2-3.672-1.2c-1.464,0-2.4,0.769-2.4,1.801v0.048
		c0,1.176,1.536,1.632,3.192,2.136c1.92,0.576,3.984,1.32,3.984,3.553v0.048c0,2.353-1.944,3.721-4.417,3.721
		C191.849,631.979,189.88,631.283,188.488,630.155z"/>
	<path fill="#231F20" d="M62.873,655.834v-7.705h1.848v7.249c0,2.304,1.248,3.744,3.433,3.744c2.112,0,3.72-1.561,3.72-3.889v-7.104
		h1.824v12.409h-1.824v-2.16c-0.84,1.344-2.112,2.424-4.249,2.424C64.625,660.802,62.873,658.787,62.873,655.834z"/>
	<path fill="#231F20" d="M77.849,648.129h1.848v2.088c0.816-1.224,1.92-2.352,4.009-2.352c2.016,0,3.312,1.08,3.984,2.472
		c0.888-1.368,2.208-2.472,4.368-2.472c2.856,0,4.608,1.92,4.608,4.992v7.681h-1.848v-7.249c0-2.399-1.2-3.744-3.216-3.744
		c-1.872,0-3.432,1.393-3.432,3.841v7.152h-1.824v-7.297c0-2.328-1.224-3.696-3.192-3.696s-3.457,1.633-3.457,3.912v7.081h-1.848
		V648.129z"/>
	<path fill="#231F20" d="M99.736,656.938v-0.048c0-2.664,2.16-4.057,5.305-4.057c1.584,0,2.688,0.217,3.792,0.528v-0.384
		c0-2.208-1.344-3.36-3.672-3.36c-1.464,0-2.616,0.36-3.769,0.888l-0.552-1.512c1.368-0.624,2.688-1.057,4.512-1.057
		c1.752,0,3.12,0.48,4.008,1.368c0.864,0.864,1.296,2.064,1.296,3.648v7.585h-1.824v-1.849c-0.864,1.104-2.28,2.112-4.465,2.112
		C102.041,660.802,99.736,659.483,99.736,656.938z M108.857,655.978v-1.152c-0.912-0.264-2.112-0.527-3.625-0.527
		c-2.304,0-3.624,1.008-3.624,2.496v0.048c0,1.561,1.44,2.473,3.12,2.473C107.009,659.315,108.857,657.947,108.857,655.978z"/>
	<path fill="#231F20" d="M121.048,654.37v-0.048c0-4.056,2.952-6.456,5.928-6.456c2.304,0,3.792,1.248,4.752,2.64v-7.488h1.848
		v17.521h-1.848v-2.496c-1.008,1.488-2.472,2.76-4.752,2.76C124,660.802,121.048,658.451,121.048,654.37z M131.801,654.346v-0.048
		c0-2.856-2.184-4.776-4.488-4.776c-2.4,0-4.369,1.775-4.369,4.776v0.048c0,2.928,2.016,4.8,4.369,4.8
		C129.617,659.146,131.801,657.203,131.801,654.346z"/>
	<path fill="#231F20" d="M136.768,656.938v-0.048c0-2.664,2.16-4.057,5.305-4.057c1.584,0,2.688,0.217,3.792,0.528v-0.384
		c0-2.208-1.344-3.36-3.672-3.36c-1.464,0-2.616,0.36-3.769,0.888l-0.552-1.512c1.368-0.624,2.688-1.057,4.512-1.057
		c1.752,0,3.12,0.48,4.008,1.368c0.864,0.864,1.296,2.064,1.296,3.648v7.585h-1.824v-1.849c-0.864,1.104-2.28,2.112-4.465,2.112
		C139.072,660.802,136.768,659.483,136.768,656.938z M145.889,655.978v-1.152c-0.912-0.264-2.112-0.527-3.625-0.527
		c-2.304,0-3.624,1.008-3.624,2.496v0.048c0,1.561,1.44,2.473,3.12,2.473C144.041,659.315,145.889,657.947,145.889,655.978z"/>
	<path fill="#231F20" d="M150.568,658.955l0.936-1.32c1.344,1.008,2.832,1.584,4.296,1.584c1.488,0,2.568-0.768,2.568-1.968v-0.048
		c0-1.248-1.464-1.729-3.097-2.185c-1.944-0.552-4.104-1.224-4.104-3.504v-0.049c0-2.136,1.776-3.552,4.224-3.552
		c1.512,0,3.192,0.528,4.464,1.368l-0.84,1.392c-1.152-0.744-2.472-1.2-3.672-1.2c-1.464,0-2.4,0.769-2.4,1.801v0.048
		c0,1.176,1.536,1.632,3.192,2.136c1.92,0.576,3.984,1.32,3.984,3.553v0.048c0,2.353-1.944,3.721-4.417,3.721
		C153.928,660.779,151.96,660.083,150.568,658.955z"/>
	<path fill="#231F20" d="M62.345,683.169v-0.048c0-4.056,2.952-6.456,5.928-6.456c2.304,0,3.792,1.248,4.752,2.64v-7.488h1.848
		v17.521h-1.848v-2.496c-1.008,1.488-2.472,2.76-4.752,2.76C65.297,689.602,62.345,687.25,62.345,683.169z M73.098,683.146v-0.048
		c0-2.856-2.184-4.776-4.488-4.776c-2.4,0-4.369,1.775-4.369,4.776v0.048c0,2.928,2.016,4.8,4.369,4.8
		C70.914,687.946,73.098,686.002,73.098,683.146z"/>
	<path fill="#231F20" d="M84.473,688.018c1.704,0,2.904-0.696,3.913-1.752l1.152,1.032c-1.248,1.392-2.76,2.328-5.112,2.328
		c-3.408,0-6.193-2.616-6.193-6.48c0-3.601,2.521-6.48,5.953-6.48c3.672,0,5.785,2.928,5.785,6.576c0,0.168,0,0.36-0.024,0.648
		h-9.841C80.369,686.506,82.289,688.018,84.473,688.018z M88.098,682.402c-0.216-2.256-1.512-4.177-3.96-4.177
		c-2.136,0-3.769,1.776-4.032,4.177H88.098z"/>
	<path fill="#231F20" d="M93.905,678.561h-1.704v-1.607h1.704v-1.08c0-1.416,0.384-2.496,1.08-3.192
		c0.624-0.624,1.536-0.96,2.664-0.96c0.864,0,1.44,0.096,2.041,0.312v1.608c-0.672-0.192-1.176-0.312-1.8-0.312
		c-1.44,0-2.16,0.864-2.16,2.641v1.008h3.936v1.584h-3.912v10.777h-1.848V678.561z M102.065,672.177h2.112v2.04h-2.112V672.177z
		 M102.209,676.929h1.824v12.409h-1.824V676.929z"/>
	<path fill="#231F20" d="M107.584,683.194v-0.048c0-3.505,2.736-6.48,6.361-6.48c2.352,0,3.816,0.983,4.968,2.208l-1.224,1.296
		c-0.984-1.032-2.088-1.872-3.768-1.872c-2.521,0-4.44,2.137-4.44,4.801v0.048c0,2.688,1.968,4.824,4.56,4.824
		c1.584,0,2.809-0.792,3.792-1.848l1.176,1.104c-1.248,1.393-2.736,2.4-5.064,2.4C110.321,689.626,107.584,686.674,107.584,683.194z
		"/>
	<path fill="#231F20" d="M122.105,672.177h2.112v2.04h-2.112V672.177z M122.225,676.929h1.848v12.409h-1.848V676.929z"/>
	<path fill="#231F20" d="M133.841,688.018c1.704,0,2.904-0.696,3.913-1.752l1.152,1.032c-1.248,1.392-2.76,2.328-5.112,2.328
		c-3.408,0-6.193-2.616-6.193-6.48c0-3.601,2.521-6.48,5.953-6.48c3.672,0,5.785,2.928,5.785,6.576c0,0.168,0,0.36-0.024,0.648
		h-9.841C129.736,686.506,131.657,688.018,133.841,688.018z M137.465,682.402c-0.216-2.256-1.512-4.177-3.96-4.177
		c-2.136,0-3.769,1.776-4.032,4.177H137.465z M132.713,671.913h1.632l2.544,3.145h-1.584l-1.8-1.608l-1.8,1.608h-1.536
		L132.713,671.913z"/>
	<path fill="#231F20" d="M142.576,676.929h1.848v2.16c0.816-1.344,2.112-2.424,4.249-2.424c3,0,4.752,2.016,4.752,4.968v7.705
		h-1.848v-7.249c0-2.304-1.248-3.744-3.432-3.744c-2.136,0-3.721,1.561-3.721,3.889v7.104h-1.848V676.929z"/>
	<path fill="#231F20" d="M156.592,683.194v-0.048c0-3.505,2.736-6.48,6.361-6.48c2.352,0,3.816,0.983,4.968,2.208l-1.224,1.296
		c-0.984-1.032-2.088-1.872-3.768-1.872c-2.521,0-4.44,2.137-4.44,4.801v0.048c0,2.688,1.968,4.824,4.56,4.824
		c1.584,0,2.809-0.792,3.792-1.848l1.176,1.104c-1.248,1.393-2.736,2.4-5.064,2.4C159.329,689.626,156.592,686.674,156.592,683.194z
		"/>
	<path fill="#231F20" d="M171.113,672.177h2.112v2.04h-2.112V672.177z M171.233,676.929h1.848v12.409h-1.848V676.929z"/>
	<path fill="#231F20" d="M176.44,685.738v-0.048c0-2.664,2.16-4.057,5.305-4.057c1.584,0,2.688,0.217,3.792,0.528v-0.384
		c0-2.208-1.344-3.36-3.672-3.36c-1.464,0-2.616,0.36-3.769,0.888l-0.552-1.512c1.368-0.624,2.688-1.057,4.512-1.057
		c1.752,0,3.12,0.48,4.008,1.368c0.864,0.864,1.296,2.064,1.296,3.648v7.585h-1.824v-1.849c-0.864,1.104-2.28,2.112-4.464,2.112
		C178.744,689.602,176.44,688.283,176.44,685.738z M185.561,684.778v-1.152c-0.912-0.264-2.112-0.527-3.625-0.527
		c-2.304,0-3.624,1.008-3.624,2.496v0.048c0,1.561,1.44,2.473,3.12,2.473C183.713,688.115,185.561,686.747,185.561,684.778z"/>
	<path fill="#231F20" d="M190.24,687.754l0.936-1.32c1.344,1.008,2.832,1.584,4.296,1.584c1.488,0,2.568-0.768,2.568-1.968v-0.048
		c0-1.248-1.464-1.729-3.096-2.185c-1.944-0.552-4.104-1.224-4.104-3.504v-0.049c0-2.136,1.776-3.552,4.224-3.552
		c1.512,0,3.192,0.528,4.464,1.368l-0.84,1.392c-1.152-0.744-2.472-1.2-3.672-1.2c-1.464,0-2.4,0.769-2.4,1.801v0.048
		c0,1.176,1.536,1.632,3.192,2.136c1.92,0.576,3.984,1.32,3.984,3.553v0.048c0,2.353-1.944,3.721-4.417,3.721
		C193.601,689.579,191.632,688.882,190.24,687.754z"/>
</g>
<g>
	<g>
		<path fill="#231F20" d="M84.839,133.537l6.604-5.824c2.782-2.496,3.796-3.9,3.796-5.72c0-2.132-1.69-3.484-3.666-3.484
			c-2.08,0-3.432,1.092-4.888,3.12l-1.508-1.092c1.638-2.444,3.354-3.874,6.552-3.874c3.276,0,5.643,2.184,5.643,5.148v0.052
			c0,2.652-1.404,4.29-4.603,7.072l-4.862,4.316h9.646v1.872H84.839V133.537z"/>
		<path fill="#231F20" d="M100.465,132.185l1.482-1.326c1.404,1.716,3.094,2.704,5.33,2.704c2.21,0,3.978-1.404,3.978-3.536v-0.052
			c0-2.262-2.106-3.51-5.096-3.51h-1.17l-0.416-1.222l5.746-6.474h-8.892v-1.846h11.623v1.508l-5.721,6.345
			c3.172,0.26,6.006,1.794,6.006,5.122v0.052c0,3.25-2.704,5.486-6.084,5.486C104.209,135.435,101.947,134.108,100.465,132.185z"/>
		<path fill="#231F20" d="M116.299,137.385c1.3-0.468,1.846-1.144,1.742-2.262h-0.936v-2.73h2.392v2.34
			c0,2.106-0.91,3.12-2.886,3.562L116.299,137.385z"/>
		<path fill="#231F20" d="M123.527,133.198l1.196-1.586c1.482,1.3,2.86,1.95,4.472,1.95c3.276,0,5.486-3.328,5.408-7.982
			c-0.988,1.586-2.626,2.912-5.148,2.912c-3.744,0-6.344-2.366-6.344-5.642v-0.052c0-3.458,2.678-6.188,6.552-6.188
			c2.08,0,3.614,0.702,4.784,1.872c1.378,1.378,2.262,3.406,2.262,7.046v0.052c0,5.772-3.068,9.854-7.566,9.854
			C126.777,135.435,125.061,134.473,123.527,133.198z M134.213,122.616v-0.052c0-2.314-1.898-4.134-4.628-4.134
			s-4.368,2.002-4.368,4.265v0.052c0,2.314,1.82,3.978,4.472,3.978C132.471,126.724,134.213,124.696,134.213,122.616z"/>
		<path fill="#231F20" d="M139.906,126.074v-0.052c0-5.097,3.042-9.413,7.723-9.413s7.644,4.264,7.644,9.36v0.052
			c0,5.096-3.016,9.412-7.696,9.412C142.871,135.435,139.906,131.17,139.906,126.074z M153.141,126.074v-0.052
			c0-3.979-2.184-7.541-5.564-7.541c-3.406,0-5.538,3.484-5.538,7.488v0.052c0,3.978,2.184,7.54,5.59,7.54
			S153.141,130.052,153.141,126.074z"/>
		<path fill="#231F20" d="M158.236,121.42v-0.052c0-2.47,1.664-4.654,4.16-4.654c2.444,0,4.082,2.158,4.082,4.602v0.052
			c0,2.47-1.664,4.654-4.134,4.654C159.875,126.022,158.236,123.864,158.236,121.42z M164.763,121.42v-0.052
			c0-1.82-1.092-3.198-2.418-3.198c-1.43,0-2.366,1.43-2.366,3.146v0.052c0,1.82,1.066,3.198,2.418,3.198
			C163.801,124.566,164.763,123.162,164.763,121.42z M173.473,116.922h1.846l-13.338,18.201h-1.872L173.473,116.922z
			 M168.975,130.729v-0.052c0-2.47,1.664-4.654,4.134-4.654s4.082,2.158,4.082,4.602v0.052c0,2.47-1.638,4.654-4.134,4.654
			C170.613,135.331,168.975,133.172,168.975,130.729z M175.475,130.729v-0.052c0-1.82-1.066-3.198-2.418-3.198
			c-1.404,0-2.366,1.43-2.366,3.146v0.052c0,1.82,1.066,3.198,2.418,3.198C174.539,133.875,175.475,132.471,175.475,130.729z"/>
	</g>
</g>
<g>
	<g>
		<path fill="#231F20" d="M282.141,215.032l-3.432,1.066l-0.494-1.664l4.446-1.534h1.508v18.331h-2.028V215.032z"/>
		<path fill="#231F20" d="M288.146,226.342v-0.052c0-2.158,1.56-3.692,3.744-4.473c-1.69-0.78-3.12-2.08-3.12-4.186v-0.052
			c0-2.808,2.886-4.81,6.214-4.81s6.214,2.002,6.214,4.81v0.052c0,2.106-1.43,3.406-3.12,4.186c2.158,0.806,3.744,2.288,3.744,4.446
			v0.052c0,3.094-2.964,5.174-6.838,5.174C291.11,231.491,288.146,229.384,288.146,226.342z M299.743,226.291v-0.052
			c0-2.028-2.106-3.458-4.758-3.458c-2.652,0-4.758,1.43-4.758,3.458v0.052c0,1.846,1.768,3.406,4.758,3.406
			C297.974,229.696,299.743,228.136,299.743,226.291z M299.145,217.762v-0.052c0-1.794-1.794-3.146-4.16-3.146
			c-2.366,0-4.16,1.326-4.16,3.146v0.052c0,1.976,1.846,3.328,4.16,3.328S299.145,219.738,299.145,217.762z"/>
		<path fill="#231F20" d="M304.37,233.493c1.3-0.468,1.846-1.144,1.742-2.262h-0.936v-2.73h2.392v2.34
			c0,2.106-0.91,3.12-2.886,3.562L304.37,233.493z"/>
		<path fill="#231F20" d="M313.417,229.696c-1.456-1.456-2.288-3.328-2.288-7.046v-0.052c0-5.538,2.808-9.88,7.566-9.88
			c2.184,0,3.796,0.78,5.382,2.08l-1.196,1.586c-1.352-1.144-2.626-1.794-4.29-1.794c-3.302,0-5.356,3.328-5.33,8.034
			c0.988-1.456,2.522-2.782,5.174-2.782c3.38,0,6.292,2.184,6.292,5.59v0.052c0,3.51-2.834,6.058-6.526,6.058
			C316.2,231.542,314.562,230.84,313.417,229.696z M322.622,225.562v-0.052c0-2.236-1.82-3.9-4.446-3.9
			c-2.73,0-4.55,1.95-4.55,3.979v0.052c0,2.314,1.924,4.082,4.603,4.082C320.906,229.722,322.622,227.876,322.622,225.562z"/>
		<path fill="#231F20" d="M327.977,222.182v-0.052c0-5.097,3.042-9.413,7.723-9.413s7.644,4.264,7.644,9.36v0.052
			c0,5.096-3.016,9.412-7.696,9.412C330.941,231.542,327.977,227.278,327.977,222.182z M341.212,222.182v-0.052
			c0-3.979-2.184-7.541-5.564-7.541c-3.406,0-5.538,3.484-5.538,7.488v0.052c0,3.978,2.184,7.54,5.59,7.54
			S341.212,226.16,341.212,222.182z"/>
		<path fill="#231F20" d="M346.307,217.528v-0.052c0-2.47,1.664-4.654,4.16-4.654c2.444,0,4.082,2.158,4.082,4.602v0.052
			c0,2.47-1.664,4.654-4.134,4.654C347.945,222.13,346.307,219.972,346.307,217.528z M352.833,217.528v-0.052
			c0-1.82-1.092-3.198-2.418-3.198c-1.43,0-2.366,1.43-2.366,3.146v0.052c0,1.82,1.066,3.198,2.418,3.198
			C351.872,220.674,352.833,219.27,352.833,217.528z M361.543,213.03h1.846l-13.338,18.201h-1.872L361.543,213.03z M357.045,226.836
			v-0.052c0-2.47,1.664-4.654,4.134-4.654s4.082,2.158,4.082,4.602v0.052c0,2.47-1.638,4.654-4.134,4.654
			C358.684,231.438,357.045,229.28,357.045,226.836z M363.546,226.836v-0.052c0-1.82-1.066-3.198-2.418-3.198
			c-1.404,0-2.366,1.43-2.366,3.146v0.052c0,1.82,1.066,3.198,2.418,3.198C362.61,229.982,363.546,228.579,363.546,226.836z"/>
	</g>
</g>
<g>
	<g>
		<path fill="#231F20" d="M479.097,472.588l1.352-1.482c1.586,1.534,3.328,2.496,5.174,2.496c2.6,0,4.394-1.716,4.394-4.03v-0.052
			c0-2.262-1.872-3.822-4.524-3.822c-1.534,0-2.756,0.468-3.822,1.04l-1.378-0.91l0.52-8.866h10.479v1.898h-8.685l-0.39,5.824
			c1.066-0.469,2.08-0.807,3.588-0.807c3.536,0,6.292,2.106,6.292,5.564v0.052c0,3.562-2.704,5.98-6.5,5.98
			C482.997,475.474,480.735,474.226,479.097,472.588z"/>
		<path fill="#231F20" d="M494.827,477.424c1.3-0.469,1.846-1.145,1.742-2.262h-0.936v-2.73h2.392v2.34
			c0,2.106-0.91,3.12-2.886,3.562L494.827,477.424z"/>
		<path fill="#231F20" d="M503.355,458.963l-3.432,1.066l-0.494-1.664l4.446-1.534h1.508v18.331h-2.028V458.963z"/>
		<path fill="#231F20" d="M509.621,466.114v-0.052c0-5.097,3.042-9.413,7.723-9.413c4.68,0,7.644,4.265,7.644,9.361v0.052
			c0,5.096-3.017,9.412-7.696,9.412C512.585,475.474,509.621,471.209,509.621,466.114z M522.855,466.114v-0.052
			c0-3.979-2.184-7.54-5.564-7.54c-3.406,0-5.538,3.483-5.538,7.488v0.052c0,3.978,2.185,7.54,5.591,7.54
			S522.855,470.092,522.855,466.114z"/>
		<path fill="#231F20" d="M527.951,461.459v-0.052c0-2.47,1.664-4.654,4.16-4.654c2.443,0,4.082,2.158,4.082,4.603v0.052
			c0,2.47-1.664,4.654-4.135,4.654C529.589,466.062,527.951,463.904,527.951,461.459z M534.477,461.459v-0.052
			c0-1.82-1.092-3.198-2.418-3.198c-1.43,0-2.365,1.43-2.365,3.146v0.052c0,1.819,1.065,3.198,2.418,3.198
			C533.516,464.606,534.477,463.202,534.477,461.459z M543.188,456.961h1.846l-13.338,18.201h-1.873L543.188,456.961z
			 M538.689,470.768v-0.053c0-2.47,1.664-4.653,4.134-4.653s4.082,2.157,4.082,4.603v0.051c0,2.471-1.638,4.654-4.134,4.654
			C540.327,475.37,538.689,473.211,538.689,470.768z M545.189,470.768v-0.053c0-1.819-1.066-3.197-2.418-3.197
			c-1.404,0-2.366,1.43-2.366,3.146v0.051c0,1.82,1.065,3.199,2.418,3.199C544.254,473.915,545.189,472.51,545.189,470.768z"/>
	</g>
</g>
<g>
	<g>
		<path fill="#231F20" d="M697.219,424.416h-10.01v-1.872h12.351v1.534l-8.269,16.667h-2.288L697.219,424.416z"/>
		<path fill="#231F20" d="M702.289,427.042v-0.052c0-2.47,1.664-4.654,4.16-4.654c2.443,0,4.082,2.158,4.082,4.603v0.052
			c0,2.47-1.664,4.654-4.135,4.654C703.927,431.644,702.289,429.486,702.289,427.042z M708.814,427.042v-0.052
			c0-1.82-1.092-3.198-2.418-3.198c-1.43,0-2.365,1.43-2.365,3.146v0.052c0,1.819,1.065,3.198,2.418,3.198
			C707.854,430.188,708.814,428.784,708.814,427.042z M717.525,422.543h1.846l-13.338,18.201h-1.873L717.525,422.543z
			 M713.027,436.35v-0.053c0-2.47,1.664-4.653,4.134-4.653s4.082,2.157,4.082,4.603v0.051c0,2.471-1.638,4.654-4.134,4.654
			C714.665,440.952,713.027,438.793,713.027,436.35z M719.527,436.35v-0.053c0-1.819-1.066-3.197-2.418-3.197
			c-1.404,0-2.366,1.43-2.366,3.146v0.051c0,1.82,1.065,3.199,2.418,3.199C718.592,439.497,719.527,438.092,719.527,436.35z"/>
	</g>
</g>
<g>
	<g>
		<path fill="#231F20" d="M863.967,525.471l-3.432,1.066l-0.494-1.664l4.445-1.534h1.508v18.331h-2.027V525.471z"/>
		<path fill="#231F20" d="M869.816,543.932c1.3-0.469,1.846-1.145,1.742-2.262h-0.937v-2.73h2.392v2.34
			c0,2.106-0.91,3.12-2.885,3.562L869.816,543.932z"/>
		<path fill="#231F20" d="M886.223,537.354h-9.595l-0.521-1.482l10.297-12.532h1.794v12.298h2.834v1.717h-2.834v4.316h-1.976
			V537.354z M886.223,535.637v-9.386l-7.645,9.386H886.223z"/>
		<path fill="#231F20" d="M894.047,532.622v-0.052c0-5.097,3.043-9.413,7.723-9.413c4.681,0,7.645,4.265,7.645,9.361v0.052
			c0,5.096-3.016,9.412-7.696,9.412C897.012,541.982,894.047,537.717,894.047,532.622z M907.282,532.622v-0.052
			c0-3.979-2.185-7.54-5.564-7.54c-3.405,0-5.538,3.483-5.538,7.488v0.052c0,3.978,2.184,7.54,5.59,7.54
			S907.282,536.6,907.282,532.622z"/>
		<path fill="#231F20" d="M912.377,527.967v-0.052c0-2.47,1.664-4.654,4.16-4.654c2.445,0,4.082,2.158,4.082,4.603v0.052
			c0,2.47-1.664,4.654-4.133,4.654C914.016,532.57,912.377,530.412,912.377,527.967z M918.904,527.967v-0.052
			c0-1.82-1.093-3.198-2.418-3.198c-1.431,0-2.367,1.43-2.367,3.146v0.052c0,1.819,1.066,3.198,2.418,3.198
			C917.941,531.114,918.904,529.709,918.904,527.967z M927.613,523.469h1.847l-13.339,18.201h-1.871L927.613,523.469z
			 M923.115,537.276v-0.053c0-2.47,1.664-4.653,4.135-4.653s4.082,2.157,4.082,4.603v0.051c0,2.471-1.639,4.654-4.135,4.654
			C924.754,541.877,923.115,539.719,923.115,537.276z M929.616,537.276v-0.053c0-1.819-1.065-3.197-2.419-3.197
			c-1.403,0-2.365,1.43-2.365,3.146v0.051c0,1.82,1.066,3.199,2.418,3.199C928.68,540.422,929.616,539.018,929.616,537.276z"/>
	</g>
</g>
<g>
	<path d="M211.682,62.393l1.666-1.972c2.481,2.244,4.861,3.366,8.159,3.366c3.196,0,5.303-1.7,5.303-4.046v-0.068
		c0-2.209-1.19-3.467-6.188-4.521c-5.473-1.19-7.989-2.958-7.989-6.867v-0.068c0-3.74,3.297-6.494,7.819-6.494
		c3.468,0,5.95,0.986,8.363,2.924l-1.564,2.074c-2.209-1.802-4.419-2.583-6.867-2.583c-3.094,0-5.065,1.7-5.065,3.841v0.068
		c0,2.244,1.224,3.501,6.459,4.623c5.303,1.156,7.751,3.094,7.751,6.731v0.068c0,4.079-3.399,6.731-8.125,6.731
		C217.631,66.2,214.538,64.942,211.682,62.393z"/>
	<path d="M243.301,41.893h2.516l10.845,23.968h-2.89l-2.788-6.29h-12.953l-2.822,6.29h-2.754L243.301,41.893z M239.051,39.445
		c0.68-2.346,1.598-3.467,3.195-3.467c1.496,0,3.434,1.326,4.556,1.326c0.884,0,1.258-0.476,1.768-1.598l1.666,0.476
		c-0.68,2.346-1.598,3.434-3.195,3.434c-1.496,0-3.434-1.326-4.556-1.326c-0.884,0-1.258,0.476-1.768,1.632L239.051,39.445z
		 M249.93,57.157l-5.406-12.137l-5.439,12.137H249.93z"/>
	<path d="M258.908,54.03v-0.068c0-6.561,4.93-12.307,12.171-12.307s12.103,5.677,12.103,12.239v0.068
		c0,6.562-4.93,12.307-12.171,12.307S258.908,60.591,258.908,54.03z M280.394,54.03v-0.068c0-5.405-3.944-9.825-9.383-9.825
		s-9.315,4.352-9.315,9.757v0.068c0,5.406,3.943,9.825,9.383,9.825S280.394,59.435,280.394,54.03z"/>
	<path d="M297.021,42.063h2.992l8.465,20.5l8.499-20.5h2.89L309.634,66.03h-2.38L297.021,42.063z"/>
	<path d="M329.967,41.893h2.516l10.845,23.968h-2.89l-2.788-6.29h-12.953l-2.822,6.29h-2.754L329.967,41.893z M336.596,57.157
		l-5.406-12.137l-5.439,12.137H336.596z M333.536,35.229l2.686,1.224l-3.91,3.162h-2.176L333.536,35.229z"/>
	<path d="M348.021,42.063h10.233c2.924,0,5.27,0.884,6.765,2.379c1.156,1.156,1.836,2.822,1.836,4.692v0.068
		c0,3.943-2.72,6.255-6.459,6.935l7.31,9.723h-3.298l-6.901-9.247h-6.799v9.247h-2.686V42.063z M358.017,54.2
		c3.569,0,6.119-1.836,6.119-4.896v-0.068c0-2.923-2.244-4.691-6.085-4.691h-7.343V54.2H358.017z"/>
	<path d="M372.841,42.063h2.686V65.86h-2.686V42.063z"/>
	<path d="M381.443,54.03v-0.068c0-6.561,4.929-12.307,12.17-12.307s12.103,5.677,12.103,12.239v0.068
		c0,6.562-4.93,12.307-12.171,12.307S381.443,60.591,381.443,54.03z M402.928,54.03v-0.068c0-5.405-3.943-9.825-9.383-9.825
		s-9.315,4.352-9.315,9.757v0.068c0,5.406,3.943,9.825,9.383,9.825S402.928,59.435,402.928,54.03z"/>
	<path d="M409.663,62.393l1.666-1.972c2.481,2.244,4.861,3.366,8.159,3.366c3.196,0,5.303-1.7,5.303-4.046v-0.068
		c0-2.209-1.19-3.467-6.188-4.521c-5.473-1.19-7.989-2.958-7.989-6.867v-0.068c0-3.74,3.297-6.494,7.819-6.494
		c3.468,0,5.95,0.986,8.363,2.924l-1.564,2.074c-2.209-1.802-4.419-2.583-6.867-2.583c-3.094,0-5.065,1.7-5.065,3.841v0.068
		c0,2.244,1.224,3.501,6.459,4.623c5.303,1.156,7.751,3.094,7.751,6.731v0.068c0,4.079-3.399,6.731-8.125,6.731
		C415.613,66.2,412.519,64.942,409.663,62.393z"/>
	<path d="M449.476,44.544h-7.989v-2.481h18.698v2.481h-7.989V65.86h-2.72V44.544z"/>
	<path d="M465.456,42.063h2.686V65.86h-2.686V42.063z"/>
	<path d="M475.112,42.063h8.907c5.371,0,8.907,2.855,8.907,7.547v0.068c0,5.133-4.283,7.785-9.349,7.785h-5.779v8.397h-2.686V42.063
		z M483.679,55.016c3.944,0,6.527-2.108,6.527-5.236v-0.068c0-3.399-2.549-5.167-6.391-5.167h-6.018v10.471H483.679z"/>
	<path d="M496.77,54.03v-0.068c0-6.561,4.929-12.307,12.17-12.307s12.103,5.677,12.103,12.239v0.068
		c0,6.562-4.93,12.307-12.17,12.307C501.631,66.268,496.77,60.591,496.77,54.03z M518.256,54.03v-0.068
		c0-5.405-3.943-9.825-9.383-9.825c-5.439,0-9.315,4.352-9.315,9.757v0.068c0,5.406,3.943,9.825,9.383,9.825
		C514.381,63.787,518.256,59.435,518.256,54.03z"/>
	<path d="M524.99,62.393l1.666-1.972c2.48,2.244,4.861,3.366,8.158,3.366c3.195,0,5.305-1.7,5.305-4.046v-0.068
		c0-2.209-1.191-3.467-6.188-4.521c-5.475-1.19-7.99-2.958-7.99-6.867v-0.068c0-3.74,3.299-6.494,7.82-6.494
		c3.467,0,5.949,0.986,8.363,2.924l-1.564,2.074c-2.211-1.802-4.42-2.583-6.867-2.583c-3.094,0-5.066,1.7-5.066,3.841v0.068
		c0,2.244,1.225,3.501,6.459,4.623c5.305,1.156,7.752,3.094,7.752,6.731v0.068c0,4.079-3.4,6.731-8.125,6.731
		C530.939,66.2,527.846,64.942,524.99,62.393z"/>
	<path d="M558.512,42.063h8.262c7.48,0,12.646,5.133,12.646,11.831v0.068c0,6.697-5.166,11.899-12.646,11.899h-8.262V42.063z
		 M566.773,63.378c6.018,0,9.859-4.08,9.859-9.349v-0.068c0-5.27-3.842-9.417-9.859-9.417h-5.574v18.834H566.773z"/>
	<path d="M585.1,42.063h17.203v2.447h-14.516v8.125h12.986v2.448h-12.986v8.329h14.686v2.448H585.1V42.063z"/>
	<path d="M618.08,42.063h8.262c7.479,0,12.646,5.133,12.646,11.831v0.068c0,6.697-5.168,11.899-12.646,11.899h-8.262V42.063z
		 M626.342,63.378c6.018,0,9.857-4.08,9.857-9.349v-0.068c0-5.27-3.84-9.417-9.857-9.417h-5.576v18.834H626.342z"/>
	<path d="M644.668,42.063h17.203v2.447h-14.518v8.125h12.986v2.448h-12.986v8.329h14.688v2.448h-17.373V42.063z"/>
	<path d="M667.447,42.063h17.102v2.481h-14.414v8.499h12.885v2.448h-12.885V65.86h-2.688V42.063z"/>
	<path d="M689.99,42.063h2.686V65.86h-2.686V42.063z"/>
	<path d="M698.592,54.03v-0.068c0-6.731,5.031-12.307,12.035-12.307c4.316,0,6.9,1.53,9.281,3.773l-1.836,1.972
		c-2.006-1.904-4.25-3.264-7.48-3.264c-5.27,0-9.213,4.283-9.213,9.757v0.068c0,5.508,3.979,9.825,9.213,9.825
		c3.264,0,5.406-1.258,7.684-3.434l1.768,1.734c-2.48,2.516-5.201,4.181-9.52,4.181C703.656,66.268,698.592,60.863,698.592,54.03z"
		/>
	<path d="M724.975,42.063h2.686V65.86h-2.686V42.063z"/>
	<path d="M734.631,42.063h17.203v2.447h-14.518v8.125h12.986v2.448h-12.986v8.329h14.688v2.448h-17.373V42.063z M742.043,35.943
		h2.447l3.738,4.012h-2.447l-2.549-2.04l-2.551,2.04h-2.379L742.043,35.943z"/>
	<path d="M757.41,42.063h2.518l14.992,19.072V42.063h2.617V65.86h-2.143l-15.365-19.514V65.86h-2.619V42.063z"/>
	<path d="M783.217,54.03v-0.068c0-6.731,5.031-12.307,12.035-12.307c4.316,0,6.9,1.53,9.281,3.773l-1.836,1.972
		c-2.006-1.904-4.25-3.264-7.48-3.264c-5.27,0-9.213,4.283-9.213,9.757v0.068c0,5.508,3.979,9.825,9.213,9.825
		c3.264,0,5.406-1.258,7.684-3.434l1.768,1.734c-2.48,2.516-5.201,4.181-9.52,4.181C788.281,66.268,783.217,60.863,783.217,54.03z"
		/>
	<path d="M809.6,42.063h2.686V65.86H809.6V42.063z"/>
	<path d="M828.061,41.893h2.516l10.846,23.968h-2.891l-2.787-6.29h-12.953l-2.822,6.29h-2.752L828.061,41.893z M834.689,57.157
		l-5.404-12.137l-5.439,12.137H834.689z"/>
</g>
<g>
</g>
<g>
</g>
<g>
</g>
<g>
</g>
<g>
</g>
<g>
</g>
</svg>
