<?xml version="1.0" encoding="utf-8"?>
<!-- Generator: Adobe Illustrator 16.0.0, SVG Export Plug-In . SVG Version: 6.00 Build 0)  -->
<!DOCTYPE svg PUBLIC "-//W3C//DTD SVG 1.1//EN" "http://www.w3.org/Graphics/SVG/1.1/DTD/svg11.dtd">
<svg version="1.1" xmlns="http://www.w3.org/2000/svg" xmlns:xlink="http://www.w3.org/1999/xlink" x="0px" y="0px" width="1024px"
	 height="680.315px" viewBox="0 0 1024 680.315" enable-background="new 0 0 1024 680.315" xml:space="preserve">
<g id="Layer_3">
</g>
<g id="Layer_2">
	<g>
		<defs>
			<rect id="SVGID_1_" width="1024" height="680.315"/>
		</defs>
		<clipPath id="SVGID_2_">
			<use xlink:href="#SVGID_1_"  overflow="visible"/>
		</clipPath>
		<g clip-path="url(#SVGID_2_)">
			<path d="M173.99,36.203h8.261c7.479,0,12.646,5.134,12.646,11.831v0.068c0,6.697-5.167,11.899-12.646,11.899h-8.261V36.203z
				 M182.251,57.519c6.017,0,9.859-4.08,9.859-9.349v-0.068c0-5.27-3.842-9.417-9.859-9.417h-5.576v18.834H182.251z"/>
			<path d="M199.524,48.17v-0.068c0-6.561,4.93-12.307,12.171-12.307s12.103,5.677,12.103,12.239v0.068
				c0,6.562-4.93,12.307-12.171,12.307S199.524,54.731,199.524,48.17z M221.01,48.17v-0.068c0-5.405-3.944-9.825-9.383-9.825
				s-9.315,4.352-9.315,9.757v0.068c0,5.406,3.943,9.825,9.383,9.825S221.01,53.576,221.01,48.17z"/>
			<path d="M227.745,56.533l1.666-1.972c2.481,2.244,4.861,3.366,8.159,3.366c3.195,0,5.303-1.7,5.303-4.045v-0.068
				c0-2.209-1.19-3.468-6.187-4.521c-5.474-1.19-7.989-2.958-7.989-6.867v-0.068c0-3.74,3.297-6.494,7.819-6.494
				c3.468,0,5.95,0.986,8.363,2.924l-1.564,2.074c-2.209-1.802-4.419-2.583-6.867-2.583c-3.094,0-5.065,1.7-5.065,3.841v0.068
				c0,2.244,1.224,3.502,6.459,4.624c5.303,1.156,7.751,3.093,7.751,6.731v0.068c0,4.08-3.399,6.731-8.125,6.731
				C233.694,60.341,230.601,59.083,227.745,56.533z"/>
			<path d="M259.704,56.533l1.666-1.972c2.481,2.244,4.861,3.366,8.159,3.366c3.196,0,5.303-1.7,5.303-4.045v-0.068
				c0-2.209-1.19-3.468-6.188-4.521c-5.473-1.19-7.989-2.958-7.989-6.867v-0.068c0-3.74,3.297-6.494,7.819-6.494
				c3.468,0,5.95,0.986,8.363,2.924l-1.564,2.074c-2.209-1.802-4.419-2.583-6.867-2.583c-3.094,0-5.065,1.7-5.065,3.841v0.068
				c0,2.244,1.224,3.502,6.459,4.624c5.303,1.156,7.751,3.093,7.751,6.731v0.068c0,4.08-3.399,6.731-8.125,6.731
				C265.654,60.341,262.56,59.083,259.704,56.533z"/>
			<path d="M283.266,36.203h2.686v23.798h-2.686V36.203z"/>
			<path d="M291.357,56.533l1.666-1.972c2.481,2.244,4.861,3.366,8.159,3.366c3.196,0,5.303-1.7,5.303-4.045v-0.068
				c0-2.209-1.19-3.468-6.188-4.521c-5.473-1.19-7.989-2.958-7.989-6.867v-0.068c0-3.74,3.297-6.494,7.819-6.494
				c3.468,0,5.95,0.986,8.363,2.924l-1.564,2.074c-2.209-1.802-4.419-2.583-6.867-2.583c-3.094,0-5.065,1.7-5.065,3.841v0.068
				c0,2.244,1.224,3.502,6.459,4.624c5.303,1.156,7.751,3.093,7.751,6.731v0.068c0,4.08-3.399,6.731-8.125,6.731
				C297.307,60.341,294.213,59.083,291.357,56.533z"/>
			<path d="M320.46,38.685h-7.989v-2.482h18.698v2.482h-7.989v21.316h-2.72V38.685z"/>
			<path d="M336.203,36.203h17.202v2.448h-14.517v8.125h12.987v2.448h-12.987v8.329h14.687v2.448h-17.372V36.203z"/>
			<path d="M358.982,36.203h2.72l8.669,12.987l8.669-12.987h2.72v23.798h-2.686V40.725l-8.669,12.749h-0.136L361.6,40.759v19.242
				h-2.618V36.203z"/>
			<path d="M397.299,36.033h2.516l10.845,23.968h-2.89l-2.788-6.29H392.03l-2.822,6.29h-2.754L397.299,36.033z M403.929,51.298
				l-5.406-12.137l-5.439,12.137H403.929z"/>
			<path d="M413.314,56.533l1.666-1.972c2.481,2.244,4.861,3.366,8.159,3.366c3.196,0,5.303-1.7,5.303-4.045v-0.068
				c0-2.209-1.19-3.468-6.188-4.521c-5.473-1.19-7.989-2.958-7.989-6.867v-0.068c0-3.74,3.297-6.494,7.819-6.494
				c3.468,0,5.95,0.986,8.363,2.924l-1.564,2.074c-2.209-1.802-4.419-2.583-6.867-2.583c-3.094,0-5.065,1.7-5.065,3.841v0.068
				c0,2.244,1.224,3.502,6.459,4.624c5.303,1.156,7.751,3.093,7.751,6.731v0.068c0,4.08-3.399,6.731-8.125,6.731
				C419.264,60.341,416.17,59.083,413.314,56.533z"/>
			<path d="M446.838,36.203h17.1v2.482h-14.415v8.499h12.885v2.448h-12.885v10.369h-2.686V36.203z"/>
			<path d="M469.142,36.203h10.233c2.924,0,5.27,0.884,6.765,2.38c1.156,1.156,1.836,2.822,1.836,4.691v0.068
				c0,3.943-2.72,6.255-6.459,6.935l7.31,9.723h-3.298l-6.901-9.247h-6.799v9.247h-2.686V36.203z M479.137,48.34
				c3.569,0,6.119-1.836,6.119-4.896v-0.068c0-2.923-2.244-4.691-6.085-4.691h-7.343v9.655H479.137z"/>
			<path d="M502.528,36.033h2.516l10.845,23.968h-2.89l-2.788-6.29h-12.953l-2.822,6.29h-2.754L502.528,36.033z M509.158,51.298
				l-5.406-12.137l-5.439,12.137H509.158z"/>
			<path d="M518.135,48.17v-0.068c0-6.527,4.795-12.307,11.934-12.307c4.012,0,6.493,1.156,8.873,3.162l-1.734,2.04
				c-1.836-1.598-3.875-2.72-7.24-2.72c-5.27,0-9.043,4.453-9.043,9.757v0.068c0,5.678,3.637,9.893,9.416,9.893
				c2.721,0,5.236-1.054,6.867-2.38V49.7h-7.24v-2.414h9.824v9.485c-2.209,1.972-5.541,3.638-9.553,3.638
				C522.76,60.409,518.135,54.97,518.135,48.17z"/>
			<path d="M545.846,36.203h2.719l8.67,12.987l8.669-12.987h2.72v23.798h-2.686V40.725l-8.67,12.749h-0.136l-8.669-12.715v19.242
				h-2.617V36.203z"/>
			<path d="M575.357,36.203h17.201v2.448h-14.516v8.125h12.986v2.448h-12.986v8.329h14.686v2.448h-17.371V36.203z"/>
			<path d="M598.137,36.203h2.516l14.992,19.072V36.203h2.618v23.798h-2.142l-15.367-19.514v19.514h-2.617V36.203z"/>
			<path d="M631.285,38.685h-7.988v-2.482h18.697v2.482h-7.988v21.316h-2.721V38.685z"/>
			<path d="M652.773,36.033h2.516l10.845,23.968h-2.89l-2.787-6.29h-12.953l-2.822,6.29h-2.754L652.773,36.033z M659.402,51.298
				l-5.405-12.137l-5.439,12.137H659.402z"/>
			<path d="M670.828,36.203h8.262c7.479,0,12.646,5.134,12.646,11.831v0.068c0,6.697-5.168,11.899-12.646,11.899h-8.262V36.203z
				 M679.09,57.519c6.017,0,9.858-4.08,9.858-9.349v-0.068c0-5.27-3.842-9.417-9.858-9.417h-5.576v18.834H679.09z"/>
			<path d="M696.361,48.17v-0.068c0-6.561,4.93-12.307,12.172-12.307c7.24,0,12.103,5.677,12.103,12.239v0.068
				c0,6.562-4.93,12.307-12.171,12.307S696.361,54.731,696.361,48.17z M717.848,48.17v-0.068c0-5.405-3.943-9.825-9.383-9.825
				s-9.314,4.352-9.314,9.757v0.068c0,5.406,3.943,9.825,9.383,9.825S717.848,53.576,717.848,48.17z"/>
			<path d="M724.582,56.533l1.666-1.972c2.482,2.244,4.861,3.366,8.16,3.366c3.195,0,5.303-1.7,5.303-4.045v-0.068
				c0-2.209-1.189-3.468-6.188-4.521c-5.473-1.19-7.988-2.958-7.988-6.867v-0.068c0-3.74,3.297-6.494,7.818-6.494
				c3.468,0,5.949,0.986,8.363,2.924l-1.564,2.074c-2.209-1.802-4.419-2.583-6.867-2.583c-3.094,0-5.064,1.7-5.064,3.841v0.068
				c0,2.244,1.223,3.502,6.459,4.624c5.303,1.156,7.751,3.093,7.751,6.731v0.068c0,4.08-3.399,6.731-8.125,6.731
				C730.531,60.341,727.438,59.083,724.582,56.533z"/>
			<path d="M758.105,36.203h8.908c5.371,0,8.906,2.856,8.906,7.547v0.068c0,5.134-4.283,7.786-9.35,7.786h-5.779v8.397h-2.686
				V36.203z M766.673,49.156c3.944,0,6.527-2.108,6.527-5.236v-0.068c0-3.399-2.55-5.167-6.392-5.167h-6.018v10.471H766.673z"/>
			<path d="M787.243,36.033h2.516l10.845,23.968h-2.89l-2.788-6.29h-12.952l-2.821,6.29h-2.754L787.243,36.033z M793.873,51.298
				l-5.406-12.137l-5.439,12.137H793.873z"/>
			<path d="M805.298,36.203h10.233c2.924,0,5.27,0.884,6.765,2.38c1.156,1.156,1.836,2.822,1.836,4.691v0.068
				c0,3.943-2.72,6.255-6.46,6.935l7.311,9.723h-3.299l-6.9-9.247h-6.8v9.247h-2.686V36.203z M815.293,48.34
				c3.569,0,6.119-1.836,6.119-4.896v-0.068c0-2.923-2.244-4.691-6.086-4.691h-7.343v9.655H815.293z"/>
			<path d="M838.684,36.033h2.518l10.844,23.968h-2.889l-2.789-6.29h-12.952l-2.821,6.29h-2.754L838.684,36.033z M845.314,51.298
				l-5.406-12.137l-5.439,12.137H845.314z"/>
			<path d="M228.56,76.833h2.516l10.845,23.968h-2.89l-2.788-6.29H223.29l-2.822,6.29h-2.754L228.56,76.833z M235.189,92.098
				l-5.406-12.137l-5.439,12.137H235.189z"/>
			<path d="M244.575,97.333l1.666-1.972c2.481,2.244,4.861,3.366,8.159,3.366c3.195,0,5.303-1.7,5.303-4.045v-0.068
				c0-2.209-1.19-3.468-6.187-4.521c-5.474-1.19-7.989-2.958-7.989-6.867v-0.068c0-3.74,3.297-6.494,7.819-6.494
				c3.468,0,5.95,0.986,8.363,2.924l-1.564,2.074c-2.209-1.802-4.419-2.583-6.867-2.583c-3.094,0-5.065,1.7-5.065,3.841v0.068
				c0,2.244,1.224,3.502,6.459,4.624c5.303,1.156,7.751,3.093,7.751,6.731v0.068c0,4.08-3.399,6.731-8.125,6.731
				C250.524,101.141,247.431,99.883,244.575,97.333z"/>
			<path d="M278.098,77.003h10.233c2.924,0,5.27,0.884,6.765,2.38c1.156,1.156,1.836,2.822,1.836,4.691v0.068
				c0,3.943-2.72,6.255-6.459,6.935l7.31,9.723h-3.298l-6.901-9.247h-6.799v9.247h-2.686V77.003z M288.093,89.14
				c3.569,0,6.119-1.836,6.119-4.896v-0.068c0-2.923-2.244-4.691-6.085-4.691h-7.343v9.655H288.093z"/>
			<path d="M302.68,77.003h17.202v2.448h-14.517v8.125h12.987v2.448h-12.987v8.329h14.687v2.448H302.68V77.003z"/>
			<path d="M325.459,77.003h8.261c7.479,0,12.646,5.134,12.646,11.831v0.068c0,6.697-5.167,11.899-12.646,11.899h-8.261V77.003z
				 M333.721,98.319c6.017,0,9.859-4.08,9.859-9.349v-0.068c0-5.27-3.842-9.417-9.859-9.417h-5.576v18.834H333.721z"/>
			<path d="M352.047,77.003h17.202v2.448h-14.517v8.125h12.987v2.448h-12.987v8.329h14.687v2.448h-17.372V77.003z"/>
			<path d="M373.263,97.333l1.666-1.972c2.481,2.244,4.861,3.366,8.159,3.366c3.195,0,5.303-1.7,5.303-4.045v-0.068
				c0-2.209-1.19-3.468-6.187-4.521c-5.474-1.19-7.989-2.958-7.989-6.867v-0.068c0-3.74,3.297-6.494,7.819-6.494
				c3.468,0,5.95,0.986,8.363,2.924l-1.564,2.074c-2.209-1.802-4.419-2.583-6.867-2.583c-3.094,0-5.065,1.7-5.065,3.841v0.068
				c0,2.244,1.224,3.502,6.459,4.624c5.303,1.156,7.751,3.093,7.751,6.731v0.068c0,4.08-3.399,6.731-8.125,6.731
				C379.212,101.141,376.119,99.883,373.263,97.333z"/>
			<path d="M406.787,77.003h8.261c7.479,0,12.646,5.134,12.646,11.831v0.068c0,6.697-5.167,11.899-12.646,11.899h-8.261V77.003z
				 M415.048,98.319c6.017,0,9.859-4.08,9.859-9.349v-0.068c0-5.27-3.842-9.417-9.859-9.417h-5.576v18.834H415.048z"/>
			<path d="M433.375,77.003h17.202v2.448H436.06v8.125h12.987v2.448H436.06v8.329h14.687v2.448h-17.372V77.003z"/>
			<path d="M475.159,76.833h2.516l10.845,23.968h-2.89l-2.788-6.29H469.89l-2.822,6.29h-2.754L475.159,76.833z M481.789,92.098
				l-5.406-12.137l-5.439,12.137H481.789z"/>
			<path d="M496.443,79.485h-7.989v-2.482h18.698v2.482h-7.989v21.316h-2.72V79.485z"/>
			<path d="M512.186,77.003h17.202v2.448h-14.517v8.125h12.986v2.448h-12.986v8.329h14.687v2.448h-17.372V77.003z"/>
			<path d="M534.965,77.003h2.516l14.993,19.072V77.003h2.618v23.798h-2.143l-15.366-19.514v19.514h-2.618V77.003z"/>
			<path d="M568.455,104.915l2.617-3.808c-6.018-0.782-10.301-5.848-10.301-12.137v-0.068c0-6.731,5.031-12.307,12.035-12.307
				c4.316,0,6.9,1.53,9.28,3.773l-1.835,1.972c-2.006-1.904-4.25-3.264-7.48-3.264c-5.27,0-9.213,4.283-9.213,9.757v0.068
				c0,5.507,3.979,9.825,9.213,9.825c3.264,0,5.406-1.258,7.684-3.434l1.768,1.734c-2.379,2.414-4.963,4.011-8.975,4.147
				l-2.244,4.896L568.455,104.915z"/>
			<path d="M595.723,76.833h2.516l10.844,23.968h-2.889l-2.788-6.29h-12.952l-2.822,6.29h-2.754L595.723,76.833z M602.352,92.098
				l-5.406-12.137l-5.439,12.137H602.352z M598.068,74.556h-2.176l-3.91-3.162l2.652-1.224L598.068,74.556z"/>
			<path d="M611.33,88.97v-0.068c0-6.561,4.929-12.307,12.17-12.307s12.104,5.677,12.104,12.239v0.068
				c0,6.562-4.93,12.307-12.172,12.307C616.191,101.209,611.33,95.531,611.33,88.97z M632.814,88.97v-0.068
				c0-5.405-3.943-9.825-9.383-9.825s-9.314,4.352-9.314,9.757v0.068c0,5.406,3.943,9.825,9.383,9.825S632.814,94.375,632.814,88.97
				z"/>
			<path d="M660.288,76.833h2.516l10.845,23.968h-2.89l-2.788-6.29h-12.952l-2.821,6.29h-2.754L660.288,76.833z M666.918,92.098
				l-5.406-12.137l-5.439,12.137H666.918z M662.634,74.556h-2.176l-3.909-3.162l2.651-1.224L662.634,74.556z"/>
			<path d="M686.979,97.333l1.666-1.972c2.481,2.244,4.861,3.366,8.159,3.366c3.196,0,5.304-1.7,5.304-4.045v-0.068
				c0-2.209-1.19-3.468-6.188-4.521c-5.474-1.19-7.989-2.958-7.989-6.867v-0.068c0-3.74,3.298-6.494,7.819-6.494
				c3.467,0,5.949,0.986,8.363,2.924l-1.564,2.074c-2.209-1.802-4.42-2.583-6.867-2.583c-3.094,0-5.065,1.7-5.065,3.841v0.068
				c0,2.244,1.224,3.502,6.46,4.624c5.303,1.156,7.75,3.093,7.75,6.731v0.068c0,4.08-3.398,6.731-8.125,6.731
				C692.928,101.141,689.834,99.883,686.979,97.333z"/>
			<path d="M718.598,76.833h2.516l10.845,23.968h-2.89l-2.787-6.29h-12.953l-2.822,6.29h-2.754L718.598,76.833z M725.227,92.098
				l-5.405-12.137l-5.439,12.137H725.227z"/>
			<path d="M735.428,90.84V77.003h2.686V90.67c0,5.133,2.721,8.023,7.275,8.023c4.387,0,7.174-2.652,7.174-7.853V77.003h2.686
				v13.633c0,6.936-3.978,10.539-9.927,10.539C739.439,101.175,735.428,97.571,735.428,90.84z M747.633,70.612l2.686,1.224
				l-3.909,3.162h-2.176L747.633,70.612z"/>
			<path d="M761.607,77.003h8.262c7.479,0,12.646,5.134,12.646,11.831v0.068c0,6.697-5.168,11.899-12.646,11.899h-8.262V77.003z
				 M769.869,98.319c6.018,0,9.859-4.08,9.859-9.349v-0.068c0-5.27-3.842-9.417-9.859-9.417h-5.576v18.834H769.869z"/>
			<path d="M788.195,77.003h17.203v2.448h-14.518v8.125h12.987v2.448h-12.987v8.329h14.688v2.448h-17.373V77.003z"/>
		</g>
		<g clip-path="url(#SVGID_2_)">
			<g>
				
					<line fill="none" stroke="#231F20" stroke-width="8.5039" stroke-miterlimit="10" x1="440.862" y1="410.932" x2="520.888" y2="410.932"/>
				<g>
					<polygon fill="#231F20" points="515.925,427.893 545.298,410.932 515.925,393.973 					"/>
				</g>
			</g>
		</g>
		<g clip-path="url(#SVGID_2_)">
			<g>
				<polygon fill="#FCE55E" points="410.592,483.924 482.76,630.067 49.904,630.067 122.072,483.924 				"/>
			</g>
			<g>
				<polygon fill="#F2C227" points="117.511,486.759 192.478,334.957 340.189,334.963 415.153,486.759 				"/>
				<path fill="#FFFFFF" d="M194.24,337.792l144.188,0.006l72.164,146.127h-288.52L194.24,337.792 M190.717,332.122l-1.561,3.159
					l-72.167,146.132l-4.04,8.18h9.123h288.52h9.123l-4.04-8.18l-72.164-146.126l-1.56-3.159l-3.523,0l-144.188-0.006H190.717
					L190.717,332.122z"/>
			</g>
			<g>
				<polygon fill="#EF9A29" points="189.677,340.626 266.33,185.398 342.987,340.632 				"/>
				<path fill="#FFFFFF" d="M266.33,191.8l72.096,145.997l-144.188-0.006L266.33,191.8 M266.33,178.996l-5.083,10.294
					l-72.092,145.991l-4.039,8.179l9.122,0l144.188,0.006l9.123,0l-4.039-8.18L271.414,189.29L266.33,178.996L266.33,178.996z"/>
			</g>
			<g>
				<path d="M230.738,294.627h1.037l4.468,9.875h-1.19l-1.148-2.592h-5.337l-1.163,2.592h-1.134L230.738,294.627z M233.47,300.916
					l-2.227-5.001l-2.241,5.001H233.47z"/>
				<path d="M238.17,294.696h1.106v8.783h5.519v1.022h-6.625V294.696z"/>
				<path d="M248.028,295.719h-3.292v-1.022h7.704v1.022h-3.292v8.783h-1.121V295.719z"/>
				<path d="M256.876,294.627h1.037l4.468,9.875h-1.19l-1.149-2.592h-5.336l-1.163,2.592h-1.135L256.876,294.627z M259.608,300.916
					l-2.227-5.001l-2.241,5.001H259.608z"/>
				<path d="M268.074,299.627V299.6c0-2.773,2.073-5.071,4.958-5.071c1.779,0,2.844,0.631,3.824,1.555l-0.756,0.812
					c-0.827-0.784-1.751-1.345-3.082-1.345c-2.171,0-3.796,1.766-3.796,4.021v0.028c0,2.269,1.639,4.048,3.796,4.048
					c1.345,0,2.228-0.519,3.166-1.415l0.729,0.715c-1.023,1.036-2.144,1.723-3.922,1.723
					C270.161,304.67,268.074,302.442,268.074,299.627z"/>
				<path d="M278.126,299.627V299.6c0-2.704,2.031-5.071,5.015-5.071c2.983,0,4.987,2.34,4.987,5.043v0.028
					c0,2.703-2.031,5.07-5.015,5.07C280.129,304.67,278.126,302.331,278.126,299.627z M286.979,299.627V299.6
					c0-2.228-1.625-4.049-3.866-4.049s-3.838,1.793-3.838,4.021v0.028c0,2.227,1.625,4.048,3.866,4.048
					S286.979,301.854,286.979,299.627z"/>
				<path d="M290.46,294.696h1.121l3.572,5.352l3.572-5.352h1.121v9.806h-1.107v-7.942l-3.572,5.253h-0.056l-3.572-5.239v7.929
					h-1.079V294.696z"/>
				<path d="M302.136,299.726h3.894v1.135h-3.894V299.726z"/>
				<path d="M226.06,311.496h3.67c2.213,0,3.67,1.177,3.67,3.11v0.027c0,2.115-1.765,3.208-3.852,3.208h-2.381v3.46h-1.106V311.496z
					 M229.59,316.833c1.625,0,2.689-0.868,2.689-2.157v-0.027c0-1.401-1.05-2.13-2.633-2.13h-2.479v4.314H229.59z"/>
				<path d="M235.412,311.496h1.106v8.783h5.519v1.022h-6.625V311.496z"/>
				<path d="M244.078,311.496h7.088v1.009h-5.981v3.348h5.351v1.009h-5.351v3.432h6.051v1.009h-7.158V311.496z"/>
				<path d="M256.484,316.301l-3.628-4.805h1.303l3.012,4.007l2.984-4.007h1.289l-3.628,4.791l3.768,5.015h-1.317l-3.138-4.216
					l-3.138,4.216h-1.274L256.484,316.301z"/>
				<path d="M263.706,311.496h1.106v9.806h-1.106V311.496z"/>
				<path d="M267.682,311.496h3.404c3.082,0,5.211,2.115,5.211,4.875v0.028c0,2.759-2.129,4.902-5.211,4.902h-3.404V311.496z
					 M271.085,320.279c2.479,0,4.062-1.681,4.062-3.853v-0.027c0-2.172-1.583-3.881-4.062-3.881h-2.297v7.761H271.085z"/>
				<path d="M281.613,311.427h1.037l4.468,9.875h-1.19l-1.148-2.592h-5.337l-1.163,2.592h-1.134L281.613,311.427z M284.345,317.716
					l-2.227-5.001l-2.241,5.001H284.345z"/>
				<path d="M289.045,311.496h3.404c3.082,0,5.211,2.115,5.211,4.875v0.028c0,2.759-2.129,4.902-5.211,4.902h-3.404V311.496z
					 M292.449,320.279c2.479,0,4.062-1.681,4.062-3.853v-0.027c0-2.172-1.583-3.881-4.062-3.881h-2.297v7.761H292.449z"/>
				<path d="M299.993,311.496h7.088v1.009H301.1v3.348h5.351v1.009H301.1v3.432h6.051v1.009h-7.158V311.496z"/>
			</g>
			<g>
				<path d="M243.91,432.285h1.121l3.572,5.352l3.572-5.352h1.121v9.805h-1.107v-7.941l-3.572,5.252h-0.056l-3.572-5.238v7.928
					h-1.079V432.285z"/>
				<path d="M256.062,432.285h7.088v1.008h-5.981v3.348h5.351v1.01h-5.351v3.432h6.051v1.008h-7.158V432.285z M260.572,429.609
					l1.107,0.504l-1.611,1.303h-0.896L260.572,429.609z"/>
				<path d="M265.442,432.285h3.404c3.082,0,5.211,2.115,5.211,4.875v0.027c0,2.76-2.129,4.902-5.211,4.902h-3.404V432.285z
					 M268.846,441.068c2.479,0,4.062-1.682,4.062-3.854v-0.027c0-2.172-1.583-3.881-4.062-3.881h-2.297v7.762H268.846z"/>
				<path d="M276.488,432.285h1.106v9.805h-1.106V432.285z"/>
				<path d="M284.091,432.214h1.037l4.468,9.875h-1.19l-1.149-2.592h-5.336l-1.163,2.592h-1.135L284.091,432.214z M286.823,438.503
					l-2.227-5l-2.241,5H286.823z"/>
				<path d="M208.574,454.015v-0.027c0-2.773,2.073-5.072,4.958-5.072c1.779,0,2.844,0.631,3.824,1.555l-0.756,0.812
					c-0.827-0.783-1.751-1.344-3.082-1.344c-2.171,0-3.796,1.766-3.796,4.02v0.029c0,2.268,1.639,4.047,3.796,4.047
					c1.345,0,2.228-0.518,3.166-1.414l0.729,0.715c-1.023,1.035-2.144,1.723-3.922,1.723
					C210.661,459.058,208.574,456.83,208.574,454.015z"/>
				<path d="M218.626,454.015v-0.027c0-2.705,2.031-5.072,5.015-5.072c2.983,0,4.987,2.34,4.987,5.043v0.029
					c0,2.703-2.031,5.07-5.015,5.07C220.629,459.058,218.626,456.718,218.626,454.015z M227.479,454.015v-0.027
					c0-2.229-1.625-4.049-3.866-4.049s-3.838,1.793-3.838,4.02v0.029c0,2.227,1.625,4.047,3.866,4.047
					S227.479,456.242,227.479,454.015z"/>
				<path d="M230.96,449.083h1.121l3.572,5.352l3.572-5.352h1.121v9.807h-1.107v-7.943l-3.572,5.254h-0.056l-3.572-5.24v7.93h-1.079
					V449.083z"/>
				<path d="M243.112,449.083h3.67c2.213,0,3.67,1.178,3.67,3.111v0.027c0,2.115-1.765,3.207-3.852,3.207h-2.381v3.461h-1.106
					V449.083z M246.642,454.421c1.625,0,2.689-0.869,2.689-2.158v-0.027c0-1.4-1.05-2.129-2.633-2.129h-2.479v4.314H246.642z"/>
				<path d="M252.464,449.083h1.106v8.783h5.519v1.023h-6.625V449.083z"/>
				<path d="M261.13,449.083h7.088v1.01h-5.981v3.348h5.351v1.008h-5.351v3.432h6.051v1.01h-7.158V449.083z"/>
				<path d="M273.536,453.888l-3.628-4.805h1.302l3.012,4.008l2.984-4.008h1.289l-3.628,4.791l3.768,5.016h-1.317l-3.138-4.217
					l-3.138,4.217h-1.274L273.536,453.888z"/>
				<path d="M280.758,449.083h1.106v9.807h-1.106V449.083z"/>
				<path d="M284.734,449.083h3.404c3.082,0,5.211,2.115,5.211,4.875v0.029c0,2.758-2.129,4.902-5.211,4.902h-3.404V449.083z
					 M288.138,457.867c2.479,0,4.062-1.68,4.062-3.852v-0.027c0-2.172-1.583-3.881-4.062-3.881h-2.297v7.76H288.138z"/>
				<path d="M298.666,449.015h1.037l4.468,9.875h-1.19l-1.149-2.592h-5.336l-1.163,2.592h-1.135L298.666,449.015z M301.397,455.304
					l-2.227-5.002l-2.241,5.002H301.397z"/>
				<path d="M306.098,449.083h3.404c3.082,0,5.211,2.115,5.211,4.875v0.029c0,2.758-2.129,4.902-5.211,4.902h-3.404V449.083z
					 M309.501,457.867c2.479,0,4.062-1.68,4.062-3.852v-0.027c0-2.172-1.583-3.881-4.062-3.881h-2.297v7.76H309.501z"/>
				<path d="M317.045,449.083h7.088v1.01h-5.981v3.348h5.351v1.008h-5.351v3.432h6.051v1.01h-7.158V449.083z"/>
			</g>
			<g>
				<path d="M205.531,590.611h1.037l4.468,9.875h-1.19l-1.148-2.592h-5.337l-1.163,2.592h-1.134L205.531,590.611z M208.263,596.9
					l-2.227-5l-2.241,5H208.263z"/>
				<path d="M214.295,591.703h-3.292v-1.021h7.704v1.021h-3.292v8.783h-1.121V591.703z"/>
				<path d="M220.775,590.681h7.088v1.008h-5.981v3.348h5.351v1.01h-5.351v3.432h6.051v1.008h-7.158V590.681z"/>
				<path d="M230.155,590.681h1.037l6.177,7.857v-7.857h1.079v9.805h-0.882l-6.332-8.039v8.039h-1.079V590.681z"/>
				<path d="M243.947,602.181l1.079-1.568c-2.479-0.322-4.244-2.41-4.244-5.002v-0.027c0-2.773,2.073-5.07,4.958-5.07
					c1.779,0,2.844,0.631,3.824,1.555l-0.756,0.812c-0.827-0.785-1.751-1.346-3.082-1.346c-2.171,0-3.796,1.766-3.796,4.021v0.027
					c0,2.27,1.639,4.049,3.796,4.049c1.345,0,2.228-0.52,3.166-1.416l0.729,0.715c-0.981,0.994-2.045,1.652-3.698,1.709
					l-0.924,2.018L243.947,602.181z"/>
				<path d="M255.175,590.611h1.037l4.468,9.875h-1.19l-1.149-2.592h-5.336l-1.163,2.592h-1.135L255.175,590.611z M253.424,589.603
					c0.28-0.967,0.659-1.43,1.317-1.43c0.616,0,1.415,0.547,1.877,0.547c0.364,0,0.518-0.197,0.729-0.658l0.686,0.195
					c-0.28,0.967-0.658,1.416-1.316,1.416c-0.617,0-1.415-0.547-1.877-0.547c-0.364,0-0.519,0.195-0.729,0.672L253.424,589.603z
					 M257.907,596.9l-2.227-5l-2.241,5H257.907z"/>
				<path d="M261.599,595.611v-0.027c0-2.703,2.031-5.07,5.015-5.07c2.983,0,4.987,2.34,4.987,5.043v0.027
					c0,2.703-2.031,5.07-5.015,5.07C263.602,600.654,261.599,598.316,261.599,595.611z M270.452,595.611v-0.027
					c0-2.227-1.625-4.049-3.866-4.049s-3.838,1.793-3.838,4.021v0.027c0,2.227,1.625,4.049,3.866,4.049
					S270.452,597.839,270.452,595.611z"/>
				<path d="M278.133,590.681h4.174c1.121,0,2.003,0.322,2.563,0.869c0.406,0.42,0.63,0.938,0.63,1.568v0.027
					c0,1.275-0.785,1.934-1.555,2.27c1.163,0.35,2.101,1.023,2.101,2.367v0.027c0,1.682-1.415,2.676-3.558,2.676h-4.356V590.681z
					 M282.125,595.052c1.331,0,2.255-0.604,2.255-1.752v-0.027c0-0.967-0.771-1.598-2.171-1.598h-2.983v3.377H282.125z
					 M282.517,599.492c1.485,0,2.41-0.658,2.41-1.75v-0.029c0-1.064-0.896-1.68-2.605-1.68h-3.096v3.459H282.517z"/>
				<path d="M291.869,590.611h1.037l4.468,9.875h-1.19l-1.148-2.592h-5.337l-1.163,2.592h-1.134L291.869,590.611z M294.601,596.9
					l-2.227-5l-2.241,5H294.601z M293.34,587.865l1.107,0.506l-1.611,1.303h-0.896L293.34,587.865z"/>
				<path d="M298.46,599.058l0.687-0.812c1.022,0.924,2.003,1.387,3.362,1.387c1.317,0,2.185-0.701,2.185-1.668v-0.027
					c0-0.91-0.49-1.43-2.549-1.863c-2.255-0.49-3.292-1.219-3.292-2.83v-0.027c0-1.541,1.358-2.676,3.222-2.676
					c1.429,0,2.451,0.406,3.446,1.205l-0.645,0.854c-0.91-0.742-1.821-1.064-2.83-1.064c-1.274,0-2.087,0.701-2.087,1.584v0.027
					c0,0.926,0.504,1.443,2.662,1.906c2.185,0.475,3.193,1.273,3.193,2.773v0.027c0,1.682-1.4,2.773-3.348,2.773
					C300.912,600.626,299.637,600.109,298.46,599.058z"/>
				<path d="M308.163,590.681h1.106v9.805h-1.106V590.681z"/>
				<path d="M311.705,595.611v-0.027c0-2.773,2.073-5.07,4.958-5.07c1.779,0,2.844,0.631,3.824,1.555l-0.756,0.812
					c-0.827-0.785-1.751-1.346-3.082-1.346c-2.171,0-3.796,1.766-3.796,4.021v0.027c0,2.27,1.639,4.049,3.796,4.049
					c1.345,0,2.228-0.52,3.166-1.416l0.729,0.715c-1.023,1.037-2.144,1.723-3.922,1.723
					C313.792,600.654,311.705,598.427,311.705,595.611z"/>
				<path d="M326.099,590.611h1.037l4.468,9.875h-1.19l-1.148-2.592h-5.337l-1.163,2.592h-1.134L326.099,590.611z M328.83,596.9
					l-2.227-5l-2.241,5H328.83z"/>
			</g>
		</g>
		<g clip-path="url(#SVGID_2_)">
			<path fill="#FFCC33" d="M824.456,409.524c0,24.023-19.475,43.498-43.498,43.498s-43.498-19.475-43.498-43.498
				c0-24.016,19.475-43.491,43.498-43.491S824.456,385.508,824.456,409.524z"/>
			<g>
				<path d="M764.377,401.879h1.776l7.656,16.922h-2.04l-1.968-4.44h-9.146l-1.992,4.44h-1.943L764.377,401.879z M769.058,412.657
					l-3.816-8.568l-3.841,8.568H769.058z"/>
				<path d="M777.12,402h6.289c3.792,0,6.288,2.017,6.288,5.329v0.048c0,3.624-3.024,5.496-6.601,5.496h-4.08v5.929h-1.896V402z
					 M783.169,411.145c2.784,0,4.608-1.488,4.608-3.696V407.4c0-2.399-1.8-3.647-4.513-3.647h-4.248v7.393H783.169z"/>
				<path d="M792.049,416.353l1.176-1.393c1.752,1.585,3.433,2.377,5.761,2.377c2.256,0,3.744-1.2,3.744-2.856v-0.048
					c0-1.561-0.84-2.448-4.368-3.192c-3.864-0.84-5.641-2.088-5.641-4.849v-0.048c0-2.641,2.328-4.584,5.521-4.584
					c2.448,0,4.2,0.695,5.904,2.063l-1.104,1.465c-1.56-1.272-3.12-1.824-4.848-1.824c-2.185,0-3.576,1.199-3.576,2.712v0.048
					c0,1.584,0.863,2.473,4.56,3.265c3.745,0.815,5.473,2.184,5.473,4.752v0.048c0,2.881-2.4,4.753-5.736,4.753
					C796.249,419.042,794.064,418.153,792.049,416.353z"/>
			</g>
			<circle fill="#EF9A29" cx="654.373" cy="285.47" r="25.5"/>
			<circle fill="#F2C227" cx="833.962" cy="239.584" r="25.5"/>
			<circle fill="#FCE55E" cx="952.706" cy="372.396" r="25.5"/>
			<circle fill="#F2C227" cx="744.206" cy="582.283" r="25.5"/>
			<circle fill="#EF9A29" cx="906.706" cy="531.283" r="25.5"/>
			<circle fill="#FCE55E" cx="611.54" cy="458.205" r="25.5"/>
			<g>
				<g>
					<path fill="none" stroke="#231F20" stroke-width="1.4173" stroke-miterlimit="10" d="M867.219,563.576
						c-22.775,12.78-48.673,20.656-76.262,22.197"/>
					<g>
						<polygon fill="#231F20" points="875.803,558.433 860.73,560.643 866.542,563.903 866.591,570.565 						"/>
					</g>
					<g>
						<polygon fill="#231F20" points="780.958,586.051 794.86,579.824 791.707,585.694 795.243,591.34 						"/>
					</g>
				</g>
			</g>
			<g>
				<g>
					<path fill="none" stroke="#231F20" stroke-width="1.4173" stroke-miterlimit="10" d="M956.789,425.307
						c-2.089,23.575-8.812,45.818-19.253,65.812"/>
					<g>
						<polygon fill="#231F20" points="957.392,415.316 950.733,429.017 956.699,426.048 962.232,429.758 						"/>
					</g>
					<g>
						<polygon fill="#231F20" points="932.655,499.853 934.441,484.725 937.862,490.443 944.523,490.304 						"/>
					</g>
				</g>
			</g>
			<g>
				<g>
					<path fill="none" stroke="#231F20" stroke-width="1.4173" stroke-miterlimit="10" d="M874.956,260.084
						c26.092,16.446,47.575,39.536,62.076,66.895"/>
					<g>
						<polygon fill="#231F20" points="866.341,254.989 875.468,267.185 875.563,260.522 881.396,257.305 						"/>
					</g>
					<g>
						<polygon fill="#231F20" points="941.466,335.952 929.989,325.936 936.64,326.34 940.286,320.765 						"/>
					</g>
				</g>
			</g>
			<g>
				<g>
					<path fill="none" stroke="#231F20" stroke-width="1.4173" stroke-miterlimit="10" d="M690.709,257.786
						c26.409-15.74,57.272-24.782,90.249-24.782c0.239,0,0.479,0,0.718,0.001"/>
					<g>
						<polygon fill="#231F20" points="682.261,263.151 697.268,260.534 691.37,257.433 691.142,250.775 						"/>
					</g>
					<g>
						<polygon fill="#231F20" points="791.66,233.322 777.405,238.692 780.909,233.024 777.724,227.173 						"/>
					</g>
				</g>
			</g>
			<g>
				<g>
					<path fill="none" stroke="#231F20" stroke-width="1.4173" stroke-miterlimit="10" d="M604.432,409.235
						c0.05-30.967,8.075-60.068,22.134-85.354"/>
					<g>
						<polygon fill="#231F20" points="604.694,419.239 610.157,405.019 604.467,408.486 598.638,405.262 						"/>
					</g>
					<g>
						<polygon fill="#231F20" points="631.674,315.276 629.52,330.356 626.238,324.557 619.577,324.533 						"/>
					</g>
				</g>
			</g>
			<g>
				<g>
					<path fill="none" stroke="#231F20" stroke-width="1.4173" stroke-miterlimit="10" d="M696.761,564.716
						c-27.433-14.915-50.471-36.892-66.672-63.49"/>
					<g>
						<polygon fill="#231F20" points="705.687,569.245 695.793,557.662 696.127,564.316 690.513,567.903 						"/>
					</g>
					<g>
						<polygon fill="#231F20" points="625.127,492.534 637.183,501.846 630.519,501.839 627.212,507.623 						"/>
					</g>
				</g>
			</g>
			<g>
				<g>
					
						<line fill="none" stroke="#231F20" stroke-width="1.4173" stroke-miterlimit="10" x1="754.736" y1="537.232" x2="767.688" y2="474.334"/>
					<g>
						<polygon fill="#231F20" points="752.718,547.034 761.205,534.384 754.887,536.5 749.92,532.06 						"/>
					</g>
					<g>
						<polygon fill="#231F20" points="769.706,464.533 772.506,479.506 767.537,475.067 761.22,477.182 						"/>
					</g>
				</g>
			</g>
			<g>
				<g>
					
						<line fill="none" stroke="#231F20" stroke-width="1.4173" stroke-miterlimit="10" x1="875.788" y1="498.902" x2="829.159" y2="454.749"/>
					<g>
						<polygon fill="#231F20" points="883.055,505.783 876.777,491.903 875.245,498.388 868.854,500.27 						"/>
					</g>
					<g>
						<polygon fill="#231F20" points="821.893,447.868 836.094,453.379 829.702,455.262 828.171,461.747 						"/>
					</g>
				</g>
			</g>
			<g>
				<g>
					
						<line fill="none" stroke="#231F20" stroke-width="1.4173" stroke-miterlimit="10" x1="907.772" y1="381.63" x2="845.116" y2="395.7"/>
					<g>
						<polygon fill="#231F20" points="917.536,379.437 902.515,376.905 907.042,381.794 905.04,388.148 						"/>
					</g>
					<g>
						<polygon fill="#231F20" points="835.353,397.892 847.849,389.184 845.847,395.536 850.373,400.422 						"/>
					</g>
				</g>
			</g>
			<g>
				<g>
					
						<line fill="none" stroke="#231F20" stroke-width="1.4173" stroke-miterlimit="10" x1="820.472" y1="285.862" x2="801.6" y2="347.243"/>
					<g>
						<polygon fill="#231F20" points="823.412,276.296 813.761,288.082 820.251,286.577 824.774,291.468 						"/>
					</g>
					<g>
						<polygon fill="#231F20" points="798.659,356.808 797.296,341.636 801.819,346.528 808.31,345.022 						"/>
					</g>
				</g>
			</g>
			<g>
				<g>
					
						<line fill="none" stroke="#231F20" stroke-width="1.4173" stroke-miterlimit="10" x1="686.409" y1="318.948" x2="732.491" y2="363.673"/>
					<g>
						<polygon fill="#231F20" points="679.228,311.979 685.334,325.935 686.945,319.469 693.358,317.666 						"/>
					</g>
					<g>
						<polygon fill="#231F20" points="739.673,370.642 725.541,364.956 731.955,363.152 733.565,356.688 						"/>
					</g>
				</g>
			</g>
			<g>
				<g>
					
						<line fill="none" stroke="#231F20" stroke-width="1.4173" stroke-miterlimit="10" x1="657.522" y1="445.836" x2="718.636" y2="426.111"/>
					<g>
						<polygon fill="#231F20" points="647.999,448.91 663.188,450.062 658.234,445.606 659.649,439.096 						"/>
					</g>
					<g>
						<polygon fill="#231F20" points="728.159,423.038 716.51,432.852 717.924,426.341 712.97,421.886 						"/>
					</g>
				</g>
			</g>
		</g>
	</g>
	<g>
	</g>
	<g>
	</g>
	<g>
	</g>
	<g>
	</g>
	<g>
	</g>
	<g>
	</g>
	<g>
	</g>
	<g>
	</g>
</g>
</svg>
