<?xml version="1.0" encoding="utf-8"?>
<!-- Generator: Adobe Illustrator 16.0.0, SVG Export Plug-In . SVG Version: 6.00 Build 0)  -->
<!DOCTYPE svg PUBLIC "-//W3C//DTD SVG 1.1//EN" "http://www.w3.org/Graphics/SVG/1.1/DTD/svg11.dtd">
<svg version="1.1" xmlns="http://www.w3.org/2000/svg" xmlns:xlink="http://www.w3.org/1999/xlink" x="0px" y="0px" width="1024px"
	 height="680.315px" viewBox="0 0 1024 680.315" enable-background="new 0 0 1024 680.315" xml:space="preserve">
<g id="Layer_3">
	<g>
		<path fill="#C5EDEB" d="M511.92,269.367c-67.335,0-121.912,54.579-121.912,121.913c0,33.528,13.542,63.883,35.444,85.928
			c22.081,22.208,52.669,35.981,86.467,35.981c33.803,0,64.381-13.775,86.456-35.985c21.91-22.047,35.451-52.397,35.451-85.924
			C633.827,323.946,579.239,269.367,511.92,269.367z"/>
	</g>
	<path fill="none" d="M366.406,535.886c-36.867-37.076-59.651-88.193-59.651-144.606c0-113.311,91.852-205.165,205.165-205.165
		c113.283,0,205.16,91.854,205.16,205.165c0,55.981-22.453,106.738-58.825,143.751l90.38,88.784
		c29.633-30.12,52.958-65.047,69.312-103.854c17.17-40.753,25.873-84.057,25.873-128.682c0-44.826-8.771-88.281-26.066-129.174
		c-16.721-39.515-40.665-75.013-71.161-105.515c-30.503-30.497-66.001-54.436-105.524-71.15
		c-40.887-17.296-84.338-26.064-129.147-26.064c-44.829,0-88.287,8.768-129.176,26.064c-39.518,16.713-75.015,40.651-105.513,71.148
		c-30.497,30.5-54.436,65.998-71.149,105.513c-17.294,40.892-26.064,84.349-26.064,129.177c0,44.647,8.701,87.947,25.858,128.695
		c16.589,39.398,40.352,74.806,70.624,105.227c0.93,0.938,1.88,1.85,2.822,2.775l88.817-90.384
		C367.562,537.02,366.976,536.466,366.406,535.886z"/>
	<path fill="#8BB0D8" d="M511.92,270.029c32.383,0,62.828,12.615,85.726,35.518c22.902,22.898,35.52,53.346,35.52,85.733
		c0,27.129-10.59,62.486-34.79,85.924l26.209,24.754c29.211-29.723,45.293-68.993,45.293-110.678
		c0-42.189-16.433-81.861-46.272-111.695c-29.832-29.836-69.495-46.268-111.685-46.268l0,0c-42.193,0-81.865,16.432-111.694,46.267
		c-29.836,29.832-46.268,69.503-46.268,111.696c0,42.013,16.31,81.54,45.92,111.333c0.442,0.443,0.894,0.875,1.34,1.309
		l25.11-25.314c-29.109-30.94-35.66-59.433-35.66-87.327c0-32.391,12.614-62.838,35.516-85.734
		C449.082,282.643,479.533,270.029,511.92,270.029"/>
	<path fill="#C4BFE8" d="M511.921,185.876c-113.313,0-205.165,91.854-205.165,205.166c0,56.413,22.784,107.53,59.651,144.607
		c0.569,0.579,1.156,1.133,1.733,1.706c0,0,33.522-33.226,33.08-33.672c-28.583-28.756-47.261-68.904-47.261-112.641
		c0-85.377,70.104-157.963,157.962-157.963c87.842,0,157.958,72.912,157.958,157.963c0,43.411-17.091,81.978-45.293,110.677
		l33.67,33.073c36.372-37.013,58.825-87.77,58.825-143.75C717.081,277.73,625.204,185.876,511.921,185.876z"/>
	<path fill="#E6E7E8" d="M749.705,624.962c59.082-60.086,95.553-142.58,95.553-233.499c0-184.053-149.25-333.262-333.255-333.262
		c-184.054,0-333.261,149.209-333.261,333.262c0,91.634,39.891,177.103,99.795,237.309l-40.169,42.16
		c-69.353-69.692-112.172-165.858-112.172-271.938c0-213.072,172.734-385.809,385.807-385.809
		c213.012,0,385.801,172.736,385.801,385.809c0,105.256-42.216,200.754-110.626,270.319L749.705,624.962z"/>
	<g>
		<path fill="#9EE8BE" d="M367.247,535.077l-0.029-0.03l-0.032-0.037c-28.547-28.69-47.508-64.438-55.279-103.297L185.45,457.27
			c13.095,65.136,45.185,123.422,90.274,168.74c0.926,0.93,1.874,1.838,2.812,2.762l90.421-92.018
			C368.389,536.197,367.812,535.64,367.247,535.077z"/>
		<path fill="#EF7095" d="M704.043,460.139c-9.828,27.462-25.604,52.679-46.639,74.065l92.037,90.41
			c33.422-33.994,59.598-75.153,76.019-120.963L704.043,460.139z"/>
		<path fill="#C7E28A" d="M307.921,391.28c0-26.756,5.128-52.722,14.902-76.788l-119.509-48.53
			c-15.724,38.688-24.411,80.987-24.411,125.318c0,22.59,2.259,44.657,6.548,65.99l126.457-25.558
			C309.275,418.541,307.921,405.007,307.921,391.28z"/>
		<path fill="#F27070" d="M715.346,375.917l128.648-9.713c-3.792-50.92-19.031-98.657-43.165-140.633l-111.898,64.175
			C704.03,315.962,713.078,345.264,715.346,375.917z"/>
		<path fill="#FF9A8F" d="M715.921,391.28c0,23.833-4.074,47.049-11.878,68.859l121.417,43.513
			c17.601-49.06,19.472-88.325,19.472-112.372c0-8.437-0.316-16.797-0.938-25.076l-128.648,9.713
			C715.726,381.002,715.921,386.127,715.921,391.28z"/>
		<path fill="#F49B6E" d="M688.931,289.746l111.898-64.175c-24.72-43.015-76.319-98.688-123.583-123.399l-63.958,112.011
			C639.768,229.571,669.878,255.137,688.931,289.746z"/>
		<path fill="#F4E46E" d="M367.673,247.033c9.562-9.566,28.846-25.763,40.711-32.85l-63.467-111.615
			c-62.605,34.722-116.372,101.326-141.604,163.394l119.509,48.53C332.947,289.548,348.062,266.642,367.673,247.033z"/>
		<g>
			<polygon fill="#F7BC6D" points="613.288,214.183 670.246,173.348 677.246,102.171 645.268,106.159 624.842,168.65 			"/>
			<polygon fill="#F7BC6D" points="408.384,214.183 351.484,171.622 344.917,102.567 371.789,110.149 392.218,172.64 			"/>
		</g>
		<path fill="#F7BC6D" d="M511.92,186.115c42.094,0,73.607,12.351,101.368,28.068l63.958-112.011
			c-47.166-25.304-94.917-43.909-165.327-43.909c-68.458,0-125.724,18.159-167.002,44.305l63.467,111.615
			C442.063,195.959,470.958,186.115,511.92,186.115z"/>
	</g>
</g>
<g id="Layer_2">
	<g>
		<path d="M449.729,363.58h2.168v12.337h-2.168V363.58z"/>
		<path d="M455.192,363.58h4.6c3.877,0,6.556,2.662,6.556,6.133v0.035c0,3.472-2.679,6.168-6.556,6.168h-4.6V363.58z
			 M459.792,373.943c2.591,0,4.283-1.745,4.283-4.159v-0.035c0-2.415-1.692-4.194-4.283-4.194h-2.432v8.389H459.792z"/>
		<path d="M472.5,363.492h2.009l5.428,12.425h-2.291l-1.251-2.979h-5.833l-1.269,2.979h-2.221L472.5,363.492z M475.602,371.018
			l-2.132-4.935l-2.115,4.935H475.602z"/>
		<path d="M482.052,363.58h4.6c3.877,0,6.556,2.662,6.556,6.133v0.035c0,3.472-2.679,6.168-6.556,6.168h-4.6V363.58z
			 M486.652,373.943c2.591,0,4.283-1.745,4.283-4.159v-0.035c0-2.415-1.692-4.194-4.283-4.194h-2.432v8.389H486.652z"/>
		<path d="M495.835,363.58h9.147v1.939h-6.979v3.208h6.186v1.938h-6.186v3.313h7.067v1.938h-9.235V363.58z"/>
		<path d="M506.657,377.574c1.075-0.211,1.586-0.758,1.498-1.657h-0.899v-2.415h2.344v2.044c0,1.956-0.934,2.785-2.714,2.926
			L506.657,377.574z"/>
		<path d="M516.844,374.119l1.305-1.551c1.18,1.022,2.361,1.604,3.895,1.604c1.34,0,2.186-0.617,2.186-1.551v-0.035
			c0-0.881-0.494-1.357-2.785-1.886c-2.625-0.634-4.105-1.41-4.105-3.683v-0.036c0-2.115,1.762-3.578,4.211-3.578
			c1.799,0,3.226,0.546,4.477,1.551l-1.163,1.639c-1.11-0.828-2.22-1.269-3.349-1.269c-1.269,0-2.009,0.652-2.009,1.462v0.036
			c0,0.952,0.563,1.375,2.926,1.938c2.608,0.634,3.965,1.568,3.965,3.613v0.035c0,2.309-1.814,3.684-4.405,3.684
			C520.104,376.093,518.324,375.441,516.844,374.119z"/>
		<path d="M528.952,363.58h9.147v1.939h-6.979v3.208h6.186v1.938h-6.186v3.313h7.067v1.938h-9.235V363.58z"/>
		<path d="M544.321,369.643l-4.318-6.063h2.556l3.066,4.424l3.084-4.424h2.485l-4.3,6.027l4.476,6.31h-2.555l-3.243-4.67
			l-3.261,4.67h-2.484L544.321,369.643z"/>
		<path d="M552.183,369.784v-0.035c0-3.472,2.679-6.38,6.468-6.38s6.433,2.873,6.433,6.345v0.035c0,3.472-2.679,6.38-6.468,6.38
			S552.183,373.256,552.183,369.784z M562.81,369.784v-0.035c0-2.397-1.745-4.388-4.194-4.388c-2.45,0-4.159,1.956-4.159,4.353
			v0.035c0,2.397,1.744,4.389,4.194,4.389C561.1,374.137,562.81,372.181,562.81,369.784z"/>
		<path d="M449.605,384.73h9.147v1.939h-6.979v3.208h6.186v1.938h-6.186v3.313h7.067v1.938h-9.235V384.73z"/>
		<path d="M466.701,384.73h9.182v1.974h-7.014v3.366h6.221v1.974h-6.221v5.023h-2.168V384.73z"/>
		<path d="M481.224,384.642h2.009l5.428,12.425h-2.291l-1.251-2.979h-5.833l-1.269,2.979h-2.221L481.224,384.642z M484.325,392.167
			l-2.132-4.935l-2.115,4.935H484.325z"/>
		<path d="M492.221,386.739h-3.913v-2.009h10.01v2.009h-3.913v10.328h-2.185V386.739z"/>
		<path d="M499.395,390.934v-0.035c0-3.472,2.679-6.38,6.468-6.38s6.433,2.873,6.433,6.345v0.035c0,3.472-2.679,6.38-6.468,6.38
			S499.395,394.406,499.395,390.934z M510.022,390.934v-0.035c0-2.397-1.745-4.388-4.194-4.388s-4.159,1.956-4.159,4.353v0.035
			c0,2.397,1.745,4.389,4.194,4.389S510.022,393.331,510.022,390.934z"/>
		<path d="M514.922,384.73h5.499c1.551,0,2.767,0.458,3.56,1.234c0.652,0.669,1.022,1.586,1.022,2.661v0.035
			c0,2.027-1.216,3.243-2.943,3.736l3.331,4.67h-2.555l-3.032-4.3h-2.714v4.3h-2.168V384.73z M520.262,390.846
			c1.551,0,2.538-0.811,2.538-2.062v-0.035c0-1.322-0.952-2.044-2.556-2.044h-3.154v4.142H520.262z"/>
		<path d="M527.664,384.73h9.147v1.939h-6.979v3.208h6.186v1.938h-6.186v3.313h7.067v1.938h-9.235V384.73z"/>
		<path d="M538.645,395.269l1.304-1.551c1.182,1.022,2.362,1.604,3.896,1.604c1.339,0,2.186-0.617,2.186-1.551v-0.035
			c0-0.881-0.494-1.357-2.785-1.886c-2.626-0.634-4.106-1.41-4.106-3.683v-0.036c0-2.115,1.763-3.578,4.213-3.578
			c1.797,0,3.225,0.546,4.476,1.551l-1.163,1.639c-1.11-0.828-2.221-1.269-3.349-1.269c-1.269,0-2.009,0.652-2.009,1.462v0.036
			c0,0.952,0.564,1.375,2.926,1.938c2.608,0.634,3.965,1.568,3.965,3.613v0.035c0,2.309-1.814,3.683-4.405,3.683
			C541.905,397.243,540.125,396.591,538.645,395.269z"/>
		<path d="M449.605,405.879h2.168v5.129h5.886v-5.129h2.168v12.337h-2.168v-5.199h-5.886v5.199h-2.168V405.879z"/>
		<path d="M463,405.879h9.147v1.938h-6.979v3.208h6.186v1.938h-6.186v3.313h7.067v1.938H463V405.879z"/>
		<path d="M474.809,405.879h5.499c1.551,0,2.767,0.458,3.56,1.233c0.652,0.67,1.022,1.587,1.022,2.662v0.035
			c0,2.026-1.216,3.242-2.943,3.736l3.331,4.67h-2.555l-3.032-4.3h-2.714v4.3h-2.168V405.879z M480.149,411.995
			c1.551,0,2.538-0.811,2.538-2.062v-0.035c0-1.322-0.952-2.045-2.555-2.045h-3.155v4.142H480.149z"/>
		<path d="M487.551,405.879h9.147v1.938h-6.979v3.208h6.186v1.938h-6.186v3.313h7.067v1.938h-9.235V405.879z"/>
		<path d="M499.36,405.879h4.6c3.877,0,6.556,2.661,6.556,6.134v0.035c0,3.472-2.679,6.168-6.556,6.168h-4.6V405.879z
			 M503.96,416.243c2.591,0,4.283-1.745,4.283-4.159v-0.035c0-2.415-1.692-4.195-4.283-4.195h-2.432v8.39H503.96z"/>
		<path d="M513.266,405.879h2.168v12.337h-2.168V405.879z"/>
		<path d="M521.762,407.889h-3.913v-2.01h10.011v2.01h-3.913v10.327h-2.185V407.889z"/>
		<path d="M532.936,405.792h2.009l5.429,12.425h-2.291l-1.252-2.979h-5.833l-1.27,2.979h-2.221L532.936,405.792z M536.037,413.317
			l-2.133-4.935l-2.114,4.935H536.037z M535.032,402.125l1.939,0.846l-2.256,1.71h-1.657L535.032,402.125z"/>
		<path d="M542.488,405.879h5.499c1.551,0,2.767,0.458,3.56,1.233c0.652,0.67,1.022,1.587,1.022,2.662v0.035
			c0,2.026-1.216,3.242-2.943,3.736l3.331,4.67h-2.556l-3.031-4.3h-2.714v4.3h-2.168V405.879z M547.828,411.995
			c1.552,0,2.538-0.811,2.538-2.062v-0.035c0-1.322-0.951-2.045-2.556-2.045h-3.154v4.142H547.828z"/>
		<path d="M555.354,405.879h2.167v12.337h-2.167V405.879z"/>
		<path d="M560.271,412.083v-0.035c0-3.473,2.679-6.38,6.468-6.38s6.433,2.872,6.433,6.345v0.035c0,3.472-2.679,6.38-6.468,6.38
			S560.271,415.555,560.271,412.083z M570.898,412.083v-0.035c0-2.397-1.745-4.389-4.194-4.389c-2.45,0-4.159,1.956-4.159,4.354
			v0.035c0,2.396,1.744,4.388,4.194,4.388C569.188,416.436,570.898,414.48,570.898,412.083z"/>
		<path d="M574.883,416.418l1.304-1.551c1.182,1.022,2.362,1.604,3.896,1.604c1.339,0,2.186-0.616,2.186-1.551v-0.035
			c0-0.881-0.494-1.356-2.785-1.886c-2.626-0.635-4.106-1.41-4.106-3.684v-0.035c0-2.114,1.763-3.577,4.213-3.577
			c1.797,0,3.225,0.546,4.476,1.551l-1.163,1.639c-1.11-0.828-2.221-1.269-3.349-1.269c-1.269,0-2.009,0.652-2.009,1.463v0.035
			c0,0.951,0.564,1.374,2.926,1.938c2.608,0.635,3.965,1.568,3.965,3.613v0.035c0,2.309-1.814,3.683-4.405,3.683
			C578.144,418.392,576.363,417.741,574.883,416.418z"/>
	</g>
	<g>
		<path d="M417.357,123.01v-0.035c0-3.507,2.626-6.38,6.362-6.38c2.273,0,3.648,0.793,4.829,1.921l-1.392,1.604
			c-0.987-0.917-2.044-1.533-3.455-1.533c-2.361,0-4.071,1.938-4.071,4.353v0.035c0,2.415,1.709,4.389,4.071,4.389
			c1.516,0,2.485-0.617,3.542-1.604l1.393,1.41c-1.287,1.34-2.697,2.186-5.005,2.186
			C420.036,129.355,417.357,126.553,417.357,123.01z"/>
		<path d="M430.012,123.01v-0.035c0-3.472,2.679-6.38,6.468-6.38s6.433,2.873,6.433,6.345v0.035c0,3.472-2.679,6.38-6.468,6.38
			S430.012,126.482,430.012,123.01z M440.639,123.01v-0.035c0-2.397-1.745-4.388-4.194-4.388s-4.159,1.956-4.159,4.353v0.035
			c0,2.397,1.745,4.389,4.194,4.389S440.639,125.407,440.639,123.01z"/>
		<path d="M445.539,116.807h2.009l6.609,8.53v-8.53h2.133v12.337h-1.815l-6.803-8.777v8.777h-2.133V116.807z"/>
		<path d="M459.462,116.807h4.6c3.877,0,6.556,2.662,6.556,6.133v0.035c0,3.472-2.679,6.168-6.556,6.168h-4.6V116.807z
			 M464.062,127.169c2.591,0,4.283-1.745,4.283-4.159v-0.035c0-2.415-1.692-4.194-4.283-4.194h-2.432v8.389H464.062z"/>
		<path d="M473.369,116.807h2.168v12.337h-2.168V116.807z"/>
		<path d="M481.917,131.276l1.375-2.044c-2.943-0.546-5.005-3.102-5.005-6.221v-0.035c0-3.507,2.626-6.38,6.362-6.38
			c2.273,0,3.648,0.793,4.829,1.921l-1.392,1.604c-0.987-0.917-2.044-1.533-3.455-1.533c-2.361,0-4.071,1.938-4.071,4.353v0.035
			c0,2.415,1.709,4.389,4.071,4.389c1.516,0,2.485-0.617,3.542-1.604l1.393,1.41c-1.216,1.269-2.538,2.08-4.618,2.168l-1.163,2.732
			L481.917,131.276z"/>
		<path d="M490.94,123.01v-0.035c0-3.472,2.679-6.38,6.468-6.38s6.433,2.873,6.433,6.345v0.035c0,3.472-2.679,6.38-6.468,6.38
			S490.94,126.482,490.94,123.01z M501.567,123.01v-0.035c0-2.397-1.745-4.388-4.194-4.388s-4.159,1.956-4.159,4.353v0.035
			c0,2.397,1.745,4.389,4.194,4.389S501.567,125.407,501.567,123.01z M494.095,115.415c0.37-1.375,0.899-2.168,1.974-2.168
			c0.969,0,1.974,0.688,2.591,0.688c0.511,0,0.722-0.282,0.969-0.846l1.198,0.352c-0.388,1.375-0.917,2.168-1.974,2.168
			c-0.97,0-1.974-0.688-2.591-0.688c-0.511,0-0.723,0.282-0.987,0.864L494.095,115.415z"/>
		<path d="M506.467,116.807h9.147v1.939h-6.979v3.208h6.186v1.938h-6.186v3.313h7.068v1.938h-9.236V116.807z"/>
		<path d="M517.447,127.346l1.305-1.551c1.181,1.022,2.361,1.604,3.895,1.604c1.34,0,2.186-0.617,2.186-1.551v-0.035
			c0-0.881-0.493-1.357-2.784-1.886c-2.626-0.634-4.106-1.41-4.106-3.683v-0.036c0-2.115,1.762-3.578,4.212-3.578
			c1.798,0,3.226,0.546,4.477,1.551l-1.163,1.639c-1.11-0.828-2.221-1.269-3.349-1.269c-1.269,0-2.009,0.652-2.009,1.462v0.036
			c0,0.952,0.563,1.375,2.926,1.938c2.607,0.634,3.965,1.568,3.965,3.613v0.035c0,2.309-1.815,3.684-4.406,3.684
			C520.708,129.32,518.928,128.667,517.447,127.346z"/>
		<path d="M534.844,116.807h4.6c3.878,0,6.557,2.662,6.557,6.133v0.035c0,3.472-2.679,6.168-6.557,6.168h-4.6V116.807z
			 M539.443,127.169c2.591,0,4.283-1.745,4.283-4.159v-0.035c0-2.415-1.692-4.194-4.283-4.194h-2.432v8.389H539.443z"/>
		<path d="M548.625,116.807h9.147v1.939h-6.979v3.208h6.186v1.938h-6.186v3.313h7.067v1.938h-9.235V116.807z"/>
		<path d="M564.663,116.807h2.397l3.719,9.482l3.701-9.482h2.344l-5.129,12.425h-1.903L564.663,116.807z"/>
		<path d="M579.063,116.807h2.167v12.337h-2.167V116.807z"/>
		<path d="M584.527,116.807h4.6c3.878,0,6.557,2.662,6.557,6.133v0.035c0,3.472-2.679,6.168-6.557,6.168h-4.6V116.807z
			 M589.127,127.169c2.591,0,4.283-1.745,4.283-4.159v-0.035c0-2.415-1.692-4.194-4.283-4.194h-2.432v8.389H589.127z"/>
		<path d="M601.834,116.719h2.009l5.429,12.425h-2.291l-1.252-2.979h-5.833l-1.27,2.979h-2.221L601.834,116.719z M604.936,124.244
			l-2.133-4.935l-2.114,4.935H604.936z"/>
		<path d="M438.648,137.957h9.147v1.939h-6.979v3.208h6.186v1.938h-6.186v3.313h7.067v1.938h-9.235V137.957z"/>
		<path d="M455.744,137.957h4.6c3.877,0,6.556,2.662,6.556,6.133v0.035c0,3.472-2.679,6.168-6.556,6.168h-4.6V137.957z
			 M460.344,148.32c2.591,0,4.283-1.745,4.283-4.16v-0.035c0-2.415-1.692-4.194-4.283-4.194h-2.432v8.389H460.344z"/>
		<path d="M469.526,137.957h9.147v1.939h-6.979v3.208h6.186v1.938h-6.186v3.313h7.067v1.938h-9.235V137.957z"/>
		<path d="M489.654,139.966h-3.913v-2.009h10.01v2.009h-3.913v10.328h-2.185V139.966z"/>
		<path d="M498.043,137.957h5.499c1.551,0,2.767,0.458,3.56,1.234c0.652,0.669,1.022,1.586,1.022,2.661v0.035
			c0,2.027-1.216,3.243-2.943,3.736l3.331,4.67h-2.555l-3.032-4.3h-2.714v4.3h-2.168V137.957z M503.383,144.072
			c1.551,0,2.538-0.811,2.538-2.062v-0.035c0-1.322-0.952-2.044-2.555-2.044h-3.155v4.142H503.383z"/>
		<path d="M515.156,137.869h2.01l5.428,12.425h-2.291l-1.252-2.979h-5.833l-1.269,2.979h-2.221L515.156,137.869z M518.258,145.394
			l-2.132-4.935l-2.114,4.935H518.258z"/>
		<path d="M524.709,137.957h5.534c1.41,0,2.521,0.388,3.226,1.093c0.546,0.546,0.828,1.216,0.828,2.044v0.035
			c0,1.48-0.847,2.273-1.763,2.75c1.445,0.493,2.45,1.322,2.45,2.996v0.035c0,2.203-1.815,3.384-4.565,3.384h-5.71V137.957z
			 M529.803,143.156c1.392,0,2.326-0.546,2.326-1.674v-0.035c0-0.969-0.775-1.568-2.168-1.568h-3.119v3.278H529.803z
			 M530.437,148.373c1.48,0,2.38-0.582,2.38-1.692v-0.035c0-1.04-0.828-1.657-2.538-1.657h-3.437v3.384H530.437z"/>
		<path d="M541.805,137.869h2.009l5.429,12.425h-2.291l-1.252-2.979h-5.833l-1.27,2.979h-2.221L541.805,137.869z M544.906,145.394
			l-2.133-4.935l-2.114,4.935H544.906z"/>
		<path d="M551.357,137.957h2.168v10.363h6.485v1.974h-8.653V137.957z"/>
		<path d="M562.267,137.957h2.168v5.129h5.887v-5.129h2.167v12.337h-2.167v-5.199h-5.887v5.199h-2.168V137.957z"/>
		<path d="M575.115,144.16v-0.035c0-3.472,2.679-6.38,6.468-6.38s6.433,2.873,6.433,6.345v0.035c0,3.472-2.679,6.38-6.468,6.38
			S575.115,147.632,575.115,144.16z M585.742,144.16v-0.035c0-2.397-1.745-4.388-4.194-4.388c-2.45,0-4.159,1.956-4.159,4.353v0.035
			c0,2.397,1.744,4.389,4.194,4.389C584.032,148.514,585.742,146.557,585.742,144.16z"/>
	</g>
	<g>
		<path d="M230.292,494.331h3.782c2.233,0,3.645,1.274,3.645,3.206v0.027c0,2.151-1.727,3.275-3.837,3.275h-1.905v3.083h-1.685
			V494.331z M233.937,499.318c1.274,0,2.069-0.712,2.069-1.712v-0.027c0-1.124-0.809-1.713-2.069-1.713h-1.959v3.452H233.937z"/>
		<path d="M239.449,494.331h4.275c1.206,0,2.151,0.356,2.768,0.959c0.507,0.521,0.794,1.233,0.794,2.069v0.027
			c0,1.576-0.945,2.521-2.288,2.905l2.59,3.631h-1.987l-2.357-3.344h-2.11v3.344h-1.685V494.331z M243.601,499.085
			c1.206,0,1.973-0.63,1.973-1.604v-0.027c0-1.027-0.74-1.589-1.987-1.589h-2.453v3.22H243.601z"/>
		<path d="M248.936,499.154v-0.027c0-2.699,2.083-4.96,5.029-4.96c2.946,0,5.001,2.233,5.001,4.933v0.027
			c0,2.699-2.083,4.96-5.029,4.96C250.991,504.086,248.936,501.853,248.936,499.154z M257.198,499.154v-0.027
			c0-1.863-1.356-3.412-3.261-3.412c-1.904,0-3.233,1.521-3.233,3.385v0.027c0,1.863,1.356,3.412,3.261,3.412
			C255.869,502.539,257.198,501.017,257.198,499.154z"/>
		<path d="M261.012,494.331h3.576c3.015,0,5.097,2.069,5.097,4.769v0.027c0,2.699-2.083,4.796-5.097,4.796h-3.576V494.331z
			 M264.588,502.388c2.014,0,3.33-1.357,3.33-3.234v-0.027c0-1.877-1.315-3.261-3.33-3.261h-1.891v6.522H264.588z"/>
		<path d="M271.581,499.853v-5.522h1.686v5.454c0,1.781,0.918,2.74,2.425,2.74c1.494,0,2.412-0.904,2.412-2.672v-5.522h1.685v5.44
			c0,2.863-1.617,4.302-4.124,4.302C273.17,504.073,271.581,502.634,271.581,499.853z"/>
		<path d="M284.507,505.581l1.068-1.59c-2.288-0.425-3.891-2.411-3.891-4.837v-0.027c0-2.727,2.042-4.96,4.946-4.96
			c1.768,0,2.836,0.616,3.754,1.493l-1.083,1.247c-0.767-0.713-1.589-1.192-2.686-1.192c-1.836,0-3.165,1.508-3.165,3.385v0.027
			c0,1.877,1.329,3.412,3.165,3.412c1.179,0,1.932-0.479,2.754-1.247l1.083,1.097c-0.946,0.986-1.973,1.616-3.59,1.685l-0.904,2.124
			L284.507,505.581z"/>
		<path d="M295.624,494.262h1.562l4.221,9.66h-1.782l-0.973-2.315h-4.536l-0.986,2.315h-1.727L295.624,494.262z M293.842,493.249
			c0.288-1.069,0.699-1.686,1.535-1.686c0.753,0,1.535,0.534,2.014,0.534c0.397,0,0.562-0.219,0.754-0.657l0.932,0.273
			c-0.301,1.069-0.712,1.686-1.535,1.686c-0.754,0-1.535-0.534-2.014-0.534c-0.397,0-0.562,0.219-0.768,0.671L293.842,493.249z
			 M298.035,500.113l-1.658-3.836l-1.645,3.836H298.035z"/>
		<path d="M302.041,499.154v-0.027c0-2.699,2.083-4.96,5.029-4.96c2.946,0,5.001,2.233,5.001,4.933v0.027
			c0,2.699-2.083,4.96-5.029,4.96C304.096,504.086,302.041,501.853,302.041,499.154z M310.303,499.154v-0.027
			c0-1.863-1.356-3.412-3.261-3.412c-1.904,0-3.233,1.521-3.233,3.385v0.027c0,1.863,1.356,3.412,3.261,3.412
			C308.974,502.539,310.303,501.017,310.303,499.154z"/>
		<path d="M233.69,510.712h1.562l4.221,9.66h-1.782l-0.973-2.315h-4.536l-0.986,2.315h-1.727L233.69,510.712z M236.102,516.563
			l-1.658-3.836l-1.645,3.836H236.102z"/>
		<path d="M240.107,515.604v-0.027c0-2.686,2.055-4.96,4.946-4.96c1.672,0,2.7,0.466,3.686,1.302l-1.069,1.274
			c-0.74-0.631-1.466-1.028-2.686-1.028c-1.768,0-3.11,1.549-3.11,3.385v0.027c0,1.974,1.302,3.426,3.261,3.426
			c0.904,0,1.726-0.288,2.315-0.727v-1.795h-2.453v-1.466h4.083v4.028c-0.946,0.809-2.302,1.493-4.001,1.493
			C242.081,520.537,240.107,518.4,240.107,515.604z"/>
		<path d="M251.279,510.781h4.275c1.206,0,2.151,0.356,2.768,0.959c0.507,0.521,0.794,1.233,0.794,2.069v0.027
			c0,1.576-0.945,2.521-2.288,2.905l2.59,3.631h-1.987l-2.357-3.344h-2.11v3.344h-1.685V510.781z M255.431,515.536
			c1.206,0,1.973-0.63,1.973-1.604v-0.027c0-1.027-0.74-1.589-1.987-1.589h-2.453v3.22H255.431z"/>
		<path d="M261.286,510.781h1.686v9.592h-1.686V510.781z M262.999,508l1.507,0.657l-1.754,1.329h-1.288L262.999,508z"/>
		<path d="M265.111,515.604v-0.027c0-2.727,2.042-4.96,4.946-4.96c1.768,0,2.836,0.616,3.754,1.493l-1.083,1.247
			c-0.767-0.713-1.589-1.192-2.686-1.192c-1.836,0-3.165,1.508-3.165,3.385v0.027c0,1.877,1.329,3.412,3.165,3.412
			c1.179,0,1.932-0.479,2.754-1.247l1.083,1.096c-1,1.042-2.097,1.699-3.892,1.699C267.193,520.537,265.111,518.358,265.111,515.604
			z"/>
		<path d="M274.954,515.604v-0.027c0-2.699,2.083-4.96,5.029-4.96c2.946,0,5.001,2.233,5.001,4.933v0.027
			c0,2.699-2.083,4.96-5.028,4.96C277.009,520.537,274.954,518.303,274.954,515.604z M283.216,515.604v-0.027
			c0-1.863-1.356-3.412-3.261-3.412c-1.905,0-3.234,1.521-3.234,3.385v0.027c0,1.863,1.356,3.412,3.261,3.412
			C281.887,518.989,283.216,517.467,283.216,515.604z"/>
		<path d="M287.03,510.781h1.685v8.057h5.042v1.535h-6.728V510.781z"/>
		<path d="M298.914,510.712h1.562l4.221,9.66h-1.782l-0.973-2.315h-4.536l-0.986,2.315h-1.727L298.914,510.712z M301.325,516.563
			l-1.658-3.836l-1.645,3.836H301.325z"/>
		<path d="M310.458,510.781h7.111v1.508h-5.426v2.493h4.81v1.508h-4.81v2.576h5.495v1.507h-7.18V510.781z"/>
		<path d="M230.292,527.23h3.576c3.015,0,5.097,2.069,5.097,4.769v0.027c0,2.699-2.083,4.796-5.097,4.796h-3.576V527.23z
			 M233.868,535.287c2.014,0,3.33-1.356,3.33-3.233v-0.027c0-1.877-1.315-3.261-3.33-3.261h-1.891v6.521H233.868z"/>
		<path d="M241.012,527.23h7.111v1.508h-5.426v2.493h4.81v1.508h-4.81v2.576h5.495v1.507h-7.18V527.23z"/>
		<path d="M257.707,527.162h1.562l4.221,9.66h-1.782l-0.973-2.315h-4.536l-0.986,2.315h-1.727L257.707,527.162z M260.118,533.012
			l-1.658-3.836l-1.645,3.836H260.118z"/>
		<path d="M265.138,527.23h1.685v8.057h5.042v1.535h-6.728V527.23z"/>
		<path d="M273.719,527.23h1.686v9.592h-1.686V527.23z"/>
		<path d="M277.969,527.23h1.795l2.918,4.535l2.918-4.535h1.795v9.592h-1.686v-6.879l-3.028,4.522h-0.055l-3.001-4.495v6.852h-1.658
			V527.23z"/>
		<path d="M289.867,527.23h7.111v1.508h-5.426v2.493h4.81v1.508h-4.81v2.576h5.495v1.507h-7.18V527.23z"/>
		<path d="M299.052,527.23h1.562l5.138,6.632v-6.632h1.658v9.592h-1.412l-5.289-6.824v6.824h-1.658V527.23z"/>
		<path d="M312.238,528.792h-3.042v-1.562h7.783v1.562h-3.042v8.029h-1.699V528.792z"/>
		<path d="M317.818,532.053v-0.027c0-2.699,2.083-4.96,5.029-4.96c2.946,0,5.001,2.233,5.001,4.933v0.027
			c0,2.699-2.083,4.96-5.029,4.96C319.874,536.986,317.818,534.752,317.818,532.053z M326.081,532.053v-0.027
			c0-1.863-1.356-3.412-3.261-3.412c-1.904,0-3.233,1.521-3.233,3.385v0.027c0,1.863,1.356,3.412,3.261,3.412
			C324.751,535.438,326.081,533.917,326.081,532.053z"/>
		<path d="M329.183,535.424l1.014-1.206c0.918,0.795,1.836,1.247,3.028,1.247c1.042,0,1.699-0.479,1.699-1.206v-0.027
			c0-0.685-0.384-1.055-2.165-1.466c-2.042-0.493-3.193-1.097-3.193-2.864v-0.027c0-1.645,1.371-2.781,3.275-2.781
			c1.398,0,2.508,0.425,3.48,1.206l-0.904,1.273c-0.863-0.644-1.727-0.986-2.604-0.986c-0.986,0-1.562,0.507-1.562,1.138v0.027
			c0,0.74,0.438,1.068,2.275,1.507c2.028,0.493,3.083,1.22,3.083,2.81v0.027c0,1.795-1.412,2.863-3.426,2.863
			C331.717,536.958,330.333,536.452,329.183,535.424z"/>
	</g>
	<g>
		<path d="M207.272,362.65h7.111v1.507h-5.426v2.494h4.81v1.507h-4.81v2.576h5.495v1.507h-7.18V362.65z"/>
		<path d="M216.457,362.65h3.576c3.015,0,5.097,2.069,5.097,4.769v0.027c0,2.699-2.083,4.796-5.097,4.796h-3.576V362.65z
			 M220.033,370.708c2.014,0,3.33-1.356,3.33-3.234v-0.027c0-1.877-1.315-3.261-3.33-3.261h-1.891v6.522H220.033z"/>
		<path d="M227.026,368.172v-5.522h1.686v5.454c0,1.781,0.918,2.741,2.425,2.741c1.493,0,2.412-0.905,2.412-2.672v-5.522h1.685v5.44
			c0,2.864-1.617,4.303-4.124,4.303C228.615,372.393,227.026,370.954,227.026,368.172z"/>
		<path d="M237.129,367.474v-0.027c0-2.727,2.042-4.96,4.946-4.96c1.768,0,2.836,0.617,3.754,1.494l-1.083,1.247
			c-0.767-0.712-1.589-1.192-2.686-1.192c-1.836,0-3.165,1.507-3.165,3.384v0.027c0,1.877,1.329,3.412,3.165,3.412
			c1.179,0,1.932-0.48,2.754-1.247l1.083,1.096c-1,1.042-2.097,1.699-3.892,1.699C239.211,372.407,237.129,370.228,237.129,367.474z
			"/>
		<path d="M251.068,362.582h1.562l4.22,9.66h-1.781l-0.973-2.316h-4.536l-0.986,2.316h-1.727L251.068,362.582z M253.48,368.433
			l-1.658-3.837l-1.645,3.837H253.48z"/>
		<path d="M260.309,373.9l1.068-1.59c-2.288-0.425-3.891-2.412-3.891-4.837v-0.027c0-2.727,2.042-4.96,4.946-4.96
			c1.768,0,2.836,0.617,3.754,1.494l-1.083,1.247c-0.767-0.712-1.589-1.192-2.686-1.192c-1.836,0-3.165,1.507-3.165,3.384v0.027
			c0,1.877,1.329,3.412,3.165,3.412c1.179,0,1.932-0.48,2.754-1.247l1.083,1.096c-0.946,0.986-1.973,1.617-3.59,1.686l-0.904,2.124
			L260.309,373.9z"/>
		<path d="M271.425,362.582h1.562l4.221,9.66h-1.782l-0.973-2.316h-4.536l-0.986,2.316h-1.727L271.425,362.582z M269.644,361.568
			c0.288-1.069,0.699-1.685,1.535-1.685c0.753,0,1.535,0.534,2.014,0.534c0.397,0,0.562-0.219,0.754-0.658l0.932,0.274
			c-0.301,1.069-0.712,1.686-1.535,1.686c-0.754,0-1.535-0.534-2.014-0.534c-0.397,0-0.562,0.219-0.768,0.671L269.644,361.568z
			 M273.837,368.433l-1.658-3.837l-1.645,3.837H273.837z"/>
		<path d="M277.843,367.474v-0.027c0-2.699,2.083-4.96,5.029-4.96c2.946,0,5.001,2.234,5.001,4.933v0.027
			c0,2.699-2.083,4.96-5.029,4.96C279.898,372.407,277.843,370.173,277.843,367.474z M286.105,367.474v-0.027
			c0-1.863-1.356-3.412-3.261-3.412c-1.904,0-3.233,1.521-3.233,3.384v0.027c0,1.864,1.356,3.412,3.261,3.412
			C284.776,370.858,286.105,369.337,286.105,367.474z"/>
	</g>
	<g>
		<path d="M263.247,211.771h1.562l4.221,9.66h-1.782l-0.973-2.316h-4.536l-0.986,2.316h-1.727L263.247,211.771z M265.658,217.623
			L264,213.786l-1.645,3.837H265.658z"/>
		<path d="M270.678,211.84h1.795l2.918,4.536l2.918-4.536h1.795v9.592h-1.686v-6.878l-3.028,4.521h-0.055l-3.001-4.494v6.851h-1.658
			V211.84z"/>
		<path d="M282.577,211.84h4.302c1.096,0,1.959,0.302,2.508,0.85c0.425,0.425,0.644,0.945,0.644,1.589v0.027
			c0,1.151-0.658,1.768-1.371,2.138c1.124,0.384,1.905,1.028,1.905,2.33v0.027c0,1.713-1.411,2.631-3.549,2.631h-4.439V211.84z
			 M286.537,215.882c1.083,0,1.809-0.425,1.809-1.302v-0.027c0-0.754-0.603-1.22-1.686-1.22h-2.425v2.549H286.537z M287.03,219.938
			c1.151,0,1.85-0.452,1.85-1.315v-0.027c0-0.809-0.644-1.288-1.973-1.288h-2.672v2.631H287.03z"/>
		<path d="M292.57,211.84h1.686v9.592h-1.686V211.84z"/>
		<path d="M296.819,211.84h7.111v1.507h-5.426v2.494h4.81v1.507h-4.81v2.576h5.495v1.507h-7.18V211.84z"/>
		<path d="M306.004,211.84h1.562l5.138,6.632v-6.632h1.658v9.592h-1.412l-5.289-6.824v6.824h-1.658V211.84z"/>
		<path d="M319.19,213.402h-3.042v-1.562h7.783v1.562h-3.042v8.03h-1.699V213.402z"/>
		<path d="M325.716,211.84h7.111v1.507h-5.426v2.494h4.81v1.507h-4.81v2.576h5.495v1.507h-7.18V211.84z"/>
		<path d="M339.013,211.84h3.576c3.015,0,5.097,2.069,5.097,4.769v0.027c0,2.699-2.083,4.796-5.097,4.796h-3.576V211.84z
			 M342.589,219.897c2.014,0,3.33-1.356,3.33-3.234v-0.027c0-1.877-1.315-3.261-3.33-3.261h-1.891v6.522H342.589z"/>
		<path d="M349.733,211.84h7.111v1.507h-5.426v2.494h4.81v1.507h-4.81v2.576h5.495v1.507h-7.18V211.84z"/>
		<path d="M262.205,229.852h-3.042v-1.562h7.783v1.562h-3.042v8.03h-1.699V229.852z"/>
		<path d="M268.731,228.29h4.275c1.206,0,2.151,0.356,2.768,0.959c0.507,0.521,0.794,1.233,0.794,2.069v0.027
			c0,1.576-0.945,2.521-2.288,2.905l2.59,3.631h-1.987l-2.357-3.343h-2.11v3.343h-1.685V228.29z M272.883,233.044
			c1.206,0,1.973-0.63,1.973-1.603v-0.028c0-1.027-0.74-1.589-1.987-1.589h-2.453v3.22H272.883z"/>
		<path d="M282.041,228.221h1.562l4.221,9.66h-1.782l-0.973-2.316h-4.536l-0.986,2.316h-1.727L282.041,228.221z M284.452,234.072
			l-1.658-3.837l-1.645,3.837H284.452z"/>
		<path d="M289.472,228.29h4.302c1.096,0,1.959,0.302,2.508,0.85c0.425,0.425,0.644,0.945,0.644,1.589v0.028
			c0,1.151-0.658,1.768-1.371,2.137c1.124,0.384,1.905,1.028,1.905,2.33v0.027c0,1.713-1.411,2.631-3.549,2.631h-4.439V228.29z
			 M293.432,232.332c1.083,0,1.809-0.425,1.809-1.302v-0.027c0-0.754-0.603-1.22-1.686-1.22h-2.425v2.549H293.432z M293.925,236.388
			c1.151,0,1.85-0.452,1.85-1.315v-0.027c0-0.809-0.644-1.288-1.973-1.288h-2.672v2.631H293.925z"/>
		<path d="M302.767,228.221h1.562l4.221,9.66h-1.782l-0.973-2.316h-4.536l-0.986,2.316h-1.727L302.767,228.221z M305.179,234.072
			l-1.658-3.837l-1.645,3.837H305.179z"/>
		<path d="M310.199,228.29h1.685v8.057h5.042v1.535h-6.728V228.29z"/>
		<path d="M318.684,228.29h1.685v3.987h4.577v-3.987h1.686v9.592h-1.686v-4.042h-4.577v4.042h-1.685V228.29z"/>
		<path d="M328.677,233.113v-0.027c0-2.699,2.083-4.96,5.029-4.96c2.946,0,5.001,2.233,5.001,4.933v0.027
			c0,2.699-2.083,4.96-5.028,4.96C330.732,238.046,328.677,235.812,328.677,233.113z M336.939,233.113v-0.027
			c0-1.863-1.356-3.412-3.261-3.412c-1.905,0-3.234,1.521-3.234,3.384v0.027c0,1.864,1.356,3.412,3.261,3.412
			C335.61,236.498,336.939,234.977,336.939,233.113z"/>
	</g>
	<g>
		<path d="M698.171,528.001h1.686v3.987h4.576v-3.987h1.686v9.592h-1.686v-4.042h-4.576v4.042h-1.686V528.001z"/>
		<path d="M711.987,527.933h1.562l4.221,9.66h-1.781l-0.974-2.315h-4.535l-0.986,2.315h-1.727L711.987,527.933z M714.398,533.784
			l-1.658-3.836l-1.644,3.836H714.398z"/>
		<path d="M719.418,528.001h4.303c1.096,0,1.959,0.302,2.507,0.85c0.425,0.425,0.645,0.945,0.645,1.59v0.027
			c0,1.15-0.658,1.768-1.37,2.138c1.123,0.384,1.904,1.027,1.904,2.329v0.027c0,1.713-1.411,2.631-3.549,2.631h-4.439V528.001z
			 M723.378,532.043c1.082,0,1.809-0.425,1.809-1.302v-0.027c0-0.753-0.603-1.219-1.686-1.219h-2.425v2.548H723.378z M723.871,536.1
			c1.151,0,1.85-0.452,1.85-1.315v-0.027c0-0.809-0.644-1.288-1.973-1.288h-2.672v2.631H723.871z"/>
		<path d="M729.411,528.001h1.686v9.592h-1.686V528.001z"/>
		<path d="M736.018,529.564h-3.042v-1.562h7.783v1.562h-3.042v8.029h-1.699V529.564z"/>
		<path d="M744.709,527.933h1.562l4.221,9.66h-1.781l-0.974-2.315h-4.535l-0.986,2.315h-1.727L744.709,527.933z M747.12,533.784
			l-1.658-3.836l-1.644,3.836H747.12z"/>
		<path d="M753.947,539.251l1.069-1.59c-2.288-0.425-3.892-2.411-3.892-4.837v-0.027c0-2.727,2.041-4.96,4.946-4.96
			c1.768,0,2.837,0.616,3.755,1.493l-1.083,1.247c-0.768-0.713-1.589-1.192-2.686-1.192c-1.836,0-3.165,1.508-3.165,3.385v0.027
			c0,1.877,1.329,3.412,3.165,3.412c1.179,0,1.933-0.479,2.754-1.247l1.083,1.096c-0.945,0.987-1.974,1.617-3.59,1.686l-0.904,2.124
			L753.947,539.251z"/>
		<path d="M765.064,527.933h1.562l4.221,9.66h-1.781l-0.974-2.315h-4.535l-0.986,2.315h-1.727L765.064,527.933z M763.283,526.919
			c0.287-1.069,0.698-1.686,1.534-1.686c0.754,0,1.534,0.534,2.015,0.534c0.396,0,0.562-0.219,0.753-0.657l0.932,0.273
			c-0.301,1.069-0.712,1.686-1.534,1.686c-0.754,0-1.535-0.534-2.015-0.534c-0.397,0-0.562,0.219-0.767,0.671L763.283,526.919z
			 M767.476,533.784l-1.658-3.836l-1.644,3.836H767.476z"/>
		<path d="M771.481,532.825v-0.027c0-2.699,2.083-4.96,5.028-4.96c2.946,0,5.002,2.233,5.002,4.933v0.027
			c0,2.699-2.083,4.96-5.029,4.96C773.537,537.757,771.481,535.524,771.481,532.825z M779.744,532.825v-0.027
			c0-1.863-1.356-3.412-3.262-3.412c-1.904,0-3.233,1.521-3.233,3.385v0.027c0,1.863,1.356,3.412,3.261,3.412
			C778.415,536.209,779.744,534.688,779.744,532.825z"/>
	</g>
	<g>
		<path d="M742.021,409.945l1.015-1.206c0.918,0.795,1.836,1.247,3.028,1.247c1.041,0,1.698-0.479,1.698-1.206v-0.027
			c0-0.685-0.383-1.055-2.165-1.466c-2.041-0.493-3.192-1.097-3.192-2.864v-0.027c0-1.645,1.37-2.781,3.275-2.781
			c1.397,0,2.507,0.425,3.48,1.206l-0.904,1.273c-0.863-0.644-1.727-0.986-2.604-0.986c-0.987,0-1.562,0.507-1.562,1.138v0.027
			c0,0.74,0.438,1.068,2.274,1.507c2.028,0.493,3.083,1.22,3.083,2.81v0.027c0,1.795-1.411,2.863-3.426,2.863
			C744.557,411.479,743.173,410.972,742.021,409.945z"/>
		<path d="M751.439,401.75h7.111v1.508h-5.426v2.493h4.81v1.508h-4.81v2.576h5.494v1.507h-7.18V401.75z"/>
		<path d="M760.624,401.75h4.275c1.205,0,2.15,0.356,2.768,0.959c0.507,0.521,0.795,1.233,0.795,2.069v0.027
			c0,1.576-0.945,2.521-2.289,2.905l2.59,3.631h-1.986l-2.357-3.344h-2.109v3.344h-1.686V401.75z M764.775,406.505
			c1.206,0,1.974-0.63,1.974-1.604v-0.027c0-1.027-0.74-1.589-1.987-1.589h-2.452v3.22H764.775z"/>
		<path d="M769.438,401.75h1.863l2.892,7.372l2.877-7.372h1.822l-3.987,9.66h-1.479L769.438,401.75z"/>
		<path d="M780.638,401.75h1.686v9.592h-1.686V401.75z"/>
		<path d="M787.285,413l1.069-1.59c-2.288-0.425-3.892-2.411-3.892-4.837v-0.027c0-2.727,2.041-4.96,4.946-4.96
			c1.768,0,2.837,0.616,3.755,1.493l-1.083,1.247c-0.768-0.713-1.589-1.192-2.686-1.192c-1.836,0-3.165,1.508-3.165,3.385v0.027
			c0,1.877,1.329,3.412,3.165,3.412c1.179,0,1.933-0.479,2.754-1.247l1.083,1.097c-0.945,0.986-1.974,1.616-3.59,1.685l-0.904,2.124
			L787.285,413z"/>
		<path d="M794.306,406.574v-0.027c0-2.699,2.083-4.96,5.028-4.96c2.946,0,5.002,2.233,5.002,4.933v0.027
			c0,2.699-2.083,4.96-5.029,4.96C796.361,411.506,794.306,409.273,794.306,406.574z M802.568,406.574v-0.027
			c0-1.863-1.356-3.412-3.262-3.412c-1.904,0-3.233,1.521-3.233,3.385v0.027c0,1.863,1.356,3.412,3.261,3.412
			C801.239,409.958,802.568,408.437,802.568,406.574z"/>
		<path d="M805.67,409.945l1.015-1.206c0.918,0.795,1.836,1.247,3.028,1.247c1.041,0,1.698-0.479,1.698-1.206v-0.027
			c0-0.685-0.383-1.055-2.165-1.466c-2.041-0.493-3.192-1.097-3.192-2.864v-0.027c0-1.645,1.37-2.781,3.275-2.781
			c1.397,0,2.507,0.425,3.48,1.206l-0.904,1.273c-0.863-0.644-1.727-0.986-2.604-0.986c-0.987,0-1.562,0.507-1.562,1.138v0.027
			c0,0.74,0.438,1.068,2.274,1.507c2.028,0.493,3.083,1.22,3.083,2.81v0.027c0,1.795-1.411,2.863-3.426,2.863
			C808.205,411.479,806.821,410.972,805.67,409.945z"/>
		<path d="M742.021,426.395l1.015-1.206c0.918,0.795,1.836,1.247,3.028,1.247c1.041,0,1.698-0.479,1.698-1.206v-0.027
			c0-0.685-0.383-1.055-2.165-1.466c-2.041-0.493-3.192-1.097-3.192-2.864v-0.027c0-1.645,1.37-2.781,3.275-2.781
			c1.397,0,2.507,0.425,3.48,1.206l-0.904,1.273c-0.863-0.644-1.727-0.986-2.604-0.986c-0.987,0-1.562,0.507-1.562,1.138v0.027
			c0,0.74,0.438,1.068,2.274,1.507c2.028,0.493,3.083,1.22,3.083,2.81v0.027c0,1.795-1.411,2.863-3.426,2.863
			C744.557,427.929,743.173,427.422,742.021,426.395z"/>
		<path d="M751.015,423.024v-0.027c0-2.699,2.083-4.96,5.028-4.96c2.946,0,5.002,2.233,5.002,4.933v0.027
			c0,2.699-2.083,4.96-5.029,4.96C753.07,427.957,751.015,425.723,751.015,423.024z M759.277,423.024v-0.027
			c0-1.863-1.356-3.412-3.262-3.412c-1.904,0-3.233,1.521-3.233,3.385v0.027c0,1.863,1.356,3.412,3.261,3.412
			C757.948,426.409,759.277,424.887,759.277,423.024z"/>
		<path d="M762.666,423.024v-0.027c0-2.727,2.041-4.96,4.946-4.96c1.768,0,2.837,0.616,3.755,1.493l-1.083,1.247
			c-0.768-0.713-1.589-1.192-2.686-1.192c-1.836,0-3.165,1.508-3.165,3.385v0.027c0,1.877,1.329,3.412,3.165,3.412
			c1.179,0,1.933-0.479,2.754-1.247l1.083,1.096c-1,1.042-2.097,1.699-3.892,1.699C764.749,427.957,762.666,425.778,762.666,423.024
			z"/>
		<path d="M773.303,418.201h1.686v9.592h-1.686V418.201z"/>
		<path d="M780.951,418.132h1.562l4.221,9.66h-1.781l-0.974-2.315h-4.535l-0.986,2.315h-1.727L780.951,418.132z M783.362,423.983
			l-1.658-3.836l-1.644,3.836H783.362z"/>
		<path d="M788.478,418.201h1.686v9.592h-1.686V418.201z"/>
		<path d="M792.083,426.395l1.015-1.206c0.918,0.795,1.836,1.247,3.028,1.247c1.041,0,1.698-0.479,1.698-1.206v-0.027
			c0-0.685-0.383-1.055-2.164-1.466c-2.042-0.493-3.193-1.097-3.193-2.864v-0.027c0-1.645,1.37-2.781,3.275-2.781
			c1.397,0,2.507,0.425,3.48,1.206l-0.904,1.273c-0.863-0.644-1.727-0.986-2.604-0.986c-0.987,0-1.562,0.507-1.562,1.138v0.027
			c0,0.74,0.438,1.068,2.274,1.507c2.028,0.493,3.083,1.22,3.083,2.81v0.027c0,1.795-1.411,2.863-3.426,2.863
			C794.618,427.929,793.234,427.422,792.083,426.395z"/>
		<path d="M742.666,434.65h3.576c3.015,0,5.098,2.069,5.098,4.769v0.027c0,2.699-2.083,4.796-5.098,4.796h-3.576V434.65z
			 M746.242,442.707c2.015,0,3.33-1.356,3.33-3.233v-0.027c0-1.877-1.315-3.261-3.33-3.261h-1.891v6.521H746.242z"/>
		<path d="M753.386,434.65h7.111v1.508h-5.426v2.493h4.81v1.508h-4.81v2.576h5.494v1.507h-7.18V434.65z"/>
		<path d="M766.038,442.844l1.015-1.206c0.918,0.795,1.836,1.247,3.028,1.247c1.041,0,1.698-0.479,1.698-1.206v-0.027
			c0-0.685-0.383-1.055-2.164-1.466c-2.042-0.493-3.193-1.097-3.193-2.864v-0.027c0-1.645,1.37-2.781,3.275-2.781
			c1.397,0,2.507,0.425,3.48,1.206l-0.904,1.273c-0.863-0.644-1.727-0.986-2.604-0.986c-0.987,0-1.562,0.507-1.562,1.138v0.027
			c0,0.74,0.438,1.068,2.274,1.507c2.028,0.493,3.083,1.22,3.083,2.81v0.027c0,1.795-1.411,2.863-3.426,2.863
			C768.573,444.378,767.189,443.872,766.038,442.844z"/>
		<path d="M778.648,434.582h1.562l4.221,9.66h-1.781l-0.974-2.315h-4.535l-0.986,2.315h-1.727L778.648,434.582z M781.06,440.432
			l-1.658-3.836l-1.644,3.836H781.06z"/>
		<path d="M785.586,440.172v-5.522h1.686v5.454c0,1.781,0.918,2.74,2.426,2.74c1.493,0,2.411-0.904,2.411-2.672v-5.522h1.686v5.44
			c0,2.863-1.616,4.302-4.124,4.302C787.176,444.392,785.586,442.954,785.586,440.172z M790.547,431.882l1.507,0.657l-1.754,1.329
			h-1.288L790.547,431.882z"/>
		<path d="M796.114,434.65h3.576c3.015,0,5.098,2.069,5.098,4.769v0.027c0,2.699-2.083,4.796-5.098,4.796h-3.576V434.65z
			 M799.69,442.707c2.015,0,3.33-1.356,3.33-3.233v-0.027c0-1.877-1.315-3.261-3.33-3.261H797.8v6.521H799.69z"/>
		<path d="M806.834,434.65h7.111v1.508h-5.426v2.493h4.81v1.508h-4.81v2.576h5.494v1.507h-7.18V434.65z"/>
	</g>
	<g>
		<path d="M746.064,302.874h1.562l4.221,9.66h-1.781l-0.974-2.316h-4.535l-0.986,2.316h-1.727L746.064,302.874z M748.476,308.725
			l-1.658-3.837l-1.644,3.837H748.476z M747.694,300.023l1.508,0.658l-1.754,1.329h-1.288L747.694,300.023z"/>
		<path d="M752.48,307.765v-0.027c0-2.686,2.056-4.96,4.946-4.96c1.672,0,2.699,0.466,3.687,1.301l-1.069,1.274
			c-0.74-0.63-1.466-1.027-2.686-1.027c-1.768,0-3.11,1.548-3.11,3.384v0.027c0,1.973,1.302,3.426,3.261,3.426
			c0.904,0,1.727-0.288,2.316-0.727v-1.795h-2.453v-1.466h4.083v4.028c-0.945,0.809-2.302,1.494-4.001,1.494
			C754.453,312.698,752.48,310.561,752.48,307.765z"/>
		<path d="M763.501,308.464v-5.522h1.686v5.454c0,1.781,0.918,2.741,2.426,2.741c1.493,0,2.411-0.904,2.411-2.672v-5.522h1.686v5.44
			c0,2.864-1.617,4.303-4.124,4.303C765.091,312.685,763.501,311.246,763.501,308.464z"/>
		<path d="M777.086,302.874h1.562l4.221,9.66h-1.781l-0.974-2.316h-4.535l-0.986,2.316h-1.727L777.086,302.874z M779.497,308.725
			l-1.658-3.837l-1.644,3.837H779.497z"/>
		<path d="M788.629,302.942h7.111v1.507h-5.426v2.494h4.81v1.507h-4.81v2.576h5.494v1.507h-7.18V302.942z"/>
		<path d="M742.666,319.392h7.111v1.507h-5.426v2.494h4.81v1.507h-4.81v2.576h5.494v1.507h-7.18V319.392z"/>
		<path d="M751.206,327.586l1.015-1.206c0.918,0.795,1.836,1.247,3.028,1.247c1.041,0,1.698-0.479,1.698-1.206v-0.027
			c0-0.685-0.383-1.055-2.164-1.466c-2.042-0.493-3.193-1.096-3.193-2.864v-0.027c0-1.644,1.37-2.781,3.275-2.781
			c1.397,0,2.507,0.425,3.48,1.206l-0.904,1.274c-0.863-0.644-1.727-0.987-2.604-0.987c-0.987,0-1.562,0.507-1.562,1.138v0.027
			c0,0.74,0.438,1.069,2.274,1.507c2.028,0.493,3.083,1.219,3.083,2.809v0.028c0,1.795-1.411,2.864-3.426,2.864
			C753.741,329.121,752.357,328.613,751.206,327.586z"/>
		<path d="M760.199,324.215v-0.027c0-2.686,2.056-4.96,4.946-4.96c1.672,0,2.699,0.466,3.687,1.302l-1.069,1.274
			c-0.74-0.63-1.466-1.027-2.686-1.027c-1.768,0-3.11,1.548-3.11,3.384v0.027c0,1.973,1.302,3.426,3.261,3.426
			c0.904,0,1.727-0.288,2.316-0.727v-1.795h-2.453v-1.466h4.083v4.028c-0.945,0.809-2.302,1.494-4.001,1.494
			C762.172,329.148,760.199,327.01,760.199,324.215z"/>
		<path d="M770.946,324.215v-0.027c0-2.699,2.083-4.96,5.028-4.96c2.946,0,5.002,2.234,5.002,4.933v0.027
			c0,2.699-2.083,4.96-5.029,4.96C773.002,329.148,770.946,326.915,770.946,324.215z M779.209,324.215v-0.027
			c0-1.863-1.356-3.412-3.262-3.412c-1.904,0-3.233,1.521-3.233,3.384v0.027c0,1.864,1.356,3.412,3.261,3.412
			C777.88,327.6,779.209,326.079,779.209,324.215z"/>
		<path d="M784.858,320.954h-3.042v-1.562h7.783v1.562h-3.042v8.03h-1.699V320.954z"/>
		<path d="M790.438,324.215v-0.027c0-2.699,2.083-4.96,5.028-4.96c2.946,0,5.002,2.234,5.002,4.933v0.027
			c0,2.699-2.083,4.96-5.029,4.96C792.494,329.148,790.438,326.915,790.438,324.215z M798.701,324.215v-0.027
			c0-1.863-1.356-3.412-3.262-3.412c-1.904,0-3.233,1.521-3.233,3.384v0.027c0,1.864,1.356,3.412,3.261,3.412
			C797.372,327.6,798.701,326.079,798.701,324.215z"/>
	</g>
	<g>
		<path d="M661.26,209.643h3.576c3.015,0,5.098,2.069,5.098,4.769v0.027c0,2.699-2.083,4.796-5.098,4.796h-3.576V209.643z
			 M664.836,217.7c2.015,0,3.33-1.356,3.33-3.234v-0.027c0-1.877-1.315-3.261-3.33-3.261h-1.891v6.522H664.836z"/>
		<path d="M671.979,209.643h7.111v1.507h-5.426v2.494h4.81v1.507h-4.81v2.576h5.494v1.507h-7.18V209.643z"/>
		<path d="M680.52,217.837l1.015-1.206c0.918,0.795,1.836,1.247,3.028,1.247c1.041,0,1.698-0.479,1.698-1.206v-0.027
			c0-0.685-0.383-1.055-2.165-1.466c-2.041-0.494-3.192-1.097-3.192-2.864v-0.027c0-1.644,1.37-2.781,3.275-2.781
			c1.397,0,2.507,0.425,3.48,1.206l-0.904,1.274c-0.863-0.644-1.727-0.987-2.604-0.987c-0.987,0-1.562,0.507-1.562,1.138v0.027
			c0,0.74,0.438,1.069,2.274,1.507c2.028,0.493,3.083,1.219,3.083,2.809v0.028c0,1.795-1.411,2.864-3.426,2.864
			C683.055,219.372,681.671,218.865,680.52,217.837z"/>
		<path d="M689.938,209.643h7.111v1.507h-5.426v2.494h4.81v1.507h-4.81v2.576h5.494v1.507h-7.18V209.643z"/>
		<path d="M699.122,209.643h1.795l2.919,4.536l2.918-4.536h1.795v9.592h-1.686v-6.878l-3.027,4.521h-0.056l-3-4.494v6.851h-1.658
			V209.643z"/>
		<path d="M711.021,209.643h3.781c2.234,0,3.646,1.274,3.646,3.207v0.027c0,2.151-1.727,3.275-3.837,3.275h-1.904v3.083h-1.686
			V209.643z M714.665,214.631c1.274,0,2.069-0.712,2.069-1.713v-0.027c0-1.124-0.809-1.713-2.069-1.713h-1.959v3.453H714.665z"/>
		<path d="M720.178,209.643h4.275c1.205,0,2.15,0.356,2.768,0.959c0.507,0.521,0.795,1.233,0.795,2.069v0.027
			c0,1.576-0.945,2.521-2.289,2.905l2.59,3.631h-1.986l-2.357-3.343h-2.109v3.343h-1.686V209.643z M724.329,214.398
			c1.206,0,1.974-0.63,1.974-1.603v-0.028c0-1.027-0.74-1.589-1.987-1.589h-2.452v3.22H724.329z"/>
		<path d="M730.089,209.643h7.111v1.507h-5.426v2.494h4.81v1.507h-4.81v2.576h5.494v1.507h-7.18V209.643z"/>
		<path d="M738.849,214.466v-0.027c0-2.686,2.056-4.96,4.946-4.96c1.672,0,2.699,0.466,3.687,1.301l-1.069,1.274
			c-0.74-0.63-1.466-1.027-2.686-1.027c-1.768,0-3.11,1.548-3.11,3.384v0.027c0,1.973,1.302,3.426,3.261,3.426
			c0.904,0,1.727-0.288,2.316-0.727v-1.795h-2.453v-1.466h4.083v4.028c-0.945,0.809-2.302,1.494-4.001,1.494
			C740.821,219.399,738.849,217.262,738.849,214.466z"/>
		<path d="M749.596,214.466v-0.027c0-2.699,2.083-4.96,5.028-4.96c2.946,0,5.002,2.233,5.002,4.933v0.027
			c0,2.699-2.083,4.96-5.029,4.96C751.651,219.399,749.596,217.166,749.596,214.466z M757.858,214.466v-0.027
			c0-1.863-1.356-3.412-3.262-3.412c-1.904,0-3.233,1.521-3.233,3.384v0.027c0,1.864,1.356,3.412,3.261,3.412
			C756.529,217.851,757.858,216.33,757.858,214.466z"/>
	</g>
	<g>
		<path fill="none" d="M265.874,643.372c-0.983-0.97-1.961-1.939-2.933-2.913c-62.892-63.199-101.724-150.421-101.724-246.614
			c0-193.216,156.642-349.861,349.864-349.861c193.168,0,349.867,156.645,349.867,349.861c0,95.458-38.295,182.051-100.331,245.142"
			/>
		<path d="M211.795,199.648l-0.033-0.022c-3.23-2.18-4.245-6.385-1.922-9.827c1.413-2.095,2.999-2.868,4.771-3.254l0.612,2.279
			c-1.458,0.339-2.683,0.93-3.56,2.229c-1.468,2.176-0.745,4.956,1.479,6.457l0.033,0.022c2.224,1.501,5.105,1.153,6.573-1.022
			c0.942-1.396,0.977-2.673,0.725-4.26l2.165-0.406c0.434,2.018,0.337,3.843-1.098,5.969
			C219.305,201.125,215.059,201.85,211.795,199.648z"/>
		<path d="M219.75,187.896l-0.032-0.023c-3.102-2.293-3.931-6.608-1.428-9.994c2.503-3.386,6.816-3.85,9.918-1.557l0.032,0.023
			c3.102,2.293,3.931,6.608,1.428,9.994C227.166,189.725,222.853,190.189,219.75,187.896z M226.771,178.4l-0.032-0.023
			c-2.142-1.583-5.074-1.34-6.692,0.849c-1.618,2.188-1,5.008,1.142,6.592l0.031,0.023c2.142,1.583,5.074,1.34,6.692-0.849
			C229.531,182.803,228.913,179.983,226.771,178.4z"/>
		<path d="M224.807,169.623l1.406-1.734l11.986,0.263l-7.363-5.967l1.492-1.841l10.649,8.63l-1.27,1.567l-12.335-0.268l7.576,6.14
			l-1.492,1.841L224.807,169.623z"/>
		<path d="M234.91,157.3l3.389-3.828c2.856-3.226,7.044-3.494,9.933-0.936l0.029,0.026c2.889,2.558,3.159,6.773,0.302,10
			l-3.389,3.827L234.91,157.3z M246.921,161.108c1.909-2.156,1.704-4.849-0.305-6.628l-0.029-0.026
			c-2.009-1.779-4.737-1.683-6.646,0.473l-1.792,2.023l6.98,6.181L246.921,161.108z"/>
		<path d="M245.458,145.583l1.652-1.755l9.987,9.399l-1.651,1.755L245.458,145.583z"/>
		<path d="M263.627,149.873l-0.531-2.686c-2.739,1.888-6.367,1.506-8.822-0.941l-0.028-0.027c-2.76-2.751-2.961-7.071-0.03-10.012
			c1.783-1.79,3.486-2.249,5.3-2.293l0.17,2.354c-1.495,0.058-2.81,0.406-3.916,1.516c-1.853,1.858-1.668,4.725,0.232,6.619
			l0.028,0.027c1.9,1.894,4.794,2.097,6.647,0.238c1.189-1.193,1.464-2.439,1.517-4.046l2.202,0.01
			c0.045,1.953-0.354,3.628-1.916,5.334l1.237,3.058L263.627,149.873z"/>
		<path d="M261.195,127.616c-0.731-1.402-0.896-2.448-0.018-3.257c0.792-0.729,2.13-0.923,2.635-1.387
			c0.417-0.385,0.378-0.774,0.156-1.421l1.245-0.613c0.717,1.415,0.882,2.461,0.018,3.257c-0.792,0.729-2.13,0.923-2.635,1.387
			c-0.417,0.385-0.378,0.774-0.157,1.448L261.195,127.616z M264.332,136.198l-0.026-0.029c-2.612-2.838-2.611-7.23,0.486-10.081
			c3.097-2.851,7.419-2.492,10.031,0.346l0.027,0.029c2.612,2.838,2.61,7.23-0.486,10.081
			C271.266,139.394,266.944,139.035,264.332,136.198z M273.018,128.202l-0.027-0.029c-1.803-1.959-4.728-2.274-6.73-0.431
			c-2.002,1.843-1.927,4.729-0.124,6.688l0.026,0.029c1.804,1.959,4.728,2.274,6.73,0.431
			C274.896,133.046,274.821,130.161,273.018,128.202z"/>
		<path d="M272.745,119.243l7.761-6.565l1.392,1.645l-5.922,5.009l2.302,2.722l5.249-4.44l1.391,1.645l-5.249,4.44l2.378,2.811
			l5.997-5.072l1.392,1.645l-7.836,6.628L272.745,119.243z"/>
		<path d="M289.606,120.367l0.075-2.25c1.733,0.082,3.164-0.221,4.503-1.273c1.17-0.919,1.486-2.039,0.844-2.855l-0.024-0.031
			c-0.605-0.77-1.363-0.847-3.728,0.264c-2.729,1.249-4.555,1.588-6.116-0.398l-0.024-0.031c-1.452-1.848-0.917-4.335,1.223-6.017
			c1.57-1.234,3.192-1.737,4.976-1.719l0.109,2.23c-1.539,0.039-2.811,0.416-3.796,1.19c-1.108,0.871-1.308,1.949-0.751,2.657
			l0.024,0.031c0.653,0.832,1.437,0.814,3.887-0.315c2.714-1.236,4.541-1.352,5.945,0.434l0.024,0.031
			c1.585,2.017,0.943,4.464-1.32,6.243C293.81,119.853,291.807,120.505,289.606,120.367z"/>
		<path d="M304.147,109.189l0.192-2.243c1.726,0.173,3.171-0.055,4.563-1.036c1.216-0.857,1.59-1.958,0.992-2.807l-0.022-0.032
			c-0.563-0.8-1.316-0.917-3.735,0.069c-2.791,1.104-4.632,1.347-6.086-0.718l-0.022-0.032c-1.353-1.921-0.688-4.377,1.537-5.944
			c1.632-1.15,3.279-1.567,5.058-1.456l-0.008,2.233c-1.538-0.042-2.829,0.269-3.853,0.99c-1.152,0.812-1.407,1.877-0.889,2.614
			l0.022,0.032c0.609,0.864,1.392,0.888,3.897-0.111c2.775-1.093,4.605-1.113,5.913,0.744l0.022,0.032
			c1.478,2.097,0.708,4.507-1.645,6.164C308.371,108.896,306.337,109.443,304.147,109.189z"/>
		<path d="M311.987,97.774l-0.021-0.033c-2.092-3.243-1.342-7.574,2.198-9.857c3.54-2.283,7.741-1.193,9.833,2.051l0.021,0.033
			c2.092,3.244,1.342,7.574-2.198,9.858C318.28,102.108,314.079,101.017,311.987,97.774z M321.915,91.37l-0.021-0.033
			c-1.444-2.239-4.274-3.048-6.562-1.572c-2.289,1.477-2.707,4.334-1.263,6.573l0.021,0.033c1.444,2.239,4.274,3.048,6.562,1.572
			C322.941,96.467,323.359,93.609,321.915,91.37z"/>
		<path d="M326.14,88.742l-0.02-0.034c-1.967-3.364-1.06-7.593,2.524-9.689c2.181-1.275,3.945-1.286,5.71-0.866l-0.436,2.319
			c-1.461-0.325-2.821-0.324-4.174,0.467c-2.266,1.325-2.818,4.144-1.463,6.46l0.02,0.034c1.354,2.316,4.102,3.251,6.368,1.926
			c1.454-0.85,2.038-1.986,2.499-3.526l2.126,0.571c-0.483,2.007-1.361,3.609-3.576,4.905
			C332.269,93.325,328.127,92.14,326.14,88.742z"/>
		<path d="M336.11,75.066l2.115-1.154l6.569,12.038l-2.115,1.154L336.11,75.066z"/>
		<path d="M344.285,78.411l-0.018-0.035c-1.737-3.445-0.535-7.671,3.225-9.567c3.759-1.896,7.82-0.369,9.558,3.076l0.018,0.035
			c1.737,3.445,0.535,7.671-3.225,9.567C350.083,83.383,346.022,81.856,344.285,78.411z M354.83,73.093l-0.018-0.035
			c-1.2-2.378-3.927-3.481-6.358-2.255s-3.148,4.022-1.948,6.4l0.018,0.035c1.199,2.378,3.927,3.481,6.358,2.255
			C355.312,78.268,356.029,75.471,354.83,73.093z"/>
		<path d="M357.047,64.394l9.258-4.189l0.888,1.962l-7.063,3.196l1.469,3.247l6.261-2.833l0.888,1.962l-6.261,2.833l1.518,3.353
			l7.153-3.237l0.888,1.962l-9.347,4.229L357.047,64.394z M359.128,59.304l2.033-0.92l3.248,1.431l-1.819,0.823l-1.842-0.413
			l-0.905,1.656l-1.784,0.807L359.128,59.304z"/>
		<path d="M371.417,65.497l-0.015-0.036c-1.466-3.61,0.036-7.666,3.882-9.229c2.34-0.951,4.087-0.709,5.774-0.042l-0.763,2.233
			c-1.399-0.531-2.746-0.723-4.197-0.134c-2.431,0.988-3.38,3.698-2.371,6.184l0.015,0.037c1.009,2.485,3.595,3.802,6.026,2.815
			c1.56-0.634,2.3-1.674,2.976-3.132l2.023,0.869c-0.765,1.917-1.862,3.377-4.239,4.343
			C376.828,70.908,372.898,69.143,371.417,65.497z"/>
		<path d="M384.578,60.177l-0.013-0.037c-1.295-3.634,0.423-7.678,4.39-9.092s7.806,0.606,9.101,4.241l0.013,0.037
			c1.295,3.634-0.423,7.678-4.39,9.092C389.713,65.832,385.874,63.811,384.578,60.177z M395.702,56.211l-0.013-0.037
			c-0.895-2.509-3.464-3.942-6.028-3.028c-2.564,0.914-3.624,3.6-2.729,6.109l0.013,0.037c0.895,2.509,3.464,3.943,6.028,3.028
			C395.537,61.406,396.597,58.72,395.702,56.211z"/>
		<path d="M398.995,47.837l2.134-0.652l9.791,6.916l-2.77-9.062l2.266-0.692l4.005,13.106l-1.929,0.589l-10.076-7.115l2.85,9.324
			L403,60.943L398.995,47.837z"/>
		<path d="M415.406,50.075l-0.01-0.038c-0.956-3.736,1.126-7.604,5.204-8.646c4.078-1.043,7.714,1.32,8.669,5.057l0.01,0.038
			c0.956,3.736-1.126,7.604-5.204,8.647C419.998,56.175,416.362,53.812,415.406,50.075z M426.843,47.149l-0.01-0.038
			c-0.66-2.58-3.086-4.242-5.722-3.568s-3.938,3.25-3.277,5.83l0.009,0.038c0.66,2.58,3.086,4.243,5.723,3.568
			C426.202,52.305,427.503,49.729,426.843,47.149z"/>
		<path d="M430.917,39.083l2.512-0.516l5.389,5.51l2.782-7.187l2.513-0.516l2.756,13.426l-2.359,0.484l-1.976-9.628l-2.94,7.2
			l-0.077,0.016l-5.492-5.429l1.968,9.59l-2.321,0.476L430.917,39.083z"/>
		<path d="M448.053,35.718l2.374-0.407l2.318,13.512l-2.374,0.407L448.053,35.718z"/>
		<path d="M454.708,41.545l-0.005-0.039c-0.547-3.859,1.896-7.43,6.007-8.012c2.502-0.354,4.138,0.304,5.613,1.361l-1.282,1.982
			c-1.229-0.855-2.489-1.369-4.04-1.149c-2.599,0.368-4.178,2.768-3.802,5.424l0.005,0.039c0.376,2.657,2.565,4.562,5.164,4.195
			c1.668-0.236,2.638-1.066,3.648-2.317l1.751,1.334c-1.207,1.674-2.626,2.825-5.167,3.185
			C458.645,48.109,455.261,45.443,454.708,41.545z"/>
		<path d="M473.91,32.053l2.222-0.219l7.357,13.145l-2.533,0.25l-1.708-3.156l-6.45,0.636l-1.078,3.432l-2.455,0.242L473.91,32.053z
			 M478.161,40.035l-2.896-5.223l-1.8,5.687L478.161,40.035z"/>
		<path d="M484.438,42.939l1.344-1.806c1.377,1.056,2.725,1.624,4.425,1.522c1.486-0.088,2.383-0.828,2.322-1.864l-0.002-0.039
			c-0.058-0.978-0.637-1.473-3.212-1.908c-2.955-0.531-4.647-1.293-4.797-3.815l-0.002-0.039c-0.139-2.346,1.719-4.084,4.436-4.245
			c1.994-0.119,3.613,0.394,5.067,1.425l-1.182,1.895c-1.286-0.846-2.546-1.261-3.797-1.187c-1.407,0.083-2.185,0.855-2.132,1.754
			l0.002,0.039c0.062,1.056,0.716,1.488,3.372,1.958c2.935,0.532,4.501,1.479,4.636,3.746l0.002,0.039
			c0.152,2.561-1.771,4.205-4.645,4.375C488.184,44.914,486.167,44.308,484.438,42.939z"/>
		<path d="M496.88,46.104c1.187-0.276,1.733-0.902,1.601-1.897l-0.999,0.035l-0.092-2.682l2.604-0.089l0.078,2.271
			c0.075,2.173-0.932,3.128-2.903,3.353L496.88,46.104z"/>
		<path d="M508.373,37.087l0-0.039c0.064-3.896,3.033-7.039,7.184-6.971c2.525,0.042,4.038,0.947,5.329,2.222l-1.575,1.756
			c-1.08-1.036-2.244-1.741-3.811-1.766c-2.623-0.043-4.557,2.08-4.601,4.761l-0.001,0.04c-0.044,2.682,1.819,4.906,4.443,4.948
			c1.684,0.028,2.771-0.64,3.963-1.717l1.521,1.591c-1.453,1.464-3.035,2.378-5.6,2.336
			C511.233,44.184,508.308,41.022,508.373,37.087z"/>
		<path d="M523.285,38.324l0.393-7.883l2.406,0.12l-0.389,7.786c-0.127,2.543,1.115,3.978,3.268,4.085
			c2.132,0.106,3.507-1.12,3.633-3.643l0.394-7.883l2.406,0.12l-0.388,7.766c-0.204,4.088-2.615,6.027-6.194,5.849
			C525.253,44.462,523.086,42.295,523.285,38.324z"/>
		<path d="M539.074,31.318l2.398,0.212l-1.014,11.466l7.177,0.635l-0.193,2.184l-9.575-0.847L539.074,31.318z"/>
		<path d="M552.582,34.861l-4.319-0.508l0.261-2.218l11.051,1.3l-0.261,2.218l-4.319-0.508l-1.341,11.4l-2.412-0.284L552.582,34.861
			z"/>
		<path d="M561.054,41.603l1.23-7.797l2.38,0.375l-1.215,7.701c-0.396,2.515,0.686,4.074,2.814,4.41c2.108,0.333,3.606-0.74,4-3.236
			l1.229-7.797l2.38,0.375l-1.211,7.681c-0.638,4.044-3.241,5.715-6.782,5.157C562.358,47.917,560.435,45.531,561.054,41.603z"/>
		<path d="M577.55,36.308l5.989,1.2c1.689,0.338,2.914,1.103,3.608,2.121c0.564,0.872,0.768,1.95,0.532,3.122l-0.007,0.038
			c-0.442,2.208-2.032,3.267-4.021,3.427l2.609,5.813l-2.783-0.557l-2.363-5.345l-2.956-0.592l-0.938,4.684l-2.361-0.473
			L577.55,36.308z M582.032,44.134c1.689,0.338,2.94-0.33,3.214-1.692l0.008-0.039c0.288-1.439-0.591-2.434-2.338-2.784
			l-3.436-0.688l-0.903,4.511L582.032,44.134z"/>
		<path d="M596.593,40.292l2.17,0.53l2.579,14.848l-2.474-0.605l-0.564-3.546l-6.298-1.541l-2.156,2.881l-2.397-0.586
			L596.593,40.292z M597.955,49.235l-0.999-5.891l-3.587,4.77L597.955,49.235z"/>
		<path d="M607.3,43.147l2.322,0.644l-3.664,13.212l-2.321-0.644L607.3,43.147z"/>
		<path d="M609.084,55.778l1.89-1.223c0.922,1.471,1.987,2.473,3.616,2.972c1.423,0.436,2.522,0.056,2.826-0.936l0.012-0.037
			c0.287-0.937-0.083-1.603-2.345-2.91c-2.583-1.529-3.903-2.834-3.163-5.25l0.012-0.038c0.688-2.247,3.037-3.227,5.64-2.43
			c1.909,0.585,3.248,1.63,4.25,3.105l-1.77,1.363c-0.909-1.242-1.945-2.071-3.144-2.438c-1.349-0.413-2.347,0.039-2.61,0.9
			l-0.012,0.038c-0.31,1.011,0.151,1.644,2.477,3.012c2.564,1.523,3.702,2.958,3.036,5.129l-0.011,0.037
			c-0.752,2.453-3.128,3.322-5.88,2.479C611.904,58.936,610.226,57.664,609.084,55.778z"/>
		<path d="M631.463,50.66l9.543,3.492l-0.74,2.023l-7.281-2.665l-1.225,3.347l6.453,2.362l-0.74,2.022l-6.453-2.362l-1.266,3.457
			l7.373,2.698l-0.74,2.023l-9.634-3.526L631.463,50.66z"/>
		<path d="M654.261,59.459l2.05,0.885l0.061,15.064l-2.337-1.01l0.036-3.589l-5.949-2.571l-2.607,2.479l-2.265-0.979L654.261,59.459
			z M654.108,68.501l-0.001-5.973l-4.331,4.101L654.108,68.501z"/>
		<path d="M664.367,64.023l2.305,1.125l0.904,7.653l6.591-3.994l2.305,1.125l-6.014,12.315l-2.164-1.057l4.312-8.832l-6.723,3.907
			l-0.07-0.034l-1.035-7.652l-4.296,8.796l-2.129-1.04L664.367,64.023z"/>
		<path d="M680.009,71.794l5.4,2.942c1.376,0.75,2.253,1.718,2.566,2.781c0.242,0.823,0.161,1.626-0.279,2.435l-0.019,0.034
			c-0.787,1.445-2.034,1.769-3.181,1.746c1.147,1.25,1.688,2.592,0.797,4.226l-0.019,0.034c-1.171,2.15-3.57,2.337-6.253,0.875
			l-5.571-3.036L680.009,71.794z M680.062,85.002c1.444,0.787,2.63,0.697,3.221-0.386l0.019-0.034
			c0.553-1.015,0.072-2.057-1.596-2.966l-3.354-1.827l-1.799,3.302L680.062,85.002z M682.215,79.575
			c1.359,0.74,2.561,0.704,3.16-0.397l0.019-0.034c0.516-0.946,0.077-1.943-1.281-2.683l-3.044-1.658l-1.742,3.199L682.215,79.575z"
			/>
		<path d="M692.748,78.862l2.082,1.212l-6.9,11.845l-2.081-1.212L692.748,78.862z"/>
		<path d="M698.229,82.059l8.64,5.353l-1.135,1.832l-6.592-4.085l-1.878,3.03l5.844,3.621l-1.135,1.832l-5.843-3.621l-1.939,3.129
			l6.676,4.136l-1.135,1.832l-8.724-5.405L698.229,82.059z"/>
		<path d="M709.714,89.237l1.849,1.252l0.766,11.97l5.317-7.851l1.963,1.33l-7.69,11.354l-1.671-1.132l-0.79-12.318l-5.471,8.078
			l-1.963-1.33L709.714,89.237z"/>
		<path d="M724.182,102.025l-3.499-2.578l1.323-1.797l8.953,6.596l-1.324,1.797l-3.499-2.578l-6.805,9.237l-1.954-1.44
			L724.182,102.025z"/>
		<path d="M735.736,107.866l1.75,1.386l-3.846,14.568l-1.995-1.581l0.965-3.458l-5.081-4.025l-3.16,1.718l-1.934-1.532
			L735.736,107.866z M733.245,116.561l1.548-5.77l-5.247,2.839L733.245,116.561z"/>
		<path d="M744.265,114.903l1.843,1.552l-8.833,10.489l-1.844-1.552L744.265,114.903z"/>
		<path d="M740.644,127.146l2.228-0.326c0.226,1.72,0.777,3.074,2.051,4.205c1.111,0.988,2.27,1.1,2.958,0.325l0.026-0.029
			c0.649-0.732,0.591-1.491-0.921-3.62c-1.713-2.464-2.37-4.2-0.692-6.087l0.025-0.029c1.561-1.756,4.103-1.67,6.137,0.137
			c1.492,1.326,2.274,2.833,2.573,4.59l-2.175,0.503c-0.312-1.507-0.908-2.692-1.845-3.524c-1.054-0.936-2.149-0.94-2.747-0.268
			l-0.026,0.029c-0.702,0.791-0.546,1.558,0.999,3.768c1.698,2.451,2.136,4.228,0.628,5.925l-0.026,0.029
			c-1.703,1.917-4.225,1.719-6.375-0.192C741.895,131.19,740.897,129.336,740.644,127.146z"/>
		<path d="M757.865,136.265l0.027-0.028c2.707-2.721,7.082-2.955,10.012-0.041c1.694,1.685,2.266,3.192,2.423,5.034l-2.367,0.214
			c-0.114-1.385-0.45-2.519-1.686-3.748c-1.791-1.782-4.713-1.566-6.562,0.295l-0.028,0.028c-1.988,2-2.133,4.783-0.147,6.758
			c0.917,0.912,2.04,1.448,3.079,1.598l1.809-1.819l-2.485-2.472l1.478-1.486l4.138,4.115l-4.06,4.082
			c-1.773-0.133-3.838-0.806-5.56-2.519C754.894,143.252,755.048,139.098,757.865,136.265z"/>
		<path d="M774.261,142.991l6.913,7.444l-1.577,1.465l-5.275-5.68l-2.61,2.424l4.676,5.035l-1.578,1.465l-4.676-5.035l-2.696,2.504
			l5.342,5.751l-1.578,1.465l-6.979-7.516L774.261,142.991z"/>
		<path d="M783.418,152.935l3.985,4.632c1.123,1.307,1.619,2.663,1.54,3.893c-0.092,1.035-0.596,2.011-1.501,2.79l-0.029,0.025
			c-1.708,1.469-3.613,1.326-5.28,0.229l-1.521,6.19l-1.852-2.153l1.426-5.67l-1.967-2.287l-3.622,3.117l-1.571-1.826
			L783.418,152.935z M782.136,161.866c1.124,1.306,2.522,1.55,3.576,0.644l0.03-0.026c1.113-0.958,1.032-2.283-0.13-3.634
			l-2.286-2.657l-3.489,3.001L782.136,161.866z"/>
		<path d="M795.959,167.8l1.383,1.751l-7.096,13.285l-1.577-1.998l1.735-3.141l-4.016-5.086l-3.47,0.944l-1.528-1.936L795.959,167.8
			z M791.533,175.684l2.835-5.256l-5.759,1.553L791.533,175.684z"/>
		<path d="M802.641,176.631l1.435,1.935l-11.013,8.16l-1.434-1.935L802.641,176.631z"/>
		<path d="M796.289,187.689l2.243,0.197c-0.176,1.727,0.048,3.172,1.026,4.567c0.854,1.219,1.956,1.595,2.806,0.999l0.032-0.022
			c0.802-0.562,0.92-1.315-0.061-3.737c-1.099-2.794-1.338-4.636,0.731-6.087l0.032-0.022c1.924-1.35,4.38-0.679,5.942,1.55
			c1.147,1.636,1.562,3.284,1.445,5.063l-2.233-0.012c0.045-1.539-0.263-2.831-0.982-3.857c-0.81-1.155-1.875-1.412-2.612-0.895
			l-0.032,0.023c-0.866,0.607-0.892,1.39,0.103,3.899c1.087,2.778,1.103,4.609-0.758,5.914l-0.031,0.022
			c-2.102,1.473-4.511,0.699-6.163-1.659C796.573,191.916,796.031,189.879,796.289,187.689z"/>
	</g>
	<g>
		<path fill="none" d="M417.252,482.287c-23.935-23.564-38.785-56.104-38.906-92.083c-0.249-72.254,58.978-131.024,132.288-131.268
			c73.305-0.244,132.938,58.132,133.182,130.386c0.129,35.977-15.146,69.178-38.91,92.911"/>
		<path d="M383.368,323.102l4.371-7.595l1.588,0.913l-3.335,5.795l2.627,1.511l2.956-5.136l1.588,0.913l-2.956,5.136l2.713,1.561
			l3.378-5.868l1.587,0.913l-4.413,7.668L383.368,323.102z"/>
		<path d="M397.267,319.049l-0.493-1.86c1.438-0.382,2.533-1,3.37-2.208c0.731-1.055,0.713-2.053-0.012-2.554l-0.027-0.019
			c-0.685-0.473-1.323-0.34-2.983,1.182c-1.925,1.729-3.335,2.479-5.101,1.258l-0.027-0.019c-1.643-1.135-1.817-3.309-0.481-5.239
			c0.98-1.417,2.184-2.248,3.646-2.694l0.639,1.796c-1.249,0.43-2.197,1.068-2.812,1.957c-0.692,1-0.589,1.933,0.04,2.368
			l0.027,0.019c0.739,0.511,1.375,0.293,3.102-1.265c1.916-1.714,3.381-2.282,4.969-1.185l0.027,0.019
			c1.793,1.24,1.871,3.408,0.458,5.449C400.579,317.54,399.101,318.592,397.267,319.049z"/>
		<path d="M399.354,302.507l-2.371,2.906l-1.47-1.198l6.067-7.437l1.47,1.199l-2.371,2.906l7.556,6.161l-1.325,1.624
			L399.354,302.507z"/>
		<path d="M403.524,294.704l1.408-1.528l8.566,7.894l-1.408,1.528L403.524,294.704z"/>
		<path d="M407.449,290.477l1.494-1.443l6.801,7.043l4.47-4.318l1.295,1.342l-5.963,5.761L407.449,290.477z"/>
		<path d="M418.354,288.08l-0.021-0.026c-2.065-2.546-1.8-6.295,1.021-8.582s6.499-1.775,8.563,0.771l0.021,0.026
			c2.065,2.546,1.8,6.295-1.021,8.582C424.096,291.137,420.419,290.626,418.354,288.08z M426.267,281.667l-0.021-0.026
			c-1.426-1.758-3.909-2.166-5.733-0.687c-1.824,1.479-1.933,3.944-0.507,5.702l0.021,0.026c1.426,1.758,3.91,2.165,5.733,0.687
			C427.583,285.891,427.692,283.424,426.267,281.667z"/>
		<path d="M431.546,270.729l3.775-2.274c3.182-1.917,6.678-1.089,8.371,1.718l0.017,0.028c1.692,2.808,0.808,6.312-2.375,8.229
			l-3.775,2.274L431.546,270.729z M440.373,276.834c2.126-1.281,2.665-3.528,1.488-5.48l-0.018-0.029
			c-1.177-1.953-3.433-2.555-5.56-1.274l-1.996,1.202l4.089,6.784L440.373,276.834z"/>
		<path d="M443.636,263.685l7.88-3.833l0.8,1.647l-6.012,2.924l1.325,2.725l5.329-2.592l0.801,1.646l-5.329,2.592l1.368,2.814
			l6.088-2.961l0.801,1.646l-7.956,3.87L443.636,263.685z"/>
		<path d="M458.636,256.853l2.175-0.736l6.248,7.337l0.485-9.618l2.127-0.72l-0.889,12.688l-1.727,0.585L458.636,256.853z"/>
		<path d="M472.33,252.473l2.006-0.535l3.001,11.258l-2.006,0.535L472.33,252.473z"/>
		<path d="M477.999,250.95l4.325-0.844c3.646-0.712,6.644,1.264,7.269,4.483l0.006,0.033c0.625,3.219-1.408,6.211-5.054,6.923
			l-4.325,0.844L477.999,250.95z M484.19,259.715c2.436-0.476,3.712-2.404,3.278-4.643l-0.006-0.033
			c-0.435-2.239-2.346-3.579-4.782-3.104l-2.287,0.446l1.511,7.779L484.19,259.715z"/>
		<path d="M495.123,248.062l1.915-0.195l6.369,11.146l-2.184,0.222l-1.479-2.677l-5.561,0.566l-0.923,2.921l-2.117,0.215
			L495.123,248.062z M498.803,254.83l-2.507-4.429l-1.542,4.841L498.803,254.83z"/>
		<path d="M510.505,247.201l4.405,0.131c3.713,0.111,6.201,2.699,6.103,5.976l-0.001,0.033c-0.1,3.276-2.742,5.745-6.455,5.634
			l-4.404-0.131L510.505,247.201z M514.613,257.112c2.481,0.074,4.151-1.524,4.221-3.803v-0.033c0.069-2.279-1.5-4.007-3.98-4.081
			l-2.329-0.069l-0.24,7.917L514.613,257.112z"/>
		<path d="M523.305,253.528l0.004-0.033c0.424-3.252,3.326-5.645,6.928-5.176c3.603,0.469,5.765,3.488,5.341,6.74l-0.004,0.033
			c-0.424,3.252-3.326,5.645-6.928,5.176C525.043,259.799,522.881,256.781,523.305,253.528z M533.407,254.844l0.005-0.033
			c0.292-2.246-1.123-4.327-3.452-4.63s-4.192,1.318-4.485,3.563l-0.005,0.033c-0.292,2.245,1.123,4.327,3.452,4.63
			C531.251,258.71,533.115,257.089,533.407,254.844z"/>
		<path d="M536.531,259.526l1.54-1.154c0.893,1.19,1.876,1.974,3.31,2.297c1.253,0.282,2.172-0.108,2.365-0.969l0.007-0.033
			c0.183-0.812-0.181-1.354-2.214-2.323c-2.324-1.137-3.548-2.163-3.077-4.257l0.007-0.033c0.438-1.948,2.389-2.925,4.68-2.409
			c1.681,0.378,2.902,1.182,3.864,2.37l-1.427,1.265c-0.866-0.997-1.813-1.636-2.868-1.873c-1.187-0.267-2.014,0.178-2.182,0.925
			l-0.007,0.032c-0.197,0.877,0.242,1.385,2.334,2.401c2.308,1.133,3.384,2.279,2.96,4.163l-0.007,0.033
			c-0.478,2.126-2.46,3.011-4.882,2.466C539.171,262.031,537.642,261.056,536.531,259.526z"/>
		<path d="M555.789,254.246l1.973,0.649l-3.643,11.066l-1.973-0.649L555.789,254.246z"/>
		<path d="M561.35,256.065l1.783,0.726l2.829,9.845l3.035-7.459l1.893,0.77l-4.39,10.788l-1.611-0.655l-2.914-10.131l-3.123,7.675
			l-1.893-0.77L561.35,256.065z"/>
		<path d="M574.441,261.606l3.898,2.051c3.287,1.729,4.387,5.146,2.86,8.047l-0.016,0.029c-1.527,2.901-4.983,3.959-8.271,2.23
			l-3.898-2.051L574.441,261.606z M573.782,272.315c2.196,1.155,4.397,0.452,5.46-1.565l0.015-0.029
			c1.062-2.017,0.411-4.259-1.785-5.414l-2.062-1.084l-3.689,7.009L573.782,272.315z"/>
		<path d="M586.638,268.325l1.768,1.09l-6.12,9.912l-1.768-1.09L586.638,268.325z"/>
		<path d="M590.769,270.784l1.869,1.333l-2.295,9.365l8.083-5.241l1.829,1.303l-10.811,6.713l-1.484-1.058L590.769,270.784z"/>
		<path d="M602.33,279.331l1.608,1.313l-7.37,9.025l-1.608-1.313L602.33,279.331z M606.102,278.048l0.934,1.794l-2.695-0.116
			l-1.229-1.004L606.102,278.048z"/>
		<path d="M606.851,283.012l3.214,3.015c2.709,2.541,2.862,6.131,0.62,8.523l-0.023,0.024c-2.242,2.393-5.855,2.496-8.564-0.046
			l-3.214-3.015L606.851,283.012z M603.371,293.168c1.811,1.698,4.119,1.604,5.679-0.06l0.023-0.024c1.56-1.664,1.526-4-0.283-5.698
			l-1.699-1.594l-5.419,5.782L603.371,293.168z"/>
		<path d="M611.823,297.083l5.036-4.427l1.372,1.56l-4.974,4.373c-1.625,1.428-1.752,3.047-0.525,4.441
			c1.216,1.382,2.788,1.507,4.4,0.089l5.036-4.427l1.372,1.56l-4.962,4.361c-2.611,2.296-5.24,1.954-7.281-0.367
			C609.268,301.938,609.286,299.313,611.823,297.083z"/>
		<path d="M620.827,306.155l0.027-0.019c2.669-1.906,6.396-1.413,8.506,1.543s1.372,6.595-1.297,8.501l-0.027,0.019
			c-2.669,1.906-6.396,1.413-8.506-1.543S618.158,308.061,620.827,306.155z M626.744,314.445l0.026-0.02
			c1.843-1.315,2.403-3.77,1.039-5.681c-1.364-1.911-3.819-2.171-5.662-0.855l-0.027,0.02c-1.843,1.316-2.402,3.77-1.039,5.681
			C622.445,315.501,624.901,315.761,626.744,314.445z"/>
		<path d="M625.45,319.918l1.895,0.345c-0.267,1.463-0.173,2.718,0.565,3.988c0.645,1.11,1.556,1.518,2.318,1.075l0.028-0.017
			c0.72-0.418,0.871-1.053,0.199-3.202c-0.746-2.477-0.825-4.072,1.031-5.15l0.028-0.017c1.727-1.003,3.77-0.237,4.949,1.792
			c0.865,1.49,1.106,2.932,0.889,4.445l-1.898-0.186c0.142-1.313-0.033-2.442-0.576-3.376c-0.61-1.051-1.499-1.355-2.161-0.971
			l-0.029,0.017c-0.776,0.452-0.851,1.12-0.174,3.344c0.737,2.462,0.628,4.03-1.041,5l-0.029,0.017
			c-1.885,1.096-3.881,0.244-5.128-1.903C625.408,323.557,625.084,321.772,625.45,319.918z"/>
	</g>
	<g>
		<path fill="none" d="M392.106,512.136c-21.857-21.43-38.229-49-46.118-80.893c-22.665-91.644,33.25-184.305,124.895-206.971
			c91.623-22.659,184.297,33.253,206.967,124.896c11.284,45.62,3.076,91.514-19.32,128.875
			c-6.924,11.553-15.191,22.287-24.666,31.953"/>
		<path d="M369.992,274.143l3.59-4.166c1.012-1.175,2.153-1.797,3.258-1.892c0.933-0.057,1.869,0.261,2.684,0.963l0.026,0.023
			c1.536,1.323,1.663,3.038,0.909,4.669l5.713,0.525l-1.668,1.936l-5.236-0.511l-1.772,2.056l3.258,2.807l-1.415,1.642
			L369.992,274.143z M378.111,274.09c1.012-1.175,1.042-2.452,0.095-3.269l-0.027-0.023c-1.001-0.863-2.17-0.614-3.217,0.602
			l-2.059,2.39l3.137,2.704L378.111,274.09z"/>
		<path d="M378.845,264.095l6.438-6.494l1.376,1.365l-4.913,4.955l2.277,2.258l4.354-4.392l1.376,1.364l-4.354,4.392l2.353,2.332
			l4.975-5.017l1.376,1.364l-6.5,6.557L378.845,264.095z"/>
		<path d="M387.706,255.309l3.469-3.019c2.924-2.545,6.69-2.296,8.969,0.322l0.023,0.026c2.278,2.618,2.028,6.41-0.896,8.955
			l-3.469,3.019L387.706,255.309z M397.976,260.105c1.954-1.7,2.084-4.126,0.5-5.947l-0.023-0.026
			c-1.584-1.821-4.028-2.053-5.982-0.353l-1.834,1.596l5.506,6.326L397.976,260.105z"/>
		<path d="M398.747,245.934l7.325-5.48l1.162,1.553l-5.589,4.181l1.922,2.569l4.954-3.706l1.162,1.552l-4.954,3.707l1.985,2.653
			l5.66-4.234l1.161,1.552l-7.396,5.533L398.747,245.934z"/>
		<path d="M413.836,247.886l0.251-2.01c1.546,0.216,2.854,0.062,4.14-0.772c1.124-0.729,1.498-1.706,0.99-2.489l-0.019-0.03
			c-0.479-0.739-1.152-0.87-3.362-0.068c-2.548,0.896-4.211,1.05-5.448-0.857l-0.019-0.03c-1.15-1.774-0.467-3.96,1.588-5.292
			c1.508-0.978,3.003-1.295,4.599-1.133l-0.085,2.007c-1.382-0.091-2.553,0.143-3.499,0.756c-1.064,0.69-1.331,1.64-0.89,2.32
			l0.019,0.03c0.518,0.798,1.221,0.847,3.509,0.036c2.533-0.886,4.179-0.84,5.291,0.875l0.019,0.029
			c1.255,1.937,0.48,4.078-1.694,5.486C417.645,247.769,415.797,248.19,413.836,247.886z"/>
		<path d="M427.794,239.218l0.442-1.979c1.52,0.362,2.836,0.333,4.197-0.374c1.188-0.618,1.655-1.556,1.224-2.385l-0.017-0.031
			c-0.406-0.782-1.064-0.977-3.341-0.389c-2.623,0.649-4.295,0.644-5.344-1.374l-0.017-0.031c-0.976-1.877-0.087-3.988,2.087-5.119
			c1.595-0.83,3.114-1.003,4.688-0.689l-0.276,1.992c-1.367-0.223-2.556-0.102-3.557,0.419c-1.126,0.585-1.482,1.506-1.108,2.225
			l0.016,0.032c0.439,0.844,1.135,0.959,3.491,0.37c2.607-0.641,4.243-0.438,5.186,1.376l0.017,0.031
			c1.065,2.049,0.089,4.106-2.21,5.302C431.599,239.465,429.718,239.708,427.794,239.218z"/>
		<path d="M436.294,229.939l-0.014-0.033c-1.361-3.192-0.039-6.917,3.445-8.403c3.484-1.486,7.042,0.118,8.403,3.311l0.014,0.033
			c1.361,3.192,0.039,6.917-3.445,8.403C441.213,234.736,437.656,233.131,436.294,229.939z M446.066,225.771l-0.014-0.032
			c-0.94-2.204-3.325-3.351-5.578-2.39c-2.252,0.961-3.057,3.43-2.117,5.634l0.014,0.032c0.94,2.204,3.325,3.351,5.578,2.39
			C446.201,230.444,447.006,227.975,446.066,225.771z"/>
		<path d="M450.363,224.08l-0.011-0.033c-1.114-3.325,0.462-6.883,4.004-8.07c2.155-0.722,3.711-0.407,5.188,0.287l-0.81,1.963
			c-1.227-0.555-2.426-0.804-3.762-0.356c-2.239,0.75-3.244,3.131-2.477,5.42l0.011,0.033c0.767,2.289,3.015,3.617,5.254,2.867
			c1.437-0.482,2.16-1.375,2.849-2.646l1.768,0.895c-0.794,1.679-1.862,2.929-4.051,3.662
			C454.919,229.244,451.489,227.438,450.363,224.08z"/>
		<path d="M461.881,213.897l2.089-0.578l3.29,11.888l-2.089,0.578L461.881,213.897z"/>
		<path d="M471.9,211.272l1.962-0.428l7.948,10.978l-2.238,0.488l-1.856-2.643l-5.697,1.243l-0.605,3.179l-2.169,0.473
			L471.9,211.272z M476.532,217.961l-3.133-4.365l-1.015,5.27L476.532,217.961z"/>
		<path d="M481.905,209.402l2.139-0.346l1.966,12.177l-2.14,0.345L481.905,209.402z"/>
		<path d="M488.094,219.045l1.124-1.686c1.287,0.885,2.525,1.332,4.049,1.162c1.331-0.148,2.104-0.855,2-1.784l-0.004-0.035
			c-0.098-0.876-0.641-1.294-2.977-1.566c-2.68-0.339-4.238-0.946-4.49-3.206l-0.004-0.035c-0.234-2.102,1.355-3.751,3.79-4.022
			c1.787-0.199,3.266,0.186,4.622,1.045l-0.975,1.758c-1.195-0.7-2.348-1.015-3.469-0.89c-1.262,0.141-1.925,0.871-1.835,1.677
			l0.004,0.035c0.105,0.946,0.713,1.304,3.123,1.603c2.663,0.341,4.115,1.12,4.342,3.151l0.004,0.035
			c0.256,2.294-1.396,3.862-3.971,4.149C491.554,220.646,489.712,220.194,488.094,219.045z"/>
		<path d="M505.178,206.976l9.146-0.126l0.027,1.938l-6.979,0.097l0.044,3.208l6.187-0.085l0.026,1.938l-6.186,0.086l0.046,3.313
			l7.067-0.098l0.027,1.938l-9.235,0.128L505.178,206.976z"/>
		<path d="M522.133,213.305l0.004-0.035c0.31-3.495,3.18-6.126,6.903-5.796c2.266,0.201,3.565,1.112,4.643,2.341l-1.529,1.475
			c-0.902-1-1.901-1.708-3.307-1.833c-2.354-0.208-4.229,1.573-4.441,3.979l-0.003,0.035c-0.213,2.406,1.316,4.524,3.669,4.733
			c1.511,0.134,2.531-0.396,3.672-1.286l1.264,1.528c-1.4,1.221-2.881,1.939-5.182,1.735
			C524.242,219.864,521.82,216.835,522.133,213.305z"/>
		<path d="M534.986,214.487l0.006-0.035c0.581-3.424,3.708-5.844,7.445-5.21c3.736,0.633,5.863,3.908,5.283,7.332l-0.006,0.035
			c-0.58,3.424-3.708,5.844-7.444,5.21C536.533,221.186,534.406,217.911,534.986,214.487z M545.467,216.263l0.006-0.035
			c0.4-2.364-0.987-4.619-3.403-5.028c-2.416-0.41-4.429,1.234-4.829,3.598l-0.006,0.035c-0.4,2.364,0.987,4.619,3.403,5.028
			C543.054,220.27,545.066,218.626,545.467,216.263z"/>
		<path d="M552.098,211.255l2.234,0.582l2.164,6.593l5.104-4.701l2.234,0.582l-3.107,11.941l-2.099-0.546l2.229-8.563l-5.236,4.648
			l-0.067-0.018l-2.28-6.568l-2.22,8.53l-2.064-0.538L552.098,211.255z"/>
		<path d="M565.073,222.147l2.35-6.703l2.045,0.717l-2.319,6.62c-0.758,2.162-0.052,3.717,1.778,4.358
			c1.812,0.635,3.312-0.072,4.063-2.217l2.349-6.703l2.046,0.717l-2.313,6.603c-1.219,3.476-3.793,4.535-6.837,3.468
			C565.207,227.946,563.891,225.523,565.073,222.147z"/>
		<path d="M580.839,220.296l1.839,0.811l2.606,10.473l3.441-7.806l1.952,0.86l-4.978,11.29l-1.661-0.732l-2.685-10.777l-3.541,8.032
			l-1.952-0.86L580.839,220.296z"/>
		<path d="M594.072,226.384l1.931,0.983l-5.597,10.991l-1.931-0.984L594.072,226.384z"/>
		<path d="M600.981,232.343l-3.395-1.945l0.998-1.743l8.685,4.975l-0.998,1.743l-3.395-1.944l-5.133,8.959l-1.896-1.086
			L600.981,232.343z"/>
		<path d="M612.078,236.628l1.677,1.106l-2.312,13.359l-1.912-1.262l0.596-3.175l-4.868-3.212l-2.699,1.787l-1.854-1.223
			L612.078,236.628z M610.523,244.617l0.938-5.293l-4.482,2.954L610.523,244.617z M615.848,234.724l1.151,1.773l-2.824,0.185
			l-1.382-0.912L615.848,234.724z"/>
		<path d="M620.517,242.499l4.347,3.371c1.226,0.951,1.906,2.059,2.058,3.158c0.104,0.929-0.164,1.88-0.823,2.73l-0.021,0.028
			c-1.243,1.602-2.949,1.818-4.617,1.149l-0.229,5.734l-2.021-1.567l0.24-5.257l-2.146-1.664l-2.636,3.399l-1.714-1.329
			L620.517,242.499z M620.988,250.607c1.227,0.951,2.504,0.915,3.271-0.075l0.021-0.028c0.811-1.044,0.501-2.199-0.767-3.182
			l-2.494-1.934l-2.538,3.274L620.988,250.607z"/>
		<path d="M630.937,250.82l1.643,1.417l-8.064,9.346l-1.643-1.417L630.937,250.82z"/>
		<path d="M638.676,257.695l1.445,1.395l-4.722,12.709l-1.648-1.591l1.168-3.012l-4.197-4.05l-2.98,1.262l-1.598-1.542
			L638.676,257.695z M635.683,265.264l1.892-5.031l-4.948,2.082L635.683,265.264z"/>
		<path d="M637.309,271.272l2.024-0.067c0.029,1.562,0.386,2.828,1.411,3.969c0.896,0.996,1.919,1.213,2.614,0.588l0.026-0.023
			c0.655-0.589,0.679-1.274-0.459-3.331c-1.283-2.377-1.696-3.997-0.006-5.516l0.026-0.023c1.573-1.414,3.839-1.081,5.477,0.741
			c1.201,1.337,1.749,2.764,1.839,4.366l-1.997,0.23c-0.126-1.379-0.54-2.5-1.294-3.338c-0.849-0.944-1.828-1.059-2.431-0.517
			l-0.026,0.023c-0.708,0.636-0.646,1.338,0.514,3.472c1.271,2.364,1.483,3.998-0.037,5.364l-0.025,0.024
			c-1.718,1.543-3.953,1.112-5.685-0.815C638.02,275.016,637.314,273.256,637.309,271.272z"/>
	</g>
	<rect fill="none" width="1024" height="680.315"/>
	<g>
	</g>
	<g>
	</g>
	<g>
	</g>
	<g>
	</g>
	<g>
	</g>
	<g>
	</g>
</g>
</svg>
