<?xml version="1.0" encoding="utf-8"?>
<!-- Generator: Adobe Illustrator 16.0.0, SVG Export Plug-In . SVG Version: 6.00 Build 0)  -->
<!DOCTYPE svg PUBLIC "-//W3C//DTD SVG 1.1//EN" "http://www.w3.org/Graphics/SVG/1.1/DTD/svg11.dtd">
<svg version="1.1" id="Layer_1" xmlns="http://www.w3.org/2000/svg" xmlns:xlink="http://www.w3.org/1999/xlink" x="0px" y="0px"
	 width="140.699px" height="26.582px" viewBox="0 0 140.699 26.582" enable-background="new 0 0 140.699 26.582"
	 xml:space="preserve">
<polygon fill-rule="evenodd" clip-rule="evenodd" fill="#1E1E1E" points="88.864,10.651 92.199,12.542 92.225,16.373 88.919,18.313 
	85.591,16.422 85.563,12.59 88.864,10.651 "/>
<polygon fill-rule="evenodd" clip-rule="evenodd" fill="#1E1E1E" points="85.229,26.582 89.178,24.262 89.145,19.68 85.162,17.417 
	81.208,19.736 81.244,24.32 85.229,26.582 "/>
<polygon fill-rule="evenodd" clip-rule="evenodd" fill="#1E1E1E" points="77.98,18.57 80.559,20.031 80.58,22.998 78.023,24.498 
	75.447,23.034 75.426,20.068 77.98,18.57 "/>
<polygon fill-rule="evenodd" clip-rule="evenodd" fill="#1E1E1E" points="71.733,10.671 75.687,12.916 75.718,17.461 71.798,19.762 
	67.846,17.517 67.813,12.972 71.733,10.671 "/>
<polygon fill-rule="evenodd" clip-rule="evenodd" fill="#1E1E1E" points="75.734,4.574 78.934,6.391 78.96,10.069 75.787,11.932 
	72.59,10.114 72.564,6.438 75.734,4.574 "/>
<polygon fill-rule="evenodd" clip-rule="evenodd" fill="#1E1E1E" points="85.474,11.892 90.6,8.883 90.557,2.937 85.387,0 
	80.256,3.009 80.3,8.956 85.474,11.892 "/>
<g>
	<path fill="#1E1E1E" d="M99.288,4.578v9.895c0,2.989,1.149,4.498,3.118,4.498c2.043,0,3.17-1.432,3.17-4.498V4.578h3.887v9.664
		c0,5.318-2.687,7.848-7.186,7.848c-4.346,0-6.875-2.429-6.875-7.9V4.578H99.288z"/>
	<path fill="#1E1E1E" d="M112.859,4.578h10.51v3.195h-6.623v3.937h6.188v3.171h-6.188v6.928h-3.887V4.578z"/>
	<path fill="#1E1E1E" d="M140.699,21.016c-1.203,0.41-3.477,0.973-5.75,0.973c-3.146,0-5.422-0.793-7.008-2.301
		c-1.559-1.51-2.428-3.758-2.428-6.29c0.026-5.726,4.191-8.999,9.842-8.999c2.225,0,3.938,0.438,4.781,0.82l-0.818,3.143
		c-0.945-0.436-2.096-0.74-3.99-0.74c-3.244,0-5.725,1.84-5.725,5.572c0,3.58,2.25,5.648,5.445,5.648c0.869,0,1.585-0.1,1.892-0.229
		v-3.629h-2.657V11.94h6.416V21.016z"/>
</g>
<path fill="#1E1E1E" d="M13.121,21.371c-0.734,0.356-2.352,0.76-4.424,0.76C3.289,22.131,0,18.743,0,13.537c0-5.613,3.918-9,9.127-9
	c2.047,0,3.487,0.43,4.121,0.757l-0.661,2.478c-0.808-0.353-1.944-0.656-3.335-0.656c-3.462,0-5.963,2.174-5.963,6.269
	c0,3.767,2.172,6.142,5.939,6.142c1.238,0,2.551-0.252,3.386-0.605L13.121,21.371z"/>
<path fill="#1E1E1E" d="M21.412,4.813v17.038h-3.108V4.813H21.412z"/>
<path fill="#1E1E1E" d="M30.92,17.024l-1.467,4.827h-3.211l5.463-17.038h3.967l5.537,17.038h-3.364l-1.54-4.827H30.92z
	 M35.797,14.673l-1.338-4.196c-0.33-1.037-0.607-2.198-0.859-3.186h-0.052c-0.252,0.987-0.532,2.174-0.809,3.186l-1.313,4.196
	H35.797z"/>
<path fill="#1E1E1E" d="M46.111,5.066c1.189-0.227,2.908-0.379,4.703-0.379c2.45,0,4.096,0.406,5.259,1.366
	c0.937,0.782,1.468,1.971,1.468,3.438c0,2.199-1.492,3.689-3.109,4.248v0.073c1.238,0.454,1.972,1.646,2.374,3.287
	c0.558,2.122,1.011,4.095,1.341,4.751h-3.185c-0.251-0.505-0.683-1.895-1.14-4.019c-0.503-2.224-1.285-2.931-3.059-2.981h-1.566v7
	h-3.086V5.066z M49.197,12.576h1.846c2.098,0,3.389-1.113,3.389-2.807c0-1.846-1.291-2.731-3.314-2.731
	c-0.985,0-1.618,0.077-1.92,0.151V12.576z"/>
</svg>
