<?xml version="1.0" encoding="utf-8"?>
<!-- Generator: Adobe Illustrator 16.0.0, SVG Export Plug-In . SVG Version: 6.00 Build 0)  -->
<!DOCTYPE svg PUBLIC "-//W3C//DTD SVG 1.1//EN" "http://www.w3.org/Graphics/SVG/1.1/DTD/svg11.dtd">
<svg version="1.1" id="Layer_1" xmlns="http://www.w3.org/2000/svg" xmlns:xlink="http://www.w3.org/1999/xlink" x="0px" y="0px"
	 width="123.13px" height="73.465px" viewBox="0 0 123.13 73.465" enable-background="new 0 0 123.13 73.465" xml:space="preserve">
<g>
	<g id="_89532688_2_">
		<g>
			<polygon id="_82476968_2_" fill="#0069B3" points="116.711,20.355 123.077,23.972 123.13,31.293 116.816,34.998 110.448,31.382 
				110.396,24.062 			"/>
			<polygon id="_86965000_2_" fill="#0069B3" points="109.755,50.803 117.306,46.369 117.245,37.613 109.63,33.287 102.078,37.719 
				102.14,46.478 			"/>
			<polygon id="_88034432_2_" fill="#0069B3" points="95.909,35.486 100.835,38.283 100.875,43.948 95.989,46.815 91.063,44.018 
				91.021,38.353 			"/>
			<polygon id="_47328696_2_" fill="#0069B3" points="83.968,20.395 91.521,24.683 91.581,33.369 84.092,37.766 76.54,33.477 
				76.478,24.791 			"/>
			<polygon id="_89512712_2_" fill="#0069B3" points="91.614,8.742 97.728,12.215 97.778,19.245 91.716,22.803 85.601,19.332 
				85.552,12.301 			"/>
			<polygon id="_89899192_2_" fill="#0069B3" points="110.222,22.725 120.022,16.974 119.94,5.611 110.058,0 100.259,5.754 
				100.34,17.114 			"/>
		</g>
		<g enable-background="new    ">
			<path fill="#1E1E1E" d="M80.944,55.834v9.914c0,2.998,1.153,4.51,3.126,4.51c2.05,0,3.177-1.434,3.177-4.51v-9.914h3.895v9.685
				c0,5.329-2.689,7.864-7.199,7.864c-4.355,0-6.892-2.434-6.892-7.916v-9.633H80.944z"/>
			<path fill="#1E1E1E" d="M94.546,55.834h10.53v3.203H98.44v3.945h6.2v3.176h-6.2v6.943h-3.895V55.834z"/>
			<path fill="#1E1E1E" d="M122.444,72.307c-1.204,0.41-3.484,0.975-5.765,0.975c-3.151,0-5.431-0.795-7.02-2.307
				c-1.563-1.512-2.435-3.766-2.435-6.301c0.026-5.739,4.202-9.019,9.864-9.019c2.229,0,3.945,0.436,4.791,0.819l-0.819,3.151
				c-0.949-0.436-2.102-0.743-3.998-0.743c-3.253,0-5.738,1.846-5.738,5.586c0,3.586,2.255,5.662,5.457,5.662
				c0.871,0,1.588-0.104,1.896-0.232v-3.637h-2.665v-3.049h6.431V72.307z"/>
		</g>
	</g>
	<g>
		<g>
			<path fill="#1E1E1E" d="M13.337,72.695c-0.744,0.359-2.389,0.77-4.497,0.77c-5.499,0-8.84-3.443-8.84-8.735
				c0-5.707,3.983-9.149,9.278-9.149c2.08,0,3.545,0.438,4.188,0.771l-0.67,2.519c-0.821-0.359-1.978-0.668-3.391-0.668
				c-3.52,0-6.064,2.211-6.064,6.373c0,3.828,2.209,6.244,6.039,6.244c1.26,0,2.595-0.256,3.443-0.617L13.337,72.695z"/>
			<path fill="#1E1E1E" d="M21.767,55.862v17.321h-3.16V55.862H21.767z"/>
			<path fill="#1E1E1E" d="M31.433,68.275l-1.492,4.908h-3.264l5.551-17.321h4.035l5.627,17.321h-3.418l-1.566-4.908H31.433z
				 M36.391,65.885l-1.362-4.266c-0.334-1.053-0.617-2.235-0.873-3.238h-0.053c-0.256,1.003-0.539,2.211-0.822,3.238l-1.336,4.266
				H36.391z"/>
			<path fill="#1E1E1E" d="M46.877,56.119c1.208-0.23,2.954-0.385,4.778-0.385c2.494,0,4.162,0.411,5.346,1.389
				c0.951,0.796,1.49,2.004,1.49,3.494c0,2.236-1.516,3.751-3.16,4.317v0.077c1.258,0.462,2.005,1.67,2.416,3.34
				c0.564,2.158,1.028,4.164,1.361,4.832h-3.237c-0.257-0.516-0.694-1.928-1.158-4.086c-0.513-2.262-1.308-2.982-3.108-3.031h-1.594
				v7.117h-3.134V56.119z M50.011,63.752h1.877c2.132,0,3.443-1.13,3.443-2.854c0-1.876-1.312-2.773-3.365-2.773
				c-1.004,0-1.646,0.076-1.955,0.152V63.752z"/>
		</g>
	</g>
</g>
<polygon fill="#0069B3" points="76.507,24.737 84.029,20.395 91.551,24.737 91.551,33.423 84.029,37.766 76.507,33.423 "/>
<polygon fill="#0069B3" points="102.17,37.774 109.692,33.432 117.214,37.774 117.214,46.461 109.692,50.803 102.17,46.461 "/>
<polygon fill="#0069B3" points="102.619,6.676 110.141,2.333 117.662,6.676 117.662,15.362 110.141,19.704 102.619,15.362 "/>
</svg>
