<?xml version="1.0" encoding="utf-8"?>
<!-- Generator: Adobe Illustrator 16.0.0, SVG Export Plug-In . SVG Version: 6.00 Build 0)  -->
<!DOCTYPE svg PUBLIC "-//W3C//DTD SVG 1.1//EN" "http://www.w3.org/Graphics/SVG/1.1/DTD/svg11.dtd">
<svg version="1.1" id="Layer_1" xmlns="http://www.w3.org/2000/svg" xmlns:xlink="http://www.w3.org/1999/xlink" x="0px" y="0px"
	 width="100px" height="100px" viewBox="0 0 100 100" enable-background="new 0 0 100 100" xml:space="preserve">
<circle cx="50" cy="50" r="50"/>
<g>
	<path fill="#FFFFFF" d="M62.458,73.524l-0.84,3.428c-2.515,0.991-4.521,1.746-6.02,2.268C54.101,79.74,52.362,80,50.381,80
		c-3.048,0-5.416-0.743-7.104-2.229c-1.688-1.486-2.534-3.372-2.534-5.657c0-0.89,0.063-1.796,0.191-2.724
		c0.127-0.927,0.33-1.975,0.609-3.143l3.143-11.125c0.286-1.066,0.521-2.075,0.712-3.027c0.189-0.953,0.286-1.822,0.286-2.61
		c0-1.421-0.293-2.413-0.884-2.971c-0.584-0.559-1.702-0.839-3.358-0.839c-0.812,0-1.65,0.128-2.501,0.381
		c-0.851,0.254-1.588,0.496-2.197,0.725l0.838-3.429c2.063-0.838,4.032-1.555,5.911-2.152c1.885-0.598,3.663-0.895,5.34-0.895
		c3.028,0,5.358,0.73,6.996,2.19c1.645,1.46,2.465,3.359,2.465,5.695c0,0.483-0.059,1.334-0.174,2.553
		c-0.112,1.219-0.323,2.337-0.628,3.353l-3.137,11.085c-0.254,0.89-0.48,1.905-0.685,3.048s-0.305,2.006-0.305,2.591
		c0,1.474,0.33,2.477,0.989,3.01c0.66,0.533,1.797,0.799,3.423,0.799c0.762,0,1.626-0.132,2.585-0.399
		C61.325,73.961,62.024,73.727,62.458,73.524z M63.257,27.01c0,1.931-0.731,3.575-2.191,4.933c-1.46,1.359-3.218,2.038-5.274,2.038
		c-2.058,0-3.822-0.679-5.296-2.038c-1.474-1.358-2.209-3.002-2.209-4.933c0-1.93,0.735-3.582,2.209-4.953
		C51.969,20.686,53.733,20,55.791,20c2.057,0,3.814,0.686,5.274,2.057C62.525,23.428,63.257,25.08,63.257,27.01z"/>
</g>
</svg>
