<?xml version="1.0" encoding="utf-8"?>
<!-- Generator: Adobe Illustrator 16.0.4, SVG Export Plug-In . SVG Version: 6.00 Build 0)  -->
<!DOCTYPE svg PUBLIC "-//W3C//DTD SVG 1.1//EN" "http://www.w3.org/Graphics/SVG/1.1/DTD/svg11.dtd">
<svg version="1.1" id="Layer_1" xmlns="http://www.w3.org/2000/svg" xmlns:xlink="http://www.w3.org/1999/xlink" x="0px" y="0px"
	 width="380.961px" height="380.961px" viewBox="-1.399 -7.399 380.961 380.961"
	 enable-background="new -1.399 -7.399 380.961 380.961" xml:space="preserve">
<path fill="hsl(0,0,20%)" d="M284.321,123.555H93.841v-95.24c0-19.725,15.99-35.715,35.715-35.715h119.051
	c19.725,0,35.715,15.99,35.715,35.715V123.555z M379.562,111.65v154.765c0,19.726-15.991,35.715-35.716,35.715h-23.811v35.715
	c0,19.726-15.99,35.717-35.715,35.717H93.841c-19.725,0-35.715-15.991-35.715-35.717V302.13h-23.81
	c-19.726,0-35.715-15.989-35.715-35.715V111.65c0-19.725,15.99-35.715,35.715-35.715h23.81v83.336h261.91V75.936h23.81
	C363.572,75.936,379.562,91.925,379.562,111.65z M272.416,242.605h-166.67v83.336h166.67V242.605z"/>
</svg>
