<?xml version="1.0" encoding="utf-8"?>
<!-- Generator: Adobe Illustrator 16.0.0, SVG Export Plug-In . SVG Version: 6.00 Build 0)  -->
<!DOCTYPE svg PUBLIC "-//W3C//DTD SVG 1.1//EN" "http://www.w3.org/Graphics/SVG/1.1/DTD/svg11.dtd">
<svg version="1.1" id="Layer_1" xmlns="http://www.w3.org/2000/svg" xmlns:xlink="http://www.w3.org/1999/xlink" x="0px" y="0px"
	 width="516.475px" height="86.73px" viewBox="0 0 516.475 86.73" enable-background="new 0 0 516.475 86.73" xml:space="preserve">
<g>
	<path fill="#221F1F" d="M159.746,37.939c-0.617-0.697-1.341-1.046-2.119-1.046c-0.992,0-1.851,0.698-1.851,1.744
		c0,0.938,0.885,1.877,2.495,3.299c1.1,0.966,1.663,1.503,2.495,2.549s1.207,2.146,1.207,3.406c0,1.583-0.483,2.79-1.448,3.648
		c-0.966,0.858-2.119,1.288-3.434,1.288c-1.905,0-3.568-0.912-4.936-2.764l1.556-1.582c0.965,1.475,2.092,2.199,3.38,2.199
		c1.475,0,2.709-1.046,2.709-2.79c0-0.51-0.161-1.046-0.51-1.609c-0.322-0.563-0.67-0.992-1.019-1.341s-0.858-0.805-1.476-1.342
		c-0.724-0.67-1.288-1.18-1.636-1.528c-0.67-0.725-1.556-2.146-1.556-3.434c0-1.208,0.402-2.173,1.18-2.844
		c0.778-0.697,1.744-1.046,2.843-1.046c1.368,0,2.575,0.563,3.648,1.664L159.746,37.939z"/>
	<path fill="#221F1F" d="M164.388,52.506V38.825c0-1.046,0.402-1.985,1.207-2.817s2.012-1.261,3.648-1.261s2.843,0.429,3.648,1.261
		s1.207,1.771,1.207,2.817v13.681h-2.199v-8.235h-5.338v8.235H164.388z M166.561,42.205h5.338v-3.38
		c0-0.993-0.858-1.985-2.656-1.985s-2.683,0.993-2.683,1.985V42.205z"/>
	<path fill="#221F1F" d="M184.937,35.07h2.227v17.436h-1.717l-0.456-0.832c-0.858,0.832-1.877,1.234-3.085,1.234
		c-1.421,0-2.548-0.429-3.353-1.314c-0.805-0.885-1.207-1.851-1.207-2.897V35.07h2.173v13.626c0,0.993,0.885,1.985,2.387,1.985
		c1.154,0,2.173-0.482,3.031-1.448V35.07z M179.894,33.943l-0.429-1.529l4.963-1.69l0.563,1.931L179.894,33.943z"/>
	<path fill="#221F1F" d="M190.411,52.506V35.07h2.173c3.434,0.08,5.499,1.207,6.572,2.923c0.832,1.207,1.126,2.066,1.341,3.354
		c0.107,0.644,0.161,1.127,0.161,1.422c0.027,0.295,0.027,0.617,0.027,1.02s0,0.751-0.027,1.046c0,0.563-0.214,2.119-0.617,3.111
		c-0.349,0.966-1.208,2.361-2.307,3.139c-1.1,0.778-2.924,1.422-5.15,1.422H190.411z M192.583,50.44h0.402
		c2.307,0,3.702-0.939,4.426-2.173c0.563-0.886,0.778-1.556,0.912-2.521c0.188-0.992,0.161-1.342,0.161-1.958
		c0-0.295,0-0.591-0.027-0.832c0-0.51-0.188-1.663-0.429-2.414c-0.241-0.751-0.832-1.771-1.583-2.334
		c-0.751-0.617-1.958-1.073-3.46-1.073h-0.402V50.44z"/>
	<path fill="#221F1F" d="M212.06,50.307v2.199h-8.611V35.07h7.94v2.2h-5.768v4.936h4.131v2.065h-4.131v6.036H212.06z"/>
	<path fill="#221F1F" d="M220.995,52.506V35.07h2.173c3.434,0.08,5.499,1.207,6.572,2.923c0.832,1.207,1.126,2.066,1.341,3.354
		c0.107,0.644,0.161,1.127,0.161,1.422c0.027,0.295,0.027,0.617,0.027,1.02s0,0.751-0.027,1.046c0,0.563-0.214,2.119-0.617,3.111
		c-0.349,0.966-1.208,2.361-2.307,3.139c-1.1,0.778-2.924,1.422-5.15,1.422H220.995z M223.167,50.44h0.402
		c2.307,0,3.702-0.939,4.426-2.173c0.563-0.886,0.778-1.556,0.912-2.521c0.188-0.992,0.161-1.342,0.161-1.958
		c0-0.295,0-0.591-0.027-0.832c0-0.51-0.188-1.663-0.429-2.414c-0.241-0.751-0.832-1.771-1.583-2.334
		c-0.751-0.617-1.958-1.073-3.46-1.073h-0.402V50.44z"/>
	<path fill="#221F1F" d="M234.033,52.506V38.825c0-1.046,0.402-1.985,1.207-2.817s2.012-1.261,3.648-1.261s2.843,0.429,3.648,1.261
		s1.208,1.771,1.208,2.817v13.681h-2.2v-8.235h-5.338v8.235H234.033z M236.206,42.205h5.338v-3.38c0-0.993-0.858-1.985-2.656-1.985
		s-2.683,0.993-2.683,1.985V42.205z"/>
	<path fill="#221F1F" d="M255.334,52.506h-2.173V35.07h4.211c0.617,0,1.181,0,2.253,0.429c1.476,0.482,2.817,1.877,2.897,4.855
		c0,3.514-2.388,5.499-7.189,5.955V52.506z M255.334,37.135v7.082c3.326-0.349,4.989-1.636,4.989-3.862
		c0-1.368-0.536-2.361-1.288-2.709c-0.724-0.402-1.233-0.51-1.663-0.51H255.334z"/>
	<path fill="#221F1F" d="M273.227,50.307v2.199h-8.61V35.07h7.94v2.2h-5.768v4.936h4.131v2.065h-4.131v6.036H273.227z"/>
	<path fill="#221F1F" d="M282.725,37.939c-0.617-0.697-1.341-1.046-2.119-1.046c-0.992,0-1.851,0.698-1.851,1.744
		c0,0.938,0.886,1.877,2.495,3.299c1.1,0.966,1.662,1.503,2.494,2.549s1.207,2.146,1.207,3.406c0,1.583-0.482,2.79-1.448,3.648
		s-2.119,1.288-3.434,1.288c-1.905,0-3.567-0.912-4.937-2.764l1.557-1.582c0.965,1.475,2.092,2.199,3.38,2.199
		c1.476,0,2.709-1.046,2.709-2.79c0-0.51-0.161-1.046-0.509-1.609c-0.322-0.563-0.672-0.992-1.02-1.341
		c-0.35-0.349-0.859-0.805-1.477-1.342c-0.724-0.67-1.287-1.18-1.636-1.528c-0.671-0.725-1.556-2.146-1.556-3.434
		c0-1.208,0.402-2.173,1.18-2.844c0.778-0.697,1.744-1.046,2.844-1.046c1.368,0,2.575,0.563,3.648,1.664L282.725,37.939z"/>
	<path fill="#221F1F" d="M294.1,37.939c-0.617-0.697-1.341-1.046-2.119-1.046c-0.992,0-1.851,0.698-1.851,1.744
		c0,0.938,0.886,1.877,2.495,3.299c1.1,0.966,1.662,1.503,2.494,2.549s1.207,2.146,1.207,3.406c0,1.583-0.482,2.79-1.448,3.648
		s-2.119,1.288-3.434,1.288c-1.905,0-3.567-0.912-4.937-2.764l1.557-1.582c0.965,1.475,2.092,2.199,3.38,2.199
		c1.476,0,2.709-1.046,2.709-2.79c0-0.51-0.161-1.046-0.509-1.609c-0.322-0.563-0.672-0.992-1.02-1.341
		c-0.35-0.349-0.859-0.805-1.477-1.342c-0.724-0.67-1.287-1.18-1.636-1.528c-0.671-0.725-1.556-2.146-1.556-3.434
		c0-1.208,0.402-2.173,1.18-2.844c0.778-0.697,1.744-1.046,2.844-1.046c1.368,0,2.575,0.563,3.648,1.664L294.1,37.939z"/>
	<path fill="#221F1F" d="M308.586,48.321c0,1.153-0.429,2.173-1.314,3.111c-0.857,0.939-2.064,1.396-3.594,1.396
		s-2.736-0.456-3.621-1.396c-0.886-0.938-1.314-1.958-1.314-3.111v-9.067c0-1.153,0.429-2.172,1.314-3.111
		c0.885-0.939,2.092-1.395,3.621-1.395s2.736,0.456,3.594,1.395c0.886,0.939,1.314,1.958,1.314,3.111V48.321z M306.359,39.12
		c0-1.181-0.992-2.28-2.682-2.28c-1.744,0-2.764,1.1-2.764,2.28v9.335c0,1.181,1.02,2.28,2.764,2.28c1.689,0,2.682-1.1,2.682-2.28
		V39.12z"/>
	<path fill="#221F1F" d="M311.834,52.506V38.825c0-1.046,0.402-1.985,1.207-2.817s2.012-1.261,3.648-1.261s2.844,0.429,3.648,1.261
		s1.207,1.771,1.207,2.817v13.681h-2.199v-8.235h-5.339v8.235H311.834z M314.007,42.205h5.339v-3.38
		c0-0.993-0.859-1.985-2.656-1.985s-2.683,0.993-2.683,1.985V42.205z"/>
	<path fill="#221F1F" d="M341.344,51.271c-1.422,1.047-2.764,1.557-3.998,1.557c-2.064,0-3.729-0.912-4.988-2.736
		c-1.262-1.852-1.879-3.943-1.879-6.304c0-2.361,0.617-4.453,1.879-6.277c1.26-1.851,2.924-2.763,4.988-2.763
		c1.234,0,2.576,0.51,3.998,1.556l-1.262,1.797c-0.992-0.778-1.904-1.18-2.736-1.18c-2.949-0.027-4.773,3.542-4.693,6.868
		c-0.08,3.326,1.744,6.894,4.693,6.867c0.832,0,1.744-0.402,2.736-1.181L341.344,51.271z"/>
	<path fill="#221F1F" d="M353.604,48.321c0,1.153-0.43,2.173-1.314,3.111c-0.857,0.939-2.064,1.396-3.594,1.396
		s-2.736-0.456-3.621-1.396c-0.887-0.938-1.314-1.958-1.314-3.111v-9.067c0-1.153,0.428-2.172,1.314-3.111
		c0.885-0.939,2.092-1.395,3.621-1.395s2.736,0.456,3.594,1.395c0.885,0.939,1.314,1.958,1.314,3.111V48.321z M351.377,39.12
		c0-1.181-0.992-2.28-2.682-2.28c-1.744,0-2.764,1.1-2.764,2.28v9.335c0,1.181,1.02,2.28,2.764,2.28c1.689,0,2.682-1.1,2.682-2.28
		V39.12z"/>
	<path fill="#221F1F" d="M369.994,36.062c0.725,0.885,1.1,1.851,1.1,2.897v13.547h-2.199V38.959c0-1.046-0.75-2.119-1.932-2.119
		c-1.18,0-1.957,1.073-1.957,2.119v13.547h-2.094V38.959c0-1.046-0.75-2.119-1.957-2.119c-1.18,0-1.932,1.073-1.932,2.119v13.547
		h-2.172V38.959c0-1.046,0.348-2.012,1.072-2.897s1.744-1.314,3.031-1.314c1.207,0,2.227,0.483,3.004,1.449
		c0.777-0.966,1.797-1.449,3.004-1.449C368.252,34.748,369.271,35.177,369.994,36.062z"/>
	<path fill="#221F1F" d="M382.605,52.506h-2.174V35.07h1.689l0.457,0.858c0.805-0.832,1.824-1.261,3.084-1.261
		c1.422,0,2.549,0.429,3.354,1.314c0.832,0.885,1.234,1.851,1.234,2.897v13.627h-2.227V38.879c0-1.046-0.859-1.985-2.361-1.985
		c-1.18,0-2.199,0.483-3.057,1.449V52.506z"/>
	<path fill="#221F1F" d="M401.973,50.307v2.199h-8.609V35.07h7.939v2.2h-5.768v4.936h4.131v2.065h-4.131v6.036H401.973z"/>
	<path fill="#221F1F" d="M415.119,51.271c-1.422,1.047-2.762,1.557-3.996,1.557c-2.066,0-3.729-0.912-4.99-2.736
		c-1.26-1.852-1.877-3.943-1.877-6.304c0-2.361,0.617-4.453,1.877-6.277c1.262-1.851,2.924-2.763,4.99-2.763
		c1.234,0,2.574,0.51,3.996,1.556l-1.26,1.797c-0.992-0.778-1.904-1.18-2.736-1.18c-2.951-0.027-4.775,3.542-4.695,6.868
		c-0.08,3.326,1.744,6.894,4.695,6.867c0.832,0,1.744-0.402,2.736-1.181L415.119,51.271z"/>
	<path fill="#221F1F" d="M426.146,50.307v2.199h-8.611V35.07h7.939v2.2h-5.766v4.936h4.131v2.065h-4.131v6.036H426.146z"/>
	<path fill="#221F1F" d="M435.643,37.939c-0.617-0.697-1.34-1.046-2.119-1.046c-0.992,0-1.85,0.698-1.85,1.744
		c0,0.938,0.885,1.877,2.494,3.299c1.1,0.966,1.662,1.503,2.494,2.549s1.207,2.146,1.207,3.406c0,1.583-0.482,2.79-1.447,3.648
		c-0.967,0.858-2.119,1.288-3.434,1.288c-1.904,0-3.568-0.912-4.936-2.764l1.555-1.582c0.967,1.475,2.092,2.199,3.381,2.199
		c1.475,0,2.709-1.046,2.709-2.79c0-0.51-0.162-1.046-0.51-1.609c-0.322-0.563-0.67-0.992-1.02-1.341s-0.859-0.805-1.475-1.342
		c-0.725-0.67-1.289-1.18-1.637-1.528c-0.672-0.725-1.557-2.146-1.557-3.434c0-1.208,0.402-2.173,1.18-2.844
		c0.779-0.697,1.744-1.046,2.844-1.046c1.369,0,2.576,0.563,3.648,1.664L435.643,37.939z"/>
	<path fill="#221F1F" d="M447.018,37.939c-0.617-0.697-1.34-1.046-2.119-1.046c-0.992,0-1.85,0.698-1.85,1.744
		c0,0.938,0.885,1.877,2.494,3.299c1.1,0.966,1.662,1.503,2.494,2.549s1.207,2.146,1.207,3.406c0,1.583-0.482,2.79-1.447,3.648
		c-0.967,0.858-2.119,1.288-3.434,1.288c-1.904,0-3.568-0.912-4.936-2.764l1.555-1.582c0.967,1.475,2.092,2.199,3.381,2.199
		c1.475,0,2.709-1.046,2.709-2.79c0-0.51-0.162-1.046-0.51-1.609c-0.322-0.563-0.67-0.992-1.02-1.341s-0.859-0.805-1.475-1.342
		c-0.725-0.67-1.289-1.18-1.637-1.528c-0.672-0.725-1.557-2.146-1.557-3.434c0-1.208,0.402-2.173,1.18-2.844
		c0.779-0.697,1.744-1.046,2.844-1.046c1.369,0,2.576,0.563,3.648,1.664L447.018,37.939z"/>
	<path fill="#221F1F" d="M453.834,52.506h-2.174V35.07h2.174V52.506z"/>
	<path fill="#221F1F" d="M457.105,52.506V35.07h2.174c3.434,0.08,5.498,1.207,6.57,2.923c0.832,1.207,1.127,2.066,1.342,3.354
		c0.107,0.644,0.162,1.127,0.162,1.422c0.025,0.295,0.025,0.617,0.025,1.02s0,0.751-0.025,1.046c0,0.563-0.215,2.119-0.617,3.111
		c-0.35,0.966-1.207,2.361-2.307,3.139c-1.102,0.778-2.926,1.422-5.15,1.422H457.105z M459.279,50.44h0.402
		c2.307,0,3.701-0.939,4.426-2.173c0.562-0.886,0.777-1.556,0.912-2.521c0.188-0.992,0.16-1.342,0.16-1.958
		c0-0.295,0-0.591-0.027-0.832c0-0.51-0.188-1.663-0.428-2.414c-0.242-0.751-0.832-1.771-1.584-2.334
		c-0.75-0.617-1.957-1.073-3.459-1.073h-0.402V50.44z"/>
	<path fill="#221F1F" d="M470.145,52.506V38.825c0-1.046,0.402-1.985,1.207-2.817s2.012-1.261,3.648-1.261s2.844,0.429,3.648,1.261
		s1.207,1.771,1.207,2.817v13.681h-2.199v-8.235h-5.338v8.235H470.145z M472.318,42.205h5.338v-3.38
		c0-0.993-0.859-1.985-2.656-1.985s-2.682,0.993-2.682,1.985V42.205z"/>
	<path fill="#221F1F" d="M483.104,52.506V35.07h2.172c3.434,0.08,5.5,1.207,6.572,2.923c0.832,1.207,1.127,2.066,1.342,3.354
		c0.107,0.644,0.16,1.127,0.16,1.422c0.027,0.295,0.027,0.617,0.027,1.02s0,0.751-0.027,1.046c0,0.563-0.215,2.119-0.617,3.111
		c-0.348,0.966-1.207,2.361-2.307,3.139c-1.1,0.778-2.924,1.422-5.15,1.422H483.104z M485.275,50.44h0.402
		c2.307,0,3.701-0.939,4.426-2.173c0.564-0.886,0.777-1.556,0.912-2.521c0.188-0.992,0.162-1.342,0.162-1.958
		c0-0.295,0-0.591-0.027-0.832c0-0.51-0.188-1.663-0.43-2.414s-0.832-1.771-1.582-2.334c-0.752-0.617-1.959-1.073-3.461-1.073
		h-0.402V50.44z"/>
	<path fill="#221F1F" d="M504.752,50.307v2.199h-8.611V35.07h7.939v2.2h-5.766v4.936h4.131v2.065h-4.131v6.036H504.752z"/>
	<path fill="#221F1F" d="M514.248,37.939c-0.617-0.697-1.34-1.046-2.119-1.046c-0.992,0-1.85,0.698-1.85,1.744
		c0,0.938,0.885,1.877,2.494,3.299c1.1,0.966,1.662,1.503,2.494,2.549s1.207,2.146,1.207,3.406c0,1.583-0.482,2.79-1.447,3.648
		c-0.967,0.858-2.119,1.288-3.434,1.288c-1.904,0-3.568-0.912-4.936-2.764l1.555-1.582c0.967,1.475,2.092,2.199,3.381,2.199
		c1.475,0,2.709-1.046,2.709-2.79c0-0.51-0.162-1.046-0.51-1.609c-0.322-0.563-0.67-0.992-1.02-1.341s-0.859-0.805-1.475-1.342
		c-0.725-0.67-1.289-1.18-1.637-1.528c-0.672-0.725-1.557-2.146-1.557-3.434c0-1.208,0.402-2.173,1.18-2.844
		c0.779-0.697,1.744-1.046,2.844-1.046c1.369,0,2.576,0.563,3.648,1.664L514.248,37.939z"/>
	<path fill="#221F1F" d="M162.857,79.885c0,1.153-0.429,2.173-1.314,3.111c-0.858,0.939-2.065,1.396-3.594,1.396
		c-1.529,0-2.736-0.456-3.622-1.396c-0.885-0.938-1.314-1.958-1.314-3.111v-9.067c0-1.153,0.429-2.173,1.314-3.111
		s2.092-1.395,3.622-1.395c1.529,0,2.736,0.456,3.594,1.395c0.885,0.938,1.314,1.958,1.314,3.111V79.885z M160.631,70.684
		c0-1.181-0.992-2.28-2.682-2.28c-1.744,0-2.763,1.1-2.763,2.28v9.335c0,1.181,1.02,2.28,2.763,2.28c1.69,0,2.682-1.1,2.682-2.28
		V70.684z"/>
	<path fill="#221F1F" d="M166.104,84.069V66.633h2.173c3.434,0.081,5.499,1.207,6.572,2.924c0.832,1.208,1.126,2.065,1.341,3.354
		c0.107,0.644,0.161,1.127,0.161,1.422c0.027,0.295,0.027,0.617,0.027,1.02s0,0.751-0.027,1.046c0,0.563-0.214,2.119-0.617,3.111
		c-0.349,0.966-1.207,2.361-2.307,3.139c-1.1,0.778-2.924,1.422-5.15,1.422H166.104z M168.277,82.004h0.402
		c2.307,0,3.702-0.938,4.426-2.173c0.563-0.886,0.778-1.556,0.912-2.521c0.188-0.992,0.161-1.342,0.161-1.958
		c0-0.296,0-0.591-0.027-0.832c0-0.51-0.188-1.663-0.429-2.414c-0.241-0.751-0.832-1.771-1.583-2.334
		c-0.751-0.617-1.958-1.073-3.46-1.073h-0.402V82.004z"/>
	<path fill="#221F1F" d="M188.988,79.885c0,1.153-0.429,2.173-1.314,3.111c-0.858,0.939-2.065,1.396-3.594,1.396
		c-1.529,0-2.736-0.456-3.622-1.396c-0.885-0.938-1.314-1.958-1.314-3.111v-9.067c0-1.153,0.429-2.173,1.314-3.111
		s2.092-1.395,3.622-1.395c1.529,0,2.736,0.456,3.594,1.395c0.885,0.938,1.314,1.958,1.314,3.111V79.885z M186.761,70.684
		c0-1.181-0.992-2.28-2.682-2.28c-1.744,0-2.763,1.1-2.763,2.28v9.335c0,1.181,1.02,2.28,2.763,2.28c1.69,0,2.682-1.1,2.682-2.28
		V70.684z"/>
	<path fill="#221F1F" d="M194.408,84.069h-2.173V66.633h1.69l0.456,0.858c0.805-0.831,1.824-1.261,3.085-1.261
		c1.422,0,2.548,0.43,3.353,1.314c0.832,0.886,1.234,1.852,1.234,2.897v13.627h-2.227V70.442c0-1.046-0.858-1.985-2.36-1.985
		c-1.18,0-2.2,0.483-3.058,1.448V84.069z"/>
	<path fill="#221F1F" d="M210.048,84.069h-2.2V68.833h-3.541v-2.2h9.282v2.2h-3.541V84.069z"/>
	<path fill="#221F1F" d="M225.85,79.885c0,1.153-0.429,2.173-1.314,3.111c-0.858,0.939-2.065,1.396-3.594,1.396
		c-1.529,0-2.736-0.456-3.622-1.396c-0.885-0.938-1.314-1.958-1.314-3.111v-9.067c0-1.153,0.429-2.173,1.314-3.111
		s2.092-1.395,3.622-1.395c1.529,0,2.736,0.456,3.594,1.395c0.885,0.938,1.314,1.958,1.314,3.111V79.885z M223.623,70.684
		c0-1.181-0.992-2.28-2.682-2.28c-1.744,0-2.763,1.1-2.763,2.28v9.335c0,1.181,1.02,2.28,2.763,2.28c1.69,0,2.682-1.1,2.682-2.28
		V70.684z"/>
	<path fill="#221F1F" d="M237.708,81.87v2.199h-8.611V66.633h2.173V81.87H237.708z"/>
	<path fill="#221F1F" d="M249.78,79.885c0,1.153-0.429,2.173-1.314,3.111c-0.858,0.939-2.065,1.396-3.594,1.396
		c-1.529,0-2.736-0.456-3.622-1.396c-0.885-0.938-1.314-1.958-1.314-3.111v-9.067c0-1.153,0.429-2.173,1.314-3.111
		s2.092-1.395,3.622-1.395c1.529,0,2.736,0.456,3.594,1.395c0.885,0.938,1.314,1.958,1.314,3.111V79.885z M242.51,65.507
		l-0.429-1.529l4.963-1.69l0.563,1.932L242.51,65.507z M247.553,70.684c0-1.181-0.992-2.28-2.682-2.28
		c-1.744,0-2.763,1.1-2.763,2.28v9.335c0,1.181,1.02,2.28,2.763,2.28c1.69,0,2.682-1.1,2.682-2.28V70.684z"/>
	<path fill="#221F1F" d="M261.826,76.021h2.199v6.224c-1.261,1.314-3.111,2.146-4.613,2.146c-2.066,0-3.729-0.912-4.99-2.736
		c-1.261-1.852-1.878-3.943-1.878-6.304c0-2.361,0.617-4.453,1.878-6.277c1.261-1.851,2.924-2.763,4.99-2.763
		c1.233,0,2.574,0.51,3.996,1.556l-1.26,1.797c-0.993-0.777-1.905-1.18-2.736-1.18c-2.951-0.027-4.775,3.541-4.695,6.867
		c-0.081,3.326,1.744,6.894,4.695,6.867c0.805,0,1.609-0.269,2.414-0.805V76.021z"/>
	<path fill="#221F1F" d="M269.473,84.069H267.3V66.633h2.173V84.069z"/>
	<path fill="#221F1F" d="M283.127,82.835c-1.422,1.047-2.764,1.557-3.997,1.557c-2.065,0-3.729-0.912-4.989-2.736
		c-1.261-1.852-1.878-3.943-1.878-6.304c0-2.361,0.617-4.453,1.878-6.277c1.261-1.851,2.924-2.763,4.989-2.763
		c1.233,0,2.575,0.51,3.997,1.556l-1.261,1.797c-0.993-0.777-1.905-1.18-2.736-1.18c-2.95-0.027-4.774,3.541-4.694,6.867
		c-0.08,3.326,1.744,6.894,4.694,6.867c0.831,0,1.743-0.402,2.736-1.181L283.127,82.835z"/>
	<path fill="#221F1F" d="M285.543,84.069V70.389c0-1.046,0.402-1.985,1.207-2.816c0.805-0.832,2.012-1.261,3.648-1.261
		s2.844,0.429,3.648,1.261c0.805,0.831,1.207,1.771,1.207,2.816v13.681h-2.199v-8.235h-5.339v8.235H285.543z M287.716,73.769h5.339
		v-3.38c0-0.992-0.859-1.985-2.656-1.985s-2.683,0.993-2.683,1.985V73.769z"/>
	<path fill="#221F1F" d="M305.233,69.503c-0.616-0.697-1.341-1.046-2.119-1.046c-0.992,0-1.851,0.697-1.851,1.744
		c0,0.938,0.885,1.877,2.494,3.299c1.1,0.966,1.664,1.503,2.495,2.549s1.207,2.146,1.207,3.406c0,1.583-0.483,2.79-1.448,3.648
		c-0.966,0.858-2.119,1.288-3.434,1.288c-1.904,0-3.568-0.912-4.936-2.764l1.555-1.582c0.967,1.475,2.094,2.199,3.381,2.199
		c1.475,0,2.709-1.046,2.709-2.79c0-0.51-0.16-1.046-0.51-1.609c-0.322-0.563-0.67-0.992-1.02-1.341
		c-0.348-0.349-0.857-0.805-1.475-1.342c-0.725-0.67-1.288-1.18-1.637-1.528c-0.67-0.725-1.556-2.146-1.556-3.434
		c0-1.207,0.402-2.173,1.181-2.844c0.777-0.697,1.743-1.046,2.843-1.046c1.368,0,2.575,0.563,3.648,1.663L305.233,69.503z"/>
	<path fill="#221F1F" d="M324.658,81.87v2.199h-8.611V66.633h7.939v2.2h-5.768v4.936h4.131v2.065h-4.131v6.036H324.658z"/>
	<path fill="#221F1F" d="M334.154,69.503c-0.617-0.697-1.342-1.046-2.119-1.046c-0.992,0-1.852,0.697-1.852,1.744
		c0,0.938,0.885,1.877,2.494,3.299c1.102,0.966,1.664,1.503,2.496,2.549s1.207,2.146,1.207,3.406c0,1.583-0.482,2.79-1.449,3.648
		c-0.965,0.858-2.119,1.288-3.434,1.288c-1.904,0-3.568-0.912-4.936-2.764l1.557-1.582c0.965,1.475,2.092,2.199,3.379,2.199
		c1.477,0,2.709-1.046,2.709-2.79c0-0.51-0.16-1.046-0.51-1.609c-0.32-0.563-0.67-0.992-1.02-1.341
		c-0.348-0.349-0.857-0.805-1.475-1.342c-0.725-0.67-1.287-1.18-1.637-1.528c-0.67-0.725-1.555-2.146-1.555-3.434
		c0-1.207,0.402-2.173,1.18-2.844c0.777-0.697,1.744-1.046,2.844-1.046c1.367,0,2.574,0.563,3.648,1.663L334.154,69.503z"/>
	<path fill="#221F1F" d="M340.971,84.069h-2.174V66.633h4.211c0.617,0,1.182,0,2.254,0.43c1.475,0.482,2.816,1.878,2.896,4.855
		c0,3.514-2.387,5.499-7.188,5.955V84.069z M340.971,68.698v7.082c3.326-0.349,4.988-1.636,4.988-3.862
		c0-1.368-0.537-2.361-1.287-2.71c-0.725-0.402-1.234-0.51-1.664-0.51H340.971z"/>
	<path fill="#221F1F" d="M358.863,81.87v2.199h-8.611V66.633h7.939v2.2h-5.766v4.936h4.131v2.065h-4.131v6.036H358.863z"/>
	<path fill="#221F1F" d="M372.008,82.835c-1.422,1.047-2.762,1.557-3.996,1.557c-2.066,0-3.729-0.912-4.99-2.736
		c-1.26-1.852-1.877-3.943-1.877-6.304c0-2.361,0.617-4.453,1.877-6.277c1.262-1.851,2.924-2.763,4.99-2.763
		c1.234,0,2.574,0.51,3.996,1.556l-1.26,1.797c-0.992-0.777-1.904-1.18-2.736-1.18c-2.951-0.027-4.775,3.541-4.695,6.867
		c-0.08,3.326,1.744,6.894,4.695,6.867c0.832,0,1.744-0.402,2.736-1.181L372.008,82.835z"/>
	<path fill="#221F1F" d="M376.598,84.069h-2.174V66.633h2.174V84.069z"/>
	<path fill="#221F1F" d="M379.869,84.069V70.389c0-1.046,0.402-1.985,1.207-2.816c0.805-0.832,2.012-1.261,3.648-1.261
		s2.844,0.429,3.648,1.261c0.805,0.831,1.207,1.771,1.207,2.816v13.681h-2.199v-8.235h-5.338v8.235H379.869z M382.043,73.769h5.338
		v-3.38c0-0.992-0.859-1.985-2.656-1.985s-2.682,0.993-2.682,1.985V73.769z"/>
	<path fill="#221F1F" d="M395,84.069h-2.172V66.633H395V84.069z"/>
	<path fill="#221F1F" d="M405.006,69.503c-0.617-0.697-1.34-1.046-2.119-1.046c-0.992,0-1.85,0.697-1.85,1.744
		c0,0.938,0.885,1.877,2.494,3.299c1.1,0.966,1.662,1.503,2.494,2.549s1.207,2.146,1.207,3.406c0,1.583-0.482,2.79-1.447,3.648
		c-0.967,0.858-2.119,1.288-3.434,1.288c-1.904,0-3.568-0.912-4.936-2.764l1.555-1.582c0.967,1.475,2.092,2.199,3.381,2.199
		c1.475,0,2.709-1.046,2.709-2.79c0-0.51-0.162-1.046-0.51-1.609c-0.322-0.563-0.67-0.992-1.02-1.341s-0.859-0.805-1.475-1.342
		c-0.725-0.67-1.289-1.18-1.637-1.528c-0.672-0.725-1.557-2.146-1.557-3.434c0-1.207,0.402-2.173,1.18-2.844
		c0.779-0.697,1.744-1.046,2.844-1.046c1.369,0,2.576,0.563,3.648,1.663L405.006,69.503z"/>
</g>
<g>
	<path fill="#48A7D7" d="M36.119,79.364c-3.86-4.521-5.747-10.672-4.634-16.987c1.89-10.724,11.738-18.021,22.396-16.934
		c0.009-0.023,0.018,0.025,0.027,0c7.037,0.912,12.351-1.242,16.296-4.263c0.121-0.132,0.354-0.307,0.564-0.46
		c0.367-1.211,0.724-2.449,1.063-3.723c0-0.003,0.002-0.005,0.002-0.008c0.316-0.788,0.556-1.617,0.71-2.484
		c1.199-6.805-3.345-13.293-10.15-14.491c-5.861-1.034-11.479,2.199-13.692,7.46l-0.011,0.002c0,0-0.009,0.032-0.026,0.078
		c-0.104,0.256-0.194,0.521-0.284,0.785c-0.824,2.139-3.366,7.829-8.383,12.093c-0.111,0.094-0.74,0.504-0.962,0.748
		c-3.945,3.021-9.259,5.175-16.296,4.263c-0.009,0.025-0.018-0.023-0.028,0c-10.658-1.087-20.506,6.21-22.396,16.934
		c-1.113,6.315,0.773,12.466,4.634,16.987c1.78,2.086,3.987,3.814,6.508,5.067c0.163,0.144,0.615,0.362,0.681,0.326
		c1.538,0.694,3.181,1.218,4.918,1.524c1.712,0.302,3.411,0.534,5.069,0.417c3.792,0.114,10.178-0.782,17.273-4.274
		C38.195,81.519,37.088,80.501,36.119,79.364z"/>
	<circle fill="#48A7D7" cx="73.29" cy="8.511" r="8.51"/>
	<path fill="#DC166C" d="M67.287,79.364c-3.861-4.521-5.747-10.672-4.634-16.987c1.889-10.724,11.737-18.021,22.396-16.934
		c0.009-0.023,0.019,0.025,0.028,0c7.037,0.912,12.351-1.242,16.296-4.263c0.12-0.132,0.353-0.307,0.564-0.46
		c0.366-1.211,0.724-2.449,1.063-3.723c0-0.003,0.001-0.005,0.001-0.008c0.316-0.788,0.557-1.617,0.711-2.484
		c1.199-6.805-3.344-13.293-10.15-14.491c-5.861-1.034-11.479,2.199-13.691,7.46l-0.011,0.002c0,0-0.009,0.032-0.026,0.078
		c-0.105,0.256-0.194,0.521-0.284,0.785c-0.825,2.139-3.366,7.829-8.384,12.093c-0.052,0.043-0.217,0.157-0.397,0.288
		C63.374,65.096,50.515,76.952,39.4,82.425c1.008,0.755,2.079,1.437,3.227,2.007c0.163,0.144,0.615,0.362,0.681,0.326
		c1.538,0.694,3.181,1.218,4.918,1.524c1.712,0.302,3.411,0.534,5.069,0.417c3.791,0.114,10.178-0.782,17.273-4.274
		C69.363,81.519,68.256,80.501,67.287,79.364z"/>
	<path fill="#644299" d="M70.769,40.72c-0.211,0.153-0.444,0.328-0.564,0.46c-3.945,3.021-9.259,5.175-16.296,4.263
		c-0.009,0.025-0.019-0.023-0.027,0c-10.659-1.087-20.507,6.21-22.396,16.934c-1.113,6.315,0.774,12.466,4.634,16.987
		c0.969,1.137,2.076,2.154,3.281,3.061C50.515,76.952,63.374,65.096,70.769,40.72z"/>
	<circle fill="#DC166C" cx="104.458" cy="8.511" r="8.51"/>
	<path fill="#98C53C" d="M124.73,20.014c-5.861-1.034-11.479,2.199-13.692,7.46l-0.011,0.002c0,0-0.009,0.032-0.026,0.078
		c-0.104,0.256-0.194,0.521-0.284,0.785c-0.824,2.139-3.366,7.829-8.384,12.093c-0.052,0.043-0.217,0.157-0.397,0.288
		c-7.395,24.375-20.254,36.232-31.369,41.705c1.008,0.755,2.08,1.437,3.228,2.007c0.164,0.144,0.615,0.362,0.681,0.326
		c1.539,0.694,3.181,1.218,4.918,1.524c1.712,0.302,3.411,0.534,5.069,0.417c10.025,0.303,38.171-6.427,49.705-49.702
		c0-0.003,0.002-0.005,0.002-0.008c0.316-0.788,0.556-1.617,0.71-2.484C136.079,27.7,131.536,21.212,124.73,20.014z"/>
	<path fill="#F27321" d="M101.937,40.72c-0.211,0.153-0.444,0.328-0.564,0.46c-3.945,3.021-9.259,5.175-16.296,4.263
		c-0.009,0.025-0.019-0.023-0.028,0c-10.659-1.087-20.507,6.21-22.396,16.934c-1.113,6.315,0.773,12.466,4.634,16.987
		c0.969,1.137,2.076,2.154,3.281,3.061C81.683,76.952,94.542,65.096,101.937,40.72z"/>
	<circle fill="#98C53C" cx="135.626" cy="8.511" r="8.51"/>
</g>
</svg>
